  0
SECTION
  2
HEADER
  9
$ACADVER
  1
AC1003
  9
$INSBASE
 10
0.0
 20
0.0
  9
$EXTMIN
 10
-150
 20
-150
  9
$EXTMAX
 10
150
 20
150
  9
$LIMMIN
 10
0.0
 20
0.0
  9
$LIMMAX
 10
300.0
 20
225.0
  9
$VIEWCTR
 10
7.378144
 20
4.5
  9
$VIEWSIZE
 40
9.0
  9
$SNAPMODE
 70
     0
  9
$SNAPUNIT
 10
1.0
 20
1.0
  9
$SNAPBASE
 10
0.0
 20
0.0
  9
$SNAPANG
 50
0.0
  9
$SNAPSTYLE
 70
     0
  9
$SNAPISOPAIR
 70
     0
  9
$GRIDMODE
 70
     0
  9
$GRIDUNIT
 10
0.0
 20
0.0
  9
$ORTHOMODE
 70
     0
  9
$REGENMODE
 70
     1
  9
$FILLMODE
 70
     1
  9
$QTEXTMODE
 70
     0
  9
$DRAGMODE
 70
     2
  9
$LTSCALE
 40
1.0
  9
$OSMODE
 70
     0
  9
$ATTMODE
 70
     1
  9
$TEXTSIZE
 40
0.2
  9
$TRACEWID
 40
0.05
  9
$TEXTSTYLE
  7
STANDARD
  9
$CLAYER
  8
0
  9
$CELTYPE
  6
BYLAYER
  9
$CECOLOR
 62
   256
  9
$DIMSCALE
 40
1.0
  9
$DIMASZ
 40
0.18
  9
$DIMEXO
 40
0.0625
  9
$DIMDLI
 40
0.38
  9
$DIMRND
 40
0.0
  9
$DIMDLE
 40
0.0
  9
$DIMEXE
 40
0.18
  9
$DIMTP
 40
0.0
  9
$DIMTM
 40
0.0
  9
$DIMTXT
 40
0.18
  9
$DIMCEN
 40
0.09
  9
$DIMTSZ
 40
0.0
  9
$DIMTOL
 70
     0
  9
$DIMLIM
 70
     0
  9
$DIMTIH
 70
     1
  9
$DIMTOH
 70
     1
  9
$DIMSE1
 70
     0
  9
$DIMSE2
 70
     0
  9
$DIMTAD
 70
     0
  9
$DIMZIN
 70
     0
  9
$DIMBLK
  1

  9
$DIMASO
 70
     1
  9
$DIMSHO
 70
     0
  9
$DIMPOST
  1

  9
$DIMAPOST
  1

  9
$DIMALT
 70
     0
  9
$DIMALTD
 70
     2
  9
$DIMALTF
 40
25.4
  9
$DIMLFAC
 40
1.0
  9
$LUNITS
 70
     2
  9
$LUPREC
 70
     4
  9
$AXISMODE
 70
     0
  9
$AXISUNIT
 10
0.0
 20
0.0
  9
$SKETCHINC
 40
0.1
  9
$FILLETRAD
 40
0.0
  9
$AUNITS
 70
     0
  9
$AUPREC
 70
     0
  9
$MENU
  1
ACAD
  9
$ELEVATION
 40
0.0
  9
$THICKNESS
 40
0.0
  9
$VIEWDIR
 10
0.0
 20
0.0
 30
1.0
  9
$LIMCHECK
 70
     0
  9
$BLIPMODE
 70
     1
  9
$CHAMFERA
 40
0.0
  9
$CHAMFERB
 40
0.0
  9
$FASTZOOM
 70
     1
  9
$SKPOLY
 70
     0
  9
$TDCREATE
 40
2447732.6512363921
  9
$TDUPDATE
 40
2447732.6512363921
  9
$TDINDWG
 40
0.0000000000
  9
$TDUSRTIMER
 40
0.0000000000
  9
$USRTIMER
 70
     1
  9
$ANGBASE
 50
0.0
  9
$ANGDIR
 70
     0
  9
$PDMODE
 70
     0
  9
$PDSIZE
 40
0.0
  9
$PLINEWID
 40
0.0
  9
$COORDS
 70
     0
  9
$USERI1
 70
     0
  9
$USERI2
 70
     0
  9
$USERI3
 70
     0
  9
$USERI4
 70
     0
  9
$USERI5
 70
     0
  9
$USERR1
 40
0.0
  9
$USERR2
 40
0.0
  9
$USERR3
 40
0.0
  9
$USERR4
 40
0.0
  9
$USERR5
 40
0.0
  0
ENDSEC
  0
SECTION
  2
TABLES
  0
TABLE
  2
LTYPE
  70
     3
  0
LTYPE
  2
CONTINUOUS
 70
    64
  3
Solid line
 72
    65
 73
     0
 40
0.0
  0
ENDTAB
  0
TABLE
  2
LAYER
 70
     9
  0
LAYER
  2
0
 70
     0
 62
     7
  6
CONTINUOUS
  0
LAYER
  2
1
 70
     0
 62
     1
  6
CONTINUOUS
  0
LAYER
  2
2
 70
     0
 62
     2
  6
CONTINUOUS
  0
LAYER
  2
3
 70
     0
 62
     3
  6
CONTINUOUS
  0
LAYER
  2
4
 70
     0
 62
     4
  6
CONTINUOUS
  0
LAYER
  2
5
 70
     0
 62
     5
  6
CONTINUOUS
  0
LAYER
  2
6
 70
     0
 62
     6
  6
CONTINUOUS
  0
LAYER
  2
7
 70
     0
 62
     7
  6
CONTINUOUS
  0
LAYER
  2
8
 70
     0
 62
     7
  6
CONTINUOUS
  0
ENDTAB
  0
TABLE
  2
STYLE
 70
     5
  0
STYLE
  2
STANDARD
 70
     0
 40
0.0
 41
1.0
 50
0.0
 71
     0
 42
0.2
  3
TXT
  4

  0
STYLE
  2
GREEK
 70
     0
 40
0.0
 41
1.0
 50
0.0
 71
     0
 42
0.2
  3
GREEKC
  4

  0
STYLE
  2
ITALICC
 70
     0
 40
0.0
 41
1.0
 50
0.0
 71
     0
 42
0.2
  3
ITALICC
  4

  0
STYLE
  2
MONOTXT
 70
     0
 40
0.0
 41
1.0
 50
0.0
 71
     0
 42
0.2
  3
MONOTXT
  4

  0
STYLE
  2
GOTHICE
 70
     0
 40
0.0
 41
1.0
 50
0.0
 71
     0
 42
0.2
  3
GOTHICE
  4

  0
ENDTAB
  0
TABLE
  2
VIEW
 70
     0
  0
ENDTAB
  0
ENDSEC
  0
SECTION
  2
BLOCKS
  0
ENDSEC
  0
SECTION
  2
ENTITIES
  0
POLYLINE
  8
7
  6
CONTINUOUS
 66
  1
  0
VERTEX
  8
7
  10
92.517
  20
14.712
  0
VERTEX
  8
7
  10
92.517
  20
16.796
  0
VERTEX
  8
7
  10
92.848
  20
16.796
  0
VERTEX
  8
7
  10
92.848
  20
14.712
  0
VERTEX
  8
7
  10
92.848
  20
14.610
  0
VERTEX
  8
7
  10
92.873
  20
14.483
  0
VERTEX
  8
7
  10
92.898
  20
14.382
  0
VERTEX
  8
7
  10
92.949
  20
14.280
  0
VERTEX
  8
7
  10
93.000
  20
14.178
  0
VERTEX
  8
7
  10
93.051
  20
14.102
  0
VERTEX
  8
7
  10
93.127
  20
14.051
  0
VERTEX
  8
7
  10
93.229
  20
14.000
  0
VERTEX
  8
7
  10
93.305
  20
13.950
  0
VERTEX
  8
7
  10
93.407
  20
13.924
  0
VERTEX
  8
7
  10
93.483
  20
13.899
  0
VERTEX
  8
7
  10
93.585
  20
13.899
  0
VERTEX
  8
7
  10
93.686
  20
13.899
  0
VERTEX
  8
7
  10
93.788
  20
13.924
  0
VERTEX
  8
7
  10
93.864
  20
13.950
  0
VERTEX
  8
7
  10
93.966
  20
14.000
  0
VERTEX
  8
7
  10
94.042
  20
14.051
  0
VERTEX
  8
7
  10
94.118
  20
14.127
  0
VERTEX
  8
7
  10
94.194
  20
14.204
  0
VERTEX
  8
7
  10
94.245
  20
14.305
  0
VERTEX
  8
7
  10
94.296
  20
14.407
  0
VERTEX
  8
7
  10
94.321
  20
14.509
  0
VERTEX
  8
7
  10
94.347
  20
14.636
  0
VERTEX
  8
7
  10
94.347
  20
14.788
  0
VERTEX
  8
7
  10
94.347
  20
16.796
  0
VERTEX
  8
7
  10
94.652
  20
16.796
  0
VERTEX
  8
7
  10
94.652
  20
14.788
  0
VERTEX
  8
7
  10
94.652
  20
14.661
  0
VERTEX
  8
7
  10
94.626
  20
14.534
  0
VERTEX
  8
7
  10
94.601
  20
14.407
  0
VERTEX
  8
7
  10
94.576
  20
14.280
  0
VERTEX
  8
7
  10
94.525
  20
14.178
  0
VERTEX
  8
7
  10
94.474
  20
14.077
  0
VERTEX
  8
7
  10
94.398
  20
13.975
  0
VERTEX
  8
7
  10
94.321
  20
13.899
  0
VERTEX
  8
7
  10
94.245
  20
13.823
  0
VERTEX
  8
7
  10
94.169
  20
13.772
  0
VERTEX
  8
7
  10
94.093
  20
13.721
  0
VERTEX
  8
7
  10
93.991
  20
13.670
  0
VERTEX
  8
7
  10
93.889
  20
13.645
  0
VERTEX
  8
7
  10
93.788
  20
13.645
  0
VERTEX
  8
7
  10
93.686
  20
13.645
  0
VERTEX
  8
7
  10
93.585
  20
13.645
  0
VERTEX
  8
7
  10
93.483
  20
13.645
  0
VERTEX
  8
7
  10
93.407
  20
13.645
  0
VERTEX
  8
7
  10
93.305
  20
13.645
  0
VERTEX
  8
7
  10
93.203
  20
13.670
  0
VERTEX
  8
7
  10
93.102
  20
13.721
  0
VERTEX
  8
7
  10
93.026
  20
13.772
  0
VERTEX
  8
7
  10
92.924
  20
13.823
  0
VERTEX
  8
7
  10
92.848
  20
13.899
  0
VERTEX
  8
7
  10
92.771
  20
13.975
  0
VERTEX
  8
7
  10
92.721
  20
14.051
  0
VERTEX
  8
7
  10
92.670
  20
14.127
  0
VERTEX
  8
7
  10
92.619
  20
14.229
  0
VERTEX
  8
7
  10
92.568
  20
14.356
  0
VERTEX
  8
7
  10
92.543
  20
14.458
  0
VERTEX
  8
7
  10
92.517
  20
14.585
  0
VERTEX
  8
7
  10
92.517
  20
14.712
  0
SEQEND
  0
POLYLINE
  8
7
  6
CONTINUOUS
 66
  1
  0
VERTEX
  8
7
  10
95.236
  20
13.670
  0
VERTEX
  8
7
  10
95.236
  20
15.982
  0
VERTEX
  8
7
  10
95.541
  20
15.982
  0
VERTEX
  8
7
  10
95.541
  20
15.627
  0
VERTEX
  8
7
  10
95.592
  20
15.728
  0
VERTEX
  8
7
  10
95.668
  20
15.805
  0
VERTEX
  8
7
  10
95.744
  20
15.881
  0
VERTEX
  8
7
  10
95.846
  20
15.932
  0
VERTEX
  8
7
  10
95.948
  20
15.957
  0
VERTEX
  8
7
  10
96.049
  20
16.008
  0
VERTEX
  8
7
  10
96.176
  20
16.033
  0
VERTEX
  8
7
  10
96.278
  20
16.033
  0
VERTEX
  8
7
  10
96.380
  20
16.033
  0
VERTEX
  8
7
  10
96.481
  20
16.008
  0
VERTEX
  8
7
  10
96.558
  20
15.982
  0
VERTEX
  8
7
  10
96.659
  20
15.957
  0
VERTEX
  8
7
  10
96.735
  20
15.906
  0
VERTEX
  8
7
  10
96.812
  20
15.881
  0
VERTEX
  8
7
  10
96.888
  20
15.830
  0
VERTEX
  8
7
  10
96.964
  20
15.754
  0
VERTEX
  8
7
  10
97.040
  20
15.677
  0
VERTEX
  8
7
  10
97.091
  20
15.601
  0
VERTEX
  8
7
  10
97.142
  20
15.525
  0
VERTEX
  8
7
  10
97.193
  20
15.423
  0
VERTEX
  8
7
  10
97.244
  20
15.322
  0
VERTEX
  8
7
  10
97.269
  20
15.220
  0
VERTEX
  8
7
  10
97.294
  20
15.093
  0
VERTEX
  8
7
  10
97.294
  20
14.966
  0
VERTEX
  8
7
  10
97.294
  20
13.670
  0
VERTEX
  8
7
  10
96.989
  20
13.670
  0
VERTEX
  8
7
  10
96.989
  20
14.966
  0
VERTEX
  8
7
  10
96.989
  20
15.068
  0
VERTEX
  8
7
  10
96.964
  20
15.195
  0
VERTEX
  8
7
  10
96.913
  20
15.296
  0
VERTEX
  8
7
  10
96.888
  20
15.373
  0
VERTEX
  8
7
  10
96.837
  20
15.449
  0
VERTEX
  8
7
  10
96.761
  20
15.525
  0
VERTEX
  8
7
  10
96.685
  20
15.576
  0
VERTEX
  8
7
  10
96.608
  20
15.627
  0
VERTEX
  8
7
  10
96.532
  20
15.677
  0
VERTEX
  8
7
  10
96.430
  20
15.703
  0
VERTEX
  8
7
  10
96.354
  20
15.728
  0
VERTEX
  8
7
  10
96.253
  20
15.728
  0
VERTEX
  8
7
  10
96.151
  20
15.728
  0
VERTEX
  8
7
  10
96.075
  20
15.703
  0
VERTEX
  8
7
  10
95.998
  20
15.677
  0
VERTEX
  8
7
  10
95.897
  20
15.627
  0
VERTEX
  8
7
  10
95.821
  20
15.576
  0
VERTEX
  8
7
  10
95.770
  20
15.525
  0
VERTEX
  8
7
  10
95.694
  20
15.474
  0
VERTEX
  8
7
  10
95.643
  20
15.398
  0
VERTEX
  8
7
  10
95.617
  20
15.322
  0
VERTEX
  8
7
  10
95.567
  20
15.220
  0
VERTEX
  8
7
  10
95.541
  20
15.118
  0
VERTEX
  8
7
  10
95.541
  20
15.017
  0
VERTEX
  8
7
  10
95.541
  20
13.670
  0
VERTEX
  8
7
  10
95.236
  20
13.670
  0
SEQEND
  0
POLYLINE
  8
7
  6
CONTINUOUS
 66
  1
  0
VERTEX
  8
7
  10
97.828
  20
13.670
  0
VERTEX
  8
7
  10
97.828
  20
15.982
  0
VERTEX
  8
7
  10
98.133
  20
15.982
  0
VERTEX
  8
7
  10
98.133
  20
13.670
  0
VERTEX
  8
7
  10
97.828
  20
13.670
  0
SEQEND
  0
POLYLINE
  8
7
  6
CONTINUOUS
 66
  1
  0
VERTEX
  8
7
  10
97.828
  20
16.262
  0
VERTEX
  8
7
  10
97.828
  20
16.796
  0
VERTEX
  8
7
  10
98.133
  20
16.796
  0
VERTEX
  8
7
  10
98.133
  20
16.262
  0
VERTEX
  8
7
  10
97.828
  20
16.262
  0
SEQEND
  0
POLYLINE
  8
7
  6
CONTINUOUS
 66
  1
  0
VERTEX
  8
7
  10
98.946
  20
13.670
  0
VERTEX
  8
7
  10
98.946
  20
15.703
  0
VERTEX
  8
7
  10
98.438
  20
15.703
  0
VERTEX
  8
7
  10
98.438
  20
15.982
  0
VERTEX
  8
7
  10
98.946
  20
15.982
  0
VERTEX
  8
7
  10
98.946
  20
16.796
  0
VERTEX
  8
7
  10
99.251
  20
16.796
  0
VERTEX
  8
7
  10
99.251
  20
15.982
  0
VERTEX
  8
7
  10
99.785
  20
15.982
  0
VERTEX
  8
7
  10
99.785
  20
15.703
  0
VERTEX
  8
7
  10
99.251
  20
15.703
  0
VERTEX
  8
7
  10
99.251
  20
13.670
  0
VERTEX
  8
7
  10
98.946
  20
13.670
  0
SEQEND
  0
POLYLINE
  8
7
  6
CONTINUOUS
 66
  1
  0
VERTEX
  8
7
  10
101.767
  20
13.670
  0
VERTEX
  8
7
  10
101.767
  20
16.516
  0
VERTEX
  8
7
  10
101.055
  20
16.516
  0
VERTEX
  8
7
  10
101.055
  20
16.796
  0
VERTEX
  8
7
  10
102.808
  20
16.796
  0
VERTEX
  8
7
  10
102.808
  20
16.516
  0
VERTEX
  8
7
  10
102.097
  20
16.516
  0
VERTEX
  8
7
  10
102.097
  20
13.670
  0
VERTEX
  8
7
  10
101.767
  20
13.670
  0
SEQEND
  0
POLYLINE
  8
7
  6
CONTINUOUS
 66
  1
  0
VERTEX
  8
7
  10
103.088
  20
13.670
  0
VERTEX
  8
7
  10
103.088
  20
16.796
  0
VERTEX
  8
7
  10
103.418
  20
16.796
  0
VERTEX
  8
7
  10
103.418
  20
15.652
  0
VERTEX
  8
7
  10
103.469
  20
15.703
  0
VERTEX
  8
7
  10
103.494
  20
15.754
  0
VERTEX
  8
7
  10
103.545
  20
15.805
  0
VERTEX
  8
7
  10
103.596
  20
15.855
  0
VERTEX
  8
7
  10
103.647
  20
15.881
  0
VERTEX
  8
7
  10
103.723
  20
15.932
  0
VERTEX
  8
7
  10
103.774
  20
15.957
  0
VERTEX
  8
7
  10
103.850
  20
15.982
  0
VERTEX
  8
7
  10
103.901
  20
16.008
  0
VERTEX
  8
7
  10
103.977
  20
16.008
  0
VERTEX
  8
7
  10
104.053
  20
16.033
  0
VERTEX
  8
7
  10
104.130
  20
16.033
  0
VERTEX
  8
7
  10
104.257
  20
16.033
  0
VERTEX
  8
7
  10
104.384
  20
16.008
  0
VERTEX
  8
7
  10
104.485
  20
15.957
  0
VERTEX
  8
7
  10
104.612
  20
15.906
  0
VERTEX
  8
7
  10
104.714
  20
15.830
  0
VERTEX
  8
7
  10
104.841
  20
15.754
  0
VERTEX
  8
7
  10
104.917
  20
15.652
  0
VERTEX
  8
7
  10
104.994
  20
15.550
  0
VERTEX
  8
7
  10
105.070
  20
15.423
  0
VERTEX
  8
7
  10
105.121
  20
15.271
  0
VERTEX
  8
7
  10
105.146
  20
15.144
  0
VERTEX
  8
7
  10
105.146
  20
14.991
  0
VERTEX
  8
7
  10
105.146
  20
13.670
  0
VERTEX
  8
7
  10
104.841
  20
13.670
  0
VERTEX
  8
7
  10
104.841
  20
14.991
  0
VERTEX
  8
7
  10
104.841
  20
15.093
  0
VERTEX
  8
7
  10
104.816
  20
15.220
  0
VERTEX
  8
7
  10
104.765
  20
15.322
  0
VERTEX
  8
7
  10
104.740
  20
15.398
  0
VERTEX
  8
7
  10
104.689
  20
15.474
  0
VERTEX
  8
7
  10
104.612
  20
15.525
  0
VERTEX
  8
7
  10
104.536
  20
15.576
  0
VERTEX
  8
7
  10
104.460
  20
15.627
  0
VERTEX
  8
7
  10
104.384
  20
15.677
  0
VERTEX
  8
7
  10
104.282
  20
15.703
  0
VERTEX
  8
7
  10
104.206
  20
15.728
  0
VERTEX
  8
7
  10
104.104
  20
15.728
  0
VERTEX
  8
7
  10
104.028
  20
15.728
  0
VERTEX
  8
7
  10
103.952
  20
15.703
  0
VERTEX
  8
7
  10
103.850
  20
15.677
  0
VERTEX
  8
7
  10
103.774
  20
15.652
  0
VERTEX
  8
7
  10
103.698
  20
15.601
  0
VERTEX
  8
7
  10
103.621
  20
15.550
  0
VERTEX
  8
7
  10
103.571
  20
15.474
  0
VERTEX
  8
7
  10
103.520
  20
15.398
  0
VERTEX
  8
7
  10
103.469
  20
15.322
  0
VERTEX
  8
7
  10
103.444
  20
15.220
  0
VERTEX
  8
7
  10
103.418
  20
15.144
  0
VERTEX
  8
7
  10
103.418
  20
15.042
  0
VERTEX
  8
7
  10
103.418
  20
13.670
  0
VERTEX
  8
7
  10
103.088
  20
13.670
  0
SEQEND
  0
POLYLINE
  8
7
  6
CONTINUOUS
 66
  1
  0
VERTEX
  8
7
  10
105.680
  20
13.670
  0
VERTEX
  8
7
  10
105.680
  20
15.982
  0
VERTEX
  8
7
  10
105.985
  20
15.982
  0
VERTEX
  8
7
  10
105.985
  20
13.670
  0
VERTEX
  8
7
  10
105.680
  20
13.670
  0
SEQEND
  0
POLYLINE
  8
7
  6
CONTINUOUS
 66
  1
  0
VERTEX
  8
7
  10
105.680
  20
16.262
  0
VERTEX
  8
7
  10
105.680
  20
16.796
  0
VERTEX
  8
7
  10
105.985
  20
16.796
  0
VERTEX
  8
7
  10
105.985
  20
16.262
  0
VERTEX
  8
7
  10
105.680
  20
16.262
  0
SEQEND
  0
POLYLINE
  8
7
  6
CONTINUOUS
 66
  1
  0
VERTEX
  8
7
  10
106.442
  20
14.814
  0
VERTEX
  8
7
  10
106.442
  20
14.966
  0
VERTEX
  8
7
  10
106.467
  20
15.093
  0
VERTEX
  8
7
  10
106.493
  20
15.195
  0
VERTEX
  8
7
  10
106.544
  20
15.322
  0
VERTEX
  8
7
  10
106.594
  20
15.423
  0
VERTEX
  8
7
  10
106.645
  20
15.525
  0
VERTEX
  8
7
  10
106.722
  20
15.627
  0
VERTEX
  8
7
  10
106.823
  20
15.703
  0
VERTEX
  8
7
  10
106.899
  20
15.779
  0
VERTEX
  8
7
  10
107.001
  20
15.830
  0
VERTEX
  8
7
  10
107.103
  20
15.881
  0
VERTEX
  8
7
  10
107.204
  20
15.932
  0
VERTEX
  8
7
  10
107.306
  20
15.982
  0
VERTEX
  8
7
  10
107.408
  20
16.008
  0
VERTEX
  8
7
  10
107.535
  20
16.033
  0
VERTEX
  8
7
  10
107.636
  20
16.033
  0
VERTEX
  8
7
  10
107.814
  20
16.033
  0
VERTEX
  8
7
  10
108.017
  20
15.982
  0
VERTEX
  8
7
  10
108.195
  20
15.932
  0
VERTEX
  8
7
  10
108.348
  20
15.855
  0
VERTEX
  8
7
  10
108.500
  20
15.754
  0
VERTEX
  8
7
  10
108.627
  20
15.601
  0
VERTEX
  8
7
  10
108.754
  20
15.449
  0
VERTEX
  8
7
  10
108.831
  20
15.271
  0
VERTEX
  8
7
  10
108.475
  20
15.271
  0
VERTEX
  8
7
  10
108.399
  20
15.373
  0
VERTEX
  8
7
  10
108.322
  20
15.474
  0
VERTEX
  8
7
  10
108.246
  20
15.550
  0
VERTEX
  8
7
  10
108.144
  20
15.601
  0
VERTEX
  8
7
  10
108.017
  20
15.652
  0
VERTEX
  8
7
  10
107.890
  20
15.703
  0
VERTEX
  8
7
  10
107.763
  20
15.728
  0
VERTEX
  8
7
  10
107.636
  20
15.728
  0
VERTEX
  8
7
  10
107.509
  20
15.728
  0
VERTEX
  8
7
  10
107.382
  20
15.703
  0
VERTEX
  8
7
  10
107.281
  20
15.652
  0
VERTEX
  8
7
  10
107.153
  20
15.576
  0
VERTEX
  8
7
  10
107.052
  20
15.525
  0
VERTEX
  8
7
  10
106.976
  20
15.449
  0
VERTEX
  8
7
  10
106.899
  20
15.347
  0
VERTEX
  8
7
  10
106.849
  20
15.246
  0
VERTEX
  8
7
  10
106.823
  20
15.144
  0
VERTEX
  8
7
  10
106.772
  20
15.042
  0
VERTEX
  8
7
  10
106.747
  20
14.915
  0
VERTEX
  8
7
  10
106.747
  20
14.814
  0
VERTEX
  8
7
  10
106.747
  20
14.712
  0
VERTEX
  8
7
  10
106.772
  20
14.585
  0
VERTEX
  8
7
  10
106.823
  20
14.483
  0
VERTEX
  8
7
  10
106.874
  20
14.382
  0
VERTEX
  8
7
  10
106.925
  20
14.280
  0
VERTEX
  8
7
  10
107.001
  20
14.178
  0
VERTEX
  8
7
  10
107.103
  20
14.102
  0
VERTEX
  8
7
  10
107.204
  20
14.051
  0
VERTEX
  8
7
  10
107.306
  20
14.000
  0
VERTEX
  8
7
  10
107.408
  20
13.950
  0
VERTEX
  8
7
  10
107.535
  20
13.924
  0
VERTEX
  8
7
  10
107.662
  20
13.899
  0
VERTEX
  8
7
  10
107.789
  20
13.899
  0
VERTEX
  8
7
  10
107.916
  20
13.924
  0
VERTEX
  8
7
  10
108.017
  20
13.975
  0
VERTEX
  8
7
  10
108.144
  20
14.026
  0
VERTEX
  8
7
  10
108.246
  20
14.077
  0
VERTEX
  8
7
  10
108.348
  20
14.153
  0
VERTEX
  8
7
  10
108.424
  20
14.229
  0
VERTEX
  8
7
  10
108.500
  20
14.331
  0
VERTEX
  8
7
  10
108.831
  20
14.331
  0
VERTEX
  8
7
  10
108.729
  20
14.153
  0
VERTEX
  8
7
  10
108.627
  20
14.026
  0
VERTEX
  8
7
  10
108.500
  20
13.899
  0
VERTEX
  8
7
  10
108.348
  20
13.797
  0
VERTEX
  8
7
  10
108.195
  20
13.746
  0
VERTEX
  8
7
  10
108.043
  20
13.695
  0
VERTEX
  8
7
  10
107.865
  20
13.645
  0
VERTEX
  8
7
  10
107.687
  20
13.645
  0
VERTEX
  8
7
  10
107.560
  20
13.645
  0
VERTEX
  8
7
  10
107.433
  20
13.670
  0
VERTEX
  8
7
  10
107.331
  20
13.670
  0
VERTEX
  8
7
  10
107.230
  20
13.695
  0
VERTEX
  8
7
  10
107.128
  20
13.746
  0
VERTEX
  8
7
  10
107.001
  20
13.797
  0
VERTEX
  8
7
  10
106.899
  20
13.873
  0
VERTEX
  8
7
  10
106.823
  20
13.950
  0
VERTEX
  8
7
  10
106.722
  20
14.026
  0
VERTEX
  8
7
  10
106.645
  20
14.127
  0
VERTEX
  8
7
  10
106.594
  20
14.229
  0
VERTEX
  8
7
  10
106.544
  20
14.331
  0
VERTEX
  8
7
  10
106.493
  20
14.458
  0
VERTEX
  8
7
  10
106.442
  20
14.559
  0
VERTEX
  8
7
  10
106.417
  20
14.686
  0
VERTEX
  8
7
  10
106.417
  20
14.814
  0
VERTEX
  8
7
  10
106.417
  20
14.814
  0
VERTEX
  8
7
  10
106.442
  20
14.814
  0
VERTEX
  8
7
  10
106.442
  20
14.814
  0
VERTEX
  8
7
  10
106.442
  20
14.814
  0
VERTEX
  8
7
  10
106.442
  20
14.814
  0
VERTEX
  8
7
  10
106.442
  20
14.814
  0
VERTEX
  8
7
  10
106.442
  20
14.814
  0
VERTEX
  8
7
  10
106.442
  20
14.814
  0
SEQEND
  0
POLYLINE
  8
7
  6
CONTINUOUS
 66
  1
  0
VERTEX
  8
7
  10
109.263
  20
13.670
  0
VERTEX
  8
7
  10
109.263
  20
16.796
  0
VERTEX
  8
7
  10
109.567
  20
16.796
  0
VERTEX
  8
7
  10
109.567
  20
14.585
  0
VERTEX
  8
7
  10
110.635
  20
15.982
  0
VERTEX
  8
7
  10
111.041
  20
15.982
  0
VERTEX
  8
7
  10
110.152
  20
14.814
  0
VERTEX
  8
7
  10
111.117
  20
13.670
  0
VERTEX
  8
7
  10
110.711
  20
13.670
  0
VERTEX
  8
7
  10
109.949
  20
14.585
  0
VERTEX
  8
7
  10
109.567
  20
14.102
  0
VERTEX
  8
7
  10
109.567
  20
13.670
  0
VERTEX
  8
7
  10
109.263
  20
13.670
  0
SEQEND
  0
POLYLINE
  8
7
  6
CONTINUOUS
 66
  1
  0
VERTEX
  8
7
  10
111.397
  20
13.670
  0
VERTEX
  8
7
  10
111.397
  20
15.982
  0
VERTEX
  8
7
  10
111.702
  20
15.982
  0
VERTEX
  8
7
  10
111.702
  20
15.627
  0
VERTEX
  8
7
  10
111.753
  20
15.728
  0
VERTEX
  8
7
  10
111.829
  20
15.805
  0
VERTEX
  8
7
  10
111.905
  20
15.881
  0
VERTEX
  8
7
  10
112.007
  20
15.932
  0
VERTEX
  8
7
  10
112.108
  20
15.957
  0
VERTEX
  8
7
  10
112.210
  20
16.008
  0
VERTEX
  8
7
  10
112.337
  20
16.033
  0
VERTEX
  8
7
  10
112.439
  20
16.033
  0
VERTEX
  8
7
  10
112.540
  20
16.033
  0
VERTEX
  8
7
  10
112.642
  20
16.008
  0
VERTEX
  8
7
  10
112.718
  20
15.982
  0
VERTEX
  8
7
  10
112.820
  20
15.957
  0
VERTEX
  8
7
  10
112.896
  20
15.906
  0
VERTEX
  8
7
  10
112.972
  20
15.881
  0
VERTEX
  8
7
  10
113.049
  20
15.830
  0
VERTEX
  8
7
  10
113.125
  20
15.754
  0
VERTEX
  8
7
  10
113.201
  20
15.677
  0
VERTEX
  8
7
  10
113.252
  20
15.601
  0
VERTEX
  8
7
  10
113.303
  20
15.525
  0
VERTEX
  8
7
  10
113.354
  20
15.423
  0
VERTEX
  8
7
  10
113.404
  20
15.322
  0
VERTEX
  8
7
  10
113.430
  20
15.220
  0
VERTEX
  8
7
  10
113.455
  20
15.093
  0
VERTEX
  8
7
  10
113.455
  20
14.966
  0
VERTEX
  8
7
  10
113.455
  20
13.670
  0
VERTEX
  8
7
  10
113.150
  20
13.670
  0
VERTEX
  8
7
  10
113.150
  20
14.966
  0
VERTEX
  8
7
  10
113.150
  20
15.068
  0
VERTEX
  8
7
  10
113.125
  20
15.195
  0
VERTEX
  8
7
  10
113.074
  20
15.296
  0
VERTEX
  8
7
  10
113.049
  20
15.373
  0
VERTEX
  8
7
  10
112.998
  20
15.449
  0
VERTEX
  8
7
  10
112.922
  20
15.525
  0
VERTEX
  8
7
  10
112.845
  20
15.576
  0
VERTEX
  8
7
  10
112.769
  20
15.627
  0
VERTEX
  8
7
  10
112.693
  20
15.677
  0
VERTEX
  8
7
  10
112.591
  20
15.703
  0
VERTEX
  8
7
  10
112.515
  20
15.728
  0
VERTEX
  8
7
  10
112.413
  20
15.728
  0
VERTEX
  8
7
  10
112.312
  20
15.728
  0
VERTEX
  8
7
  10
112.235
  20
15.703
  0
VERTEX
  8
7
  10
112.159
  20
15.677
  0
VERTEX
  8
7
  10
112.058
  20
15.627
  0
VERTEX
  8
7
  10
111.981
  20
15.576
  0
VERTEX
  8
7
  10
111.931
  20
15.525
  0
VERTEX
  8
7
  10
111.854
  20
15.474
  0
VERTEX
  8
7
  10
111.804
  20
15.398
  0
VERTEX
  8
7
  10
111.778
  20
15.322
  0
VERTEX
  8
7
  10
111.727
  20
15.220
  0
VERTEX
  8
7
  10
111.702
  20
15.118
  0
VERTEX
  8
7
  10
111.702
  20
15.017
  0
VERTEX
  8
7
  10
111.702
  20
13.670
  0
VERTEX
  8
7
  10
111.397
  20
13.670
  0
SEQEND
  0
POLYLINE
  8
7
  6
CONTINUOUS
 66
  1
  0
VERTEX
  8
7
  10
113.913
  20
14.839
  0
VERTEX
  8
7
  10
113.913
  20
14.966
  0
VERTEX
  8
7
  10
113.938
  20
15.093
  0
VERTEX
  8
7
  10
113.963
  20
15.220
  0
VERTEX
  8
7
  10
114.014
  20
15.347
  0
VERTEX
  8
7
  10
114.065
  20
15.449
  0
VERTEX
  8
7
  10
114.141
  20
15.525
  0
VERTEX
  8
7
  10
114.217
  20
15.627
  0
VERTEX
  8
7
  10
114.294
  20
15.703
  0
VERTEX
  8
7
  10
114.370
  20
15.779
  0
VERTEX
  8
7
  10
114.472
  20
15.855
  0
VERTEX
  8
7
  10
114.573
  20
15.906
  0
VERTEX
  8
7
  10
114.675
  20
15.957
  0
VERTEX
  8
7
  10
114.776
  20
15.982
  0
VERTEX
  8
7
  10
114.878
  20
16.008
  0
VERTEX
  8
7
  10
115.005
  20
16.033
  0
VERTEX
  8
7
  10
115.107
  20
16.033
  0
VERTEX
  8
7
  10
115.259
  20
16.033
  0
VERTEX
  8
7
  10
115.412
  20
16.008
  0
VERTEX
  8
7
  10
115.539
  20
15.957
  0
VERTEX
  8
7
  10
115.691
  20
15.906
  0
VERTEX
  8
7
  10
115.818
  20
15.830
  0
VERTEX
  8
7
  10
115.945
  20
15.728
  0
VERTEX
  8
7
  10
116.047
  20
15.601
  0
VERTEX
  8
7
  10
116.149
  20
15.449
  0
VERTEX
  8
7
  10
116.225
  20
15.296
  0
VERTEX
  8
7
  10
116.276
  20
15.144
  0
VERTEX
  8
7
  10
116.301
  20
14.966
  0
VERTEX
  8
7
  10
116.326
  20
14.763
  0
VERTEX
  8
7
  10
116.326
  20
14.712
  0
VERTEX
  8
7
  10
114.217
  20
14.712
  0
VERTEX
  8
7
  10
114.243
  20
14.585
  0
VERTEX
  8
7
  10
114.268
  20
14.458
  0
VERTEX
  8
7
  10
114.319
  20
14.356
  0
VERTEX
  8
7
  10
114.370
  20
14.280
  0
VERTEX
  8
7
  10
114.446
  20
14.178
  0
VERTEX
  8
7
  10
114.522
  20
14.102
  0
VERTEX
  8
7
  10
114.599
  20
14.051
  0
VERTEX
  8
7
  10
114.700
  20
14.000
  0
VERTEX
  8
7
  10
114.802
  20
13.975
  0
VERTEX
  8
7
  10
114.904
  20
13.924
  0
VERTEX
  8
7
  10
115.005
  20
13.899
  0
VERTEX
  8
7
  10
115.107
  20
13.899
  0
VERTEX
  8
7
  10
115.183
  20
13.899
  0
VERTEX
  8
7
  10
115.285
  20
13.924
  0
VERTEX
  8
7
  10
115.361
  20
13.950
  0
VERTEX
  8
7
  10
115.437
  20
13.975
  0
VERTEX
  8
7
  10
115.539
  20
14.026
  0
VERTEX
  8
7
  10
115.615
  20
14.051
  0
VERTEX
  8
7
  10
115.691
  20
14.102
  0
VERTEX
  8
7
  10
115.742
  20
14.153
  0
VERTEX
  8
7
  10
115.793
  20
14.204
  0
VERTEX
  8
7
  10
115.844
  20
14.280
  0
VERTEX
  8
7
  10
115.895
  20
14.356
  0
VERTEX
  8
7
  10
115.920
  20
14.432
  0
VERTEX
  8
7
  10
116.250
  20
14.432
  0
VERTEX
  8
7
  10
116.199
  20
14.305
  0
VERTEX
  8
7
  10
116.123
  20
14.178
  0
VERTEX
  8
7
  10
116.047
  20
14.077
  0
VERTEX
  8
7
  10
115.971
  20
13.975
  0
VERTEX
  8
7
  10
115.869
  20
13.873
  0
VERTEX
  8
7
  10
115.767
  20
13.797
  0
VERTEX
  8
7
  10
115.640
  20
13.746
  0
VERTEX
  8
7
  10
115.539
  20
13.695
  0
VERTEX
  8
7
  10
115.437
  20
13.670
  0
VERTEX
  8
7
  10
115.310
  20
13.670
  0
VERTEX
  8
7
  10
115.208
  20
13.645
  0
VERTEX
  8
7
  10
115.081
  20
13.645
  0
VERTEX
  8
7
  10
114.929
  20
13.645
  0
VERTEX
  8
7
  10
114.776
  20
13.670
  0
VERTEX
  8
7
  10
114.624
  20
13.721
  0
VERTEX
  8
7
  10
114.497
  20
13.772
  0
VERTEX
  8
7
  10
114.370
  20
13.848
  0
VERTEX
  8
7
  10
114.243
  20
13.950
  0
VERTEX
  8
7
  10
114.141
  20
14.077
  0
VERTEX
  8
7
  10
114.065
  20
14.204
  0
VERTEX
  8
7
  10
113.989
  20
14.331
  0
VERTEX
  8
7
  10
113.963
  20
14.483
  0
VERTEX
  8
7
  10
113.913
  20
14.661
  0
VERTEX
  8
7
  10
113.913
  20
14.839
  0
SEQEND
  0
POLYLINE
  8
7
  6
CONTINUOUS
 66
  1
  0
VERTEX
  8
7
  10
116.022
  20
14.991
  0
VERTEX
  8
7
  10
115.996
  20
15.093
  0
VERTEX
  8
7
  10
115.945
  20
15.195
  0
VERTEX
  8
7
  10
115.895
  20
15.271
  0
VERTEX
  8
7
  10
115.844
  20
15.373
  0
VERTEX
  8
7
  10
115.793
  20
15.449
  0
VERTEX
  8
7
  10
115.717
  20
15.525
  0
VERTEX
  8
7
  10
115.640
  20
15.576
  0
VERTEX
  8
7
  10
115.539
  20
15.627
  0
VERTEX
  8
7
  10
115.437
  20
15.677
  0
VERTEX
  8
7
  10
115.335
  20
15.703
  0
VERTEX
  8
7
  10
115.208
  20
15.728
  0
VERTEX
  8
7
  10
115.107
  20
15.728
  0
VERTEX
  8
7
  10
114.954
  20
15.728
  0
VERTEX
  8
7
  10
114.827
  20
15.703
  0
VERTEX
  8
7
  10
114.726
  20
15.652
  0
VERTEX
  8
7
  10
114.624
  20
15.601
  0
VERTEX
  8
7
  10
114.522
  20
15.525
  0
VERTEX
  8
7
  10
114.446
  20
15.449
  0
VERTEX
  8
7
  10
114.370
  20
15.373
  0
VERTEX
  8
7
  10
114.319
  20
15.271
  0
VERTEX
  8
7
  10
114.294
  20
15.195
  0
VERTEX
  8
7
  10
114.243
  20
15.118
  0
VERTEX
  8
7
  10
114.217
  20
15.042
  0
VERTEX
  8
7
  10
114.217
  20
14.991
  0
VERTEX
  8
7
  10
116.022
  20
14.991
  0
SEQEND
  0
POLYLINE
  8
7
  6
CONTINUOUS
 66
  1
  0
VERTEX
  8
7
  10
116.657
  20
15.296
  0
VERTEX
  8
7
  10
116.657
  20
15.322
  0
VERTEX
  8
7
  10
116.657
  20
15.347
  0
VERTEX
  8
7
  10
116.657
  20
15.373
  0
VERTEX
  8
7
  10
116.657
  20
15.398
  0
VERTEX
  8
7
  10
116.657
  20
15.500
  0
VERTEX
  8
7
  10
116.682
  20
15.576
  0
VERTEX
  8
7
  10
116.708
  20
15.652
  0
VERTEX
  8
7
  10
116.758
  20
15.728
  0
VERTEX
  8
7
  10
116.809
  20
15.805
  0
VERTEX
  8
7
  10
116.860
  20
15.855
  0
VERTEX
  8
7
  10
116.936
  20
15.906
  0
VERTEX
  8
7
  10
117.013
  20
15.957
  0
VERTEX
  8
7
  10
117.089
  20
15.982
  0
VERTEX
  8
7
  10
117.165
  20
16.008
  0
VERTEX
  8
7
  10
117.241
  20
16.033
  0
VERTEX
  8
7
  10
117.292
  20
16.033
  0
VERTEX
  8
7
  10
117.343
  20
16.033
  0
VERTEX
  8
7
  10
117.419
  20
16.008
  0
VERTEX
  8
7
  10
117.470
  20
16.008
  0
VERTEX
  8
7
  10
117.546
  20
15.982
  0
VERTEX
  8
7
  10
117.597
  20
15.957
  0
VERTEX
  8
7
  10
117.648
  20
15.932
  0
VERTEX
  8
7
  10
117.699
  20
15.906
  0
VERTEX
  8
7
  10
117.749
  20
15.881
  0
VERTEX
  8
7
  10
117.800
  20
15.830
  0
VERTEX
  8
7
  10
117.826
  20
15.779
  0
VERTEX
  8
7
  10
117.876
  20
15.728
  0
VERTEX
  8
7
  10
117.902
  20
15.677
  0
VERTEX
  8
7
  10
117.927
  20
15.627
  0
VERTEX
  8
7
  10
117.953
  20
15.550
  0
VERTEX
  8
7
  10
117.953
  20
15.474
  0
VERTEX
  8
7
  10
117.978
  20
15.398
  0
VERTEX
  8
7
  10
117.648
  20
15.398
  0
VERTEX
  8
7
  10
117.648
  20
15.474
  0
VERTEX
  8
7
  10
117.622
  20
15.550
  0
VERTEX
  8
7
  10
117.572
  20
15.601
  0
VERTEX
  8
7
  10
117.546
  20
15.652
  0
VERTEX
  8
7
  10
117.495
  20
15.677
  0
VERTEX
  8
7
  10
117.419
  20
15.703
  0
VERTEX
  8
7
  10
117.368
  20
15.728
  0
VERTEX
  8
7
  10
117.292
  20
15.728
  0
VERTEX
  8
7
  10
117.241
  20
15.728
  0
VERTEX
  8
7
  10
117.190
  20
15.703
  0
VERTEX
  8
7
  10
117.114
  20
15.677
  0
VERTEX
  8
7
  10
117.063
  20
15.652
  0
VERTEX
  8
7
  10
117.013
  20
15.601
  0
VERTEX
  8
7
  10
116.987
  20
15.550
  0
VERTEX
  8
7
  10
116.962
  20
15.474
  0
VERTEX
  8
7
  10
116.962
  20
15.398
  0
VERTEX
  8
7
  10
116.962
  20
15.398
  0
VERTEX
  8
7
  10
116.962
  20
15.398
  0
VERTEX
  8
7
  10
116.962
  20
15.373
  0
VERTEX
  8
7
  10
116.962
  20
15.347
  0
VERTEX
  8
7
  10
116.962
  20
15.322
  0
VERTEX
  8
7
  10
116.987
  20
15.322
  0
VERTEX
  8
7
  10
116.987
  20
15.296
  0
VERTEX
  8
7
  10
116.987
  20
15.296
  0
VERTEX
  8
7
  10
117.013
  20
15.246
  0
VERTEX
  8
7
  10
117.063
  20
15.195
  0
VERTEX
  8
7
  10
117.114
  20
15.144
  0
VERTEX
  8
7
  10
117.190
  20
15.093
  0
VERTEX
  8
7
  10
117.292
  20
15.068
  0
VERTEX
  8
7
  10
117.394
  20
15.017
  0
VERTEX
  8
7
  10
117.470
  20
14.991
  0
VERTEX
  8
7
  10
117.572
  20
14.941
  0
VERTEX
  8
7
  10
117.673
  20
14.915
  0
VERTEX
  8
7
  10
117.749
  20
14.864
  0
VERTEX
  8
7
  10
117.826
  20
14.814
  0
VERTEX
  8
7
  10
117.902
  20
14.737
  0
VERTEX
  8
7
  10
117.953
  20
14.661
  0
VERTEX
  8
7
  10
118.004
  20
14.585
  0
VERTEX
  8
7
  10
118.029
  20
14.458
  0
VERTEX
  8
7
  10
118.029
  20
14.356
  0
VERTEX
  8
7
  10
118.029
  20
14.331
  0
VERTEX
  8
7
  10
118.029
  20
14.305
  0
VERTEX
  8
7
  10
118.029
  20
14.255
  0
VERTEX
  8
7
  10
118.004
  20
14.229
  0
VERTEX
  8
7
  10
118.004
  20
14.127
  0
VERTEX
  8
7
  10
117.978
  20
14.026
  0
VERTEX
  8
7
  10
117.927
  20
13.950
  0
VERTEX
  8
7
  10
117.876
  20
13.873
  0
VERTEX
  8
7
  10
117.826
  20
13.797
  0
VERTEX
  8
7
  10
117.749
  20
13.746
  0
VERTEX
  8
7
  10
117.673
  20
13.721
  0
VERTEX
  8
7
  10
117.597
  20
13.670
  0
VERTEX
  8
7
  10
117.521
  20
13.645
  0
VERTEX
  8
7
  10
117.445
  20
13.645
  0
VERTEX
  8
7
  10
117.368
  20
13.645
  0
VERTEX
  8
7
  10
117.292
  20
13.645
  0
VERTEX
  8
7
  10
117.190
  20
13.645
  0
VERTEX
  8
7
  10
117.114
  20
13.670
  0
VERTEX
  8
7
  10
117.013
  20
13.670
  0
VERTEX
  8
7
  10
116.911
  20
13.695
  0
VERTEX
  8
7
  10
116.835
  20
13.746
  0
VERTEX
  8
7
  10
116.758
  20
13.823
  0
VERTEX
  8
7
  10
116.708
  20
13.899
  0
VERTEX
  8
7
  10
116.657
  20
13.975
  0
VERTEX
  8
7
  10
116.631
  20
14.051
  0
VERTEX
  8
7
  10
116.581
  20
14.153
  0
VERTEX
  8
7
  10
116.555
  20
14.229
  0
VERTEX
  8
7
  10
116.555
  20
14.331
  0
VERTEX
  8
7
  10
116.886
  20
14.356
  0
VERTEX
  8
7
  10
116.886
  20
14.255
  0
VERTEX
  8
7
  10
116.911
  20
14.153
  0
VERTEX
  8
7
  10
116.962
  20
14.077
  0
VERTEX
  8
7
  10
117.013
  20
14.026
  0
VERTEX
  8
7
  10
117.089
  20
13.975
  0
VERTEX
  8
7
  10
117.165
  20
13.924
  0
VERTEX
  8
7
  10
117.241
  20
13.899
  0
VERTEX
  8
7
  10
117.317
  20
13.899
  0
VERTEX
  8
7
  10
117.394
  20
13.899
  0
VERTEX
  8
7
  10
117.470
  20
13.924
  0
VERTEX
  8
7
  10
117.546
  20
13.975
  0
VERTEX
  8
7
  10
117.597
  20
14.026
  0
VERTEX
  8
7
  10
117.648
  20
14.077
  0
VERTEX
  8
7
  10
117.673
  20
14.153
  0
VERTEX
  8
7
  10
117.699
  20
14.229
  0
VERTEX
  8
7
  10
117.699
  20
14.305
  0
VERTEX
  8
7
  10
117.699
  20
14.356
  0
VERTEX
  8
7
  10
117.673
  20
14.432
  0
VERTEX
  8
7
  10
117.648
  20
14.509
  0
VERTEX
  8
7
  10
117.622
  20
14.559
  0
VERTEX
  8
7
  10
117.572
  20
14.610
  0
VERTEX
  8
7
  10
117.495
  20
14.661
  0
VERTEX
  8
7
  10
117.419
  20
14.686
  0
VERTEX
  8
7
  10
117.317
  20
14.712
  0
VERTEX
  8
7
  10
117.190
  20
14.763
  0
VERTEX
  8
7
  10
117.063
  20
14.814
  0
VERTEX
  8
7
  10
116.962
  20
14.864
  0
VERTEX
  8
7
  10
116.886
  20
14.915
  0
VERTEX
  8
7
  10
116.809
  20
14.991
  0
VERTEX
  8
7
  10
116.733
  20
15.068
  0
VERTEX
  8
7
  10
116.682
  20
15.195
  0
VERTEX
  8
7
  10
116.657
  20
15.296
  0
SEQEND
  0
POLYLINE
  8
7
  6
CONTINUOUS
 66
  1
  0
VERTEX
  8
7
  10
118.308
  20
15.296
  0
VERTEX
  8
7
  10
118.308
  20
15.322
  0
VERTEX
  8
7
  10
118.308
  20
15.347
  0
VERTEX
  8
7
  10
118.308
  20
15.373
  0
VERTEX
  8
7
  10
118.308
  20
15.398
  0
VERTEX
  8
7
  10
118.308
  20
15.500
  0
VERTEX
  8
7
  10
118.334
  20
15.576
  0
VERTEX
  8
7
  10
118.359
  20
15.652
  0
VERTEX
  8
7
  10
118.410
  20
15.728
  0
VERTEX
  8
7
  10
118.461
  20
15.805
  0
VERTEX
  8
7
  10
118.512
  20
15.855
  0
VERTEX
  8
7
  10
118.588
  20
15.906
  0
VERTEX
  8
7
  10
118.664
  20
15.957
  0
VERTEX
  8
7
  10
118.740
  20
15.982
  0
VERTEX
  8
7
  10
118.817
  20
16.008
  0
VERTEX
  8
7
  10
118.893
  20
16.033
  0
VERTEX
  8
7
  10
118.944
  20
16.033
  0
VERTEX
  8
7
  10
118.995
  20
16.033
  0
VERTEX
  8
7
  10
119.071
  20
16.008
  0
VERTEX
  8
7
  10
119.122
  20
16.008
  0
VERTEX
  8
7
  10
119.198
  20
15.982
  0
VERTEX
  8
7
  10
119.249
  20
15.957
  0
VERTEX
  8
7
  10
119.299
  20
15.932
  0
VERTEX
  8
7
  10
119.350
  20
15.906
  0
VERTEX
  8
7
  10
119.401
  20
15.881
  0
VERTEX
  8
7
  10
119.452
  20
15.830
  0
VERTEX
  8
7
  10
119.477
  20
15.779
  0
VERTEX
  8
7
  10
119.528
  20
15.728
  0
VERTEX
  8
7
  10
119.554
  20
15.677
  0
VERTEX
  8
7
  10
119.579
  20
15.627
  0
VERTEX
  8
7
  10
119.604
  20
15.550
  0
VERTEX
  8
7
  10
119.604
  20
15.474
  0
VERTEX
  8
7
  10
119.630
  20
15.398
  0
VERTEX
  8
7
  10
119.299
  20
15.398
  0
VERTEX
  8
7
  10
119.299
  20
15.474
  0
VERTEX
  8
7
  10
119.274
  20
15.550
  0
VERTEX
  8
7
  10
119.223
  20
15.601
  0
VERTEX
  8
7
  10
119.198
  20
15.652
  0
VERTEX
  8
7
  10
119.147
  20
15.677
  0
VERTEX
  8
7
  10
119.071
  20
15.703
  0
VERTEX
  8
7
  10
119.020
  20
15.728
  0
VERTEX
  8
7
  10
118.944
  20
15.728
  0
VERTEX
  8
7
  10
118.893
  20
15.728
  0
VERTEX
  8
7
  10
118.842
  20
15.703
  0
VERTEX
  8
7
  10
118.766
  20
15.677
  0
VERTEX
  8
7
  10
118.715
  20
15.652
  0
VERTEX
  8
7
  10
118.664
  20
15.601
  0
VERTEX
  8
7
  10
118.639
  20
15.550
  0
VERTEX
  8
7
  10
118.613
  20
15.474
  0
VERTEX
  8
7
  10
118.613
  20
15.398
  0
VERTEX
  8
7
  10
118.613
  20
15.398
  0
VERTEX
  8
7
  10
118.613
  20
15.398
  0
VERTEX
  8
7
  10
118.613
  20
15.373
  0
VERTEX
  8
7
  10
118.613
  20
15.347
  0
VERTEX
  8
7
  10
118.613
  20
15.322
  0
VERTEX
  8
7
  10
118.639
  20
15.322
  0
VERTEX
  8
7
  10
118.639
  20
15.296
  0
VERTEX
  8
7
  10
118.639
  20
15.296
  0
VERTEX
  8
7
  10
118.664
  20
15.246
  0
VERTEX
  8
7
  10
118.715
  20
15.195
  0
VERTEX
  8
7
  10
118.766
  20
15.144
  0
VERTEX
  8
7
  10
118.842
  20
15.093
  0
VERTEX
  8
7
  10
118.944
  20
15.068
  0
VERTEX
  8
7
  10
119.045
  20
15.017
  0
VERTEX
  8
7
  10
119.122
  20
14.991
  0
VERTEX
  8
7
  10
119.223
  20
14.941
  0
VERTEX
  8
7
  10
119.325
  20
14.915
  0
VERTEX
  8
7
  10
119.401
  20
14.864
  0
VERTEX
  8
7
  10
119.477
  20
14.814
  0
VERTEX
  8
7
  10
119.554
  20
14.737
  0
VERTEX
  8
7
  10
119.604
  20
14.661
  0
VERTEX
  8
7
  10
119.655
  20
14.585
  0
VERTEX
  8
7
  10
119.681
  20
14.458
  0
VERTEX
  8
7
  10
119.681
  20
14.356
  0
VERTEX
  8
7
  10
119.681
  20
14.331
  0
VERTEX
  8
7
  10
119.681
  20
14.305
  0
VERTEX
  8
7
  10
119.681
  20
14.255
  0
VERTEX
  8
7
  10
119.655
  20
14.229
  0
VERTEX
  8
7
  10
119.655
  20
14.127
  0
VERTEX
  8
7
  10
119.630
  20
14.026
  0
VERTEX
  8
7
  10
119.579
  20
13.950
  0
VERTEX
  8
7
  10
119.528
  20
13.873
  0
VERTEX
  8
7
  10
119.477
  20
13.797
  0
VERTEX
  8
7
  10
119.401
  20
13.746
  0
VERTEX
  8
7
  10
119.325
  20
13.721
  0
VERTEX
  8
7
  10
119.249
  20
13.670
  0
VERTEX
  8
7
  10
119.172
  20
13.645
  0
VERTEX
  8
7
  10
119.096
  20
13.645
  0
VERTEX
  8
7
  10
119.020
  20
13.645
  0
VERTEX
  8
7
  10
118.944
  20
13.645
  0
VERTEX
  8
7
  10
118.842
  20
13.645
  0
VERTEX
  8
7
  10
118.766
  20
13.670
  0
VERTEX
  8
7
  10
118.664
  20
13.670
  0
VERTEX
  8
7
  10
118.563
  20
13.695
  0
VERTEX
  8
7
  10
118.486
  20
13.746
  0
VERTEX
  8
7
  10
118.410
  20
13.823
  0
VERTEX
  8
7
  10
118.359
  20
13.899
  0
VERTEX
  8
7
  10
118.308
  20
13.975
  0
VERTEX
  8
7
  10
118.283
  20
14.051
  0
VERTEX
  8
7
  10
118.232
  20
14.153
  0
VERTEX
  8
7
  10
118.207
  20
14.229
  0
VERTEX
  8
7
  10
118.207
  20
14.331
  0
VERTEX
  8
7
  10
118.537
  20
14.356
  0
VERTEX
  8
7
  10
118.537
  20
14.255
  0
VERTEX
  8
7
  10
118.563
  20
14.153
  0
VERTEX
  8
7
  10
118.613
  20
14.077
  0
VERTEX
  8
7
  10
118.664
  20
14.026
  0
VERTEX
  8
7
  10
118.740
  20
13.975
  0
VERTEX
  8
7
  10
118.817
  20
13.924
  0
VERTEX
  8
7
  10
118.893
  20
13.899
  0
VERTEX
  8
7
  10
118.969
  20
13.899
  0
VERTEX
  8
7
  10
119.045
  20
13.899
  0
VERTEX
  8
7
  10
119.122
  20
13.924
  0
VERTEX
  8
7
  10
119.198
  20
13.975
  0
VERTEX
  8
7
  10
119.249
  20
14.026
  0
VERTEX
  8
7
  10
119.299
  20
14.077
  0
VERTEX
  8
7
  10
119.325
  20
14.153
  0
VERTEX
  8
7
  10
119.350
  20
14.229
  0
VERTEX
  8
7
  10
119.350
  20
14.305
  0
VERTEX
  8
7
  10
119.350
  20
14.356
  0
VERTEX
  8
7
  10
119.325
  20
14.432
  0
VERTEX
  8
7
  10
119.299
  20
14.509
  0
VERTEX
  8
7
  10
119.274
  20
14.559
  0
VERTEX
  8
7
  10
119.223
  20
14.610
  0
VERTEX
  8
7
  10
119.147
  20
14.661
  0
VERTEX
  8
7
  10
119.071
  20
14.686
  0
VERTEX
  8
7
  10
118.969
  20
14.712
  0
VERTEX
  8
7
  10
118.842
  20
14.763
  0
VERTEX
  8
7
  10
118.715
  20
14.814
  0
VERTEX
  8
7
  10
118.613
  20
14.864
  0
VERTEX
  8
7
  10
118.537
  20
14.915
  0
VERTEX
  8
7
  10
118.461
  20
14.991
  0
VERTEX
  8
7
  10
118.385
  20
15.068
  0
VERTEX
  8
7
  10
118.334
  20
15.195
  0
VERTEX
  8
7
  10
118.308
  20
15.296
  0
SEQEND
  0
POLYLINE
  8
7
  6
CONTINUOUS
 66
  1
  0
VERTEX
  8
7
  10
121.205
  20
15.017
  0
VERTEX
  8
7
  10
121.205
  20
15.144
  0
VERTEX
  8
7
  10
121.231
  20
15.296
  0
VERTEX
  8
7
  10
121.281
  20
15.423
  0
VERTEX
  8
7
  10
121.307
  20
15.576
  0
VERTEX
  8
7
  10
121.358
  20
15.703
  0
VERTEX
  8
7
  10
121.408
  20
15.855
  0
VERTEX
  8
7
  10
121.485
  20
15.982
  0
VERTEX
  8
7
  10
121.561
  20
16.109
  0
VERTEX
  8
7
  10
121.637
  20
16.211
  0
VERTEX
  8
7
  10
121.739
  20
16.338
  0
VERTEX
  8
7
  10
121.815
  20
16.440
  0
VERTEX
  8
7
  10
121.917
  20
16.541
  0
VERTEX
  8
7
  10
122.044
  20
16.618
  0
VERTEX
  8
7
  10
122.145
  20
16.694
  0
VERTEX
  8
7
  10
122.272
  20
16.745
  0
VERTEX
  8
7
  10
122.399
  20
16.796
  0
VERTEX
  8
7
  10
122.399
  20
16.516
  0
VERTEX
  8
7
  10
122.298
  20
16.465
  0
VERTEX
  8
7
  10
122.222
  20
16.414
  0
VERTEX
  8
7
  10
122.120
  20
16.313
  0
VERTEX
  8
7
  10
122.018
  20
16.211
  0
VERTEX
  8
7
  10
121.917
  20
16.109
  0
VERTEX
  8
7
  10
121.840
  20
15.982
  0
VERTEX
  8
7
  10
121.764
  20
15.855
  0
VERTEX
  8
7
  10
121.688
  20
15.703
  0
VERTEX
  8
7
  10
121.612
  20
15.550
  0
VERTEX
  8
7
  10
121.586
  20
15.373
  0
VERTEX
  8
7
  10
121.536
  20
15.195
  0
VERTEX
  8
7
  10
121.536
  20
15.017
  0
VERTEX
  8
7
  10
121.536
  20
14.890
  0
VERTEX
  8
7
  10
121.561
  20
14.737
  0
VERTEX
  8
7
  10
121.586
  20
14.585
  0
VERTEX
  8
7
  10
121.612
  20
14.432
  0
VERTEX
  8
7
  10
121.663
  20
14.280
  0
VERTEX
  8
7
  10
121.713
  20
14.127
  0
VERTEX
  8
7
  10
121.790
  20
13.975
  0
VERTEX
  8
7
  10
121.891
  20
13.848
  0
VERTEX
  8
7
  10
121.993
  20
13.721
  0
VERTEX
  8
7
  10
122.120
  20
13.619
  0
VERTEX
  8
7
  10
122.247
  20
13.518
  0
VERTEX
  8
7
  10
122.399
  20
13.416
  0
VERTEX
  8
7
  10
122.399
  20
13.136
  0
VERTEX
  8
7
  10
122.247
  20
13.187
  0
VERTEX
  8
7
  10
122.120
  20
13.264
  0
VERTEX
  8
7
  10
122.018
  20
13.340
  0
VERTEX
  8
7
  10
121.891
  20
13.441
  0
VERTEX
  8
7
  10
121.790
  20
13.543
  0
VERTEX
  8
7
  10
121.688
  20
13.670
  0
VERTEX
  8
7
  10
121.586
  20
13.772
  0
VERTEX
  8
7
  10
121.510
  20
13.899
  0
VERTEX
  8
7
  10
121.434
  20
14.026
  0
VERTEX
  8
7
  10
121.383
  20
14.178
  0
VERTEX
  8
7
  10
121.332
  20
14.331
  0
VERTEX
  8
7
  10
121.281
  20
14.458
  0
VERTEX
  8
7
  10
121.256
  20
14.610
  0
VERTEX
  8
7
  10
121.231
  20
14.737
  0
VERTEX
  8
7
  10
121.205
  20
14.890
  0
VERTEX
  8
7
  10
121.205
  20
15.017
  0
SEQEND
  0
POLYLINE
  8
7
  6
CONTINUOUS
 66
  1
  0
VERTEX
  8
7
  10
122.984
  20
13.670
  0
VERTEX
  8
7
  10
122.984
  20
15.677
  0
VERTEX
  8
7
  10
122.628
  20
15.677
  0
VERTEX
  8
7
  10
122.628
  20
15.982
  0
VERTEX
  8
7
  10
122.984
  20
15.982
  0
VERTEX
  8
7
  10
123.009
  20
16.160
  0
VERTEX
  8
7
  10
123.035
  20
16.338
  0
VERTEX
  8
7
  10
123.111
  20
16.465
  0
VERTEX
  8
7
  10
123.213
  20
16.592
  0
VERTEX
  8
7
  10
123.314
  20
16.668
  0
VERTEX
  8
7
  10
123.467
  20
16.745
  0
VERTEX
  8
7
  10
123.670
  20
16.770
  0
VERTEX
  8
7
  10
123.873
  20
16.796
  0
VERTEX
  8
7
  10
123.873
  20
16.491
  0
VERTEX
  8
7
  10
123.746
  20
16.491
  0
VERTEX
  8
7
  10
123.619
  20
16.465
  0
VERTEX
  8
7
  10
123.518
  20
16.440
  0
VERTEX
  8
7
  10
123.441
  20
16.389
  0
VERTEX
  8
7
  10
123.365
  20
16.313
  0
VERTEX
  8
7
  10
123.340
  20
16.236
  0
VERTEX
  8
7
  10
123.289
  20
16.135
  0
VERTEX
  8
7
  10
123.289
  20
16.008
  0
VERTEX
  8
7
  10
123.289
  20
15.982
  0
VERTEX
  8
7
  10
123.289
  20
15.982
  0
VERTEX
  8
7
  10
123.289
  20
15.982
  0
VERTEX
  8
7
  10
123.289
  20
15.982
  0
VERTEX
  8
7
  10
123.873
  20
15.982
  0
VERTEX
  8
7
  10
123.873
  20
15.677
  0
VERTEX
  8
7
  10
123.289
  20
15.677
  0
VERTEX
  8
7
  10
123.289
  20
13.670
  0
VERTEX
  8
7
  10
122.984
  20
13.670
  0
SEQEND
  0
POLYLINE
  8
7
  6
CONTINUOUS
 66
  1
  0
VERTEX
  8
7
  10
124.407
  20
13.670
  0
VERTEX
  8
7
  10
124.407
  20
15.703
  0
VERTEX
  8
7
  10
123.899
  20
15.703
  0
VERTEX
  8
7
  10
123.899
  20
15.982
  0
VERTEX
  8
7
  10
124.407
  20
15.982
  0
VERTEX
  8
7
  10
124.407
  20
16.796
  0
VERTEX
  8
7
  10
124.712
  20
16.796
  0
VERTEX
  8
7
  10
124.712
  20
15.982
  0
VERTEX
  8
7
  10
125.245
  20
15.982
  0
VERTEX
  8
7
  10
125.245
  20
15.703
  0
VERTEX
  8
7
  10
124.712
  20
15.703
  0
VERTEX
  8
7
  10
124.712
  20
13.670
  0
VERTEX
  8
7
  10
124.407
  20
13.670
  0
SEQEND
  0
POLYLINE
  8
7
  6
CONTINUOUS
 66
  1
  0
VERTEX
  8
7
  10
125.754
  20
13.670
  0
VERTEX
  8
7
  10
125.754
  20
14.229
  0
VERTEX
  8
7
  10
126.084
  20
14.229
  0
VERTEX
  8
7
  10
126.084
  20
13.670
  0
VERTEX
  8
7
  10
125.754
  20
13.670
  0
SEQEND
  0
POLYLINE
  8
7
  6
CONTINUOUS
 66
  1
  0
VERTEX
  8
7
  10
127.812
  20
15.017
  0
VERTEX
  8
7
  10
127.812
  20
14.890
  0
VERTEX
  8
7
  10
127.786
  20
14.737
  0
VERTEX
  8
7
  10
127.761
  20
14.585
  0
VERTEX
  8
7
  10
127.736
  20
14.458
  0
VERTEX
  8
7
  10
127.685
  20
14.305
  0
VERTEX
  8
7
  10
127.634
  20
14.178
  0
VERTEX
  8
7
  10
127.583
  20
14.026
  0
VERTEX
  8
7
  10
127.507
  20
13.899
  0
VERTEX
  8
7
  10
127.431
  20
13.772
  0
VERTEX
  8
7
  10
127.329
  20
13.670
  0
VERTEX
  8
7
  10
127.227
  20
13.568
  0
VERTEX
  8
7
  10
127.126
  20
13.467
  0
VERTEX
  8
7
  10
126.999
  20
13.365
  0
VERTEX
  8
7
  10
126.897
  20
13.264
  0
VERTEX
  8
7
  10
126.770
  20
13.187
  0
VERTEX
  8
7
  10
126.618
  20
13.136
  0
VERTEX
  8
7
  10
126.618
  20
13.416
  0
VERTEX
  8
7
  10
126.770
  20
13.518
  0
VERTEX
  8
7
  10
126.897
  20
13.619
  0
VERTEX
  8
7
  10
127.024
  20
13.721
  0
VERTEX
  8
7
  10
127.126
  20
13.848
  0
VERTEX
  8
7
  10
127.227
  20
13.975
  0
VERTEX
  8
7
  10
127.304
  20
14.127
  0
VERTEX
  8
7
  10
127.354
  20
14.280
  0
VERTEX
  8
7
  10
127.405
  20
14.432
  0
VERTEX
  8
7
  10
127.431
  20
14.585
  0
VERTEX
  8
7
  10
127.456
  20
14.737
  0
VERTEX
  8
7
  10
127.481
  20
14.890
  0
VERTEX
  8
7
  10
127.481
  20
15.017
  0
VERTEX
  8
7
  10
127.481
  20
15.195
  0
VERTEX
  8
7
  10
127.456
  20
15.373
  0
VERTEX
  8
7
  10
127.405
  20
15.550
  0
VERTEX
  8
7
  10
127.329
  20
15.703
  0
VERTEX
  8
7
  10
127.253
  20
15.855
  0
VERTEX
  8
7
  10
127.177
  20
15.982
  0
VERTEX
  8
7
  10
127.100
  20
16.109
  0
VERTEX
  8
7
  10
126.999
  20
16.211
  0
VERTEX
  8
7
  10
126.897
  20
16.313
  0
VERTEX
  8
7
  10
126.821
  20
16.414
  0
VERTEX
  8
7
  10
126.719
  20
16.465
  0
VERTEX
  8
7
  10
126.618
  20
16.516
  0
VERTEX
  8
7
  10
126.618
  20
16.796
  0
VERTEX
  8
7
  10
126.745
  20
16.745
  0
VERTEX
  8
7
  10
126.872
  20
16.694
  0
VERTEX
  8
7
  10
126.973
  20
16.618
  0
VERTEX
  8
7
  10
127.100
  20
16.541
  0
VERTEX
  8
7
  10
127.202
  20
16.440
  0
VERTEX
  8
7
  10
127.278
  20
16.338
  0
VERTEX
  8
7
  10
127.380
  20
16.211
  0
VERTEX
  8
7
  10
127.456
  20
16.109
  0
VERTEX
  8
7
  10
127.532
  20
15.982
  0
VERTEX
  8
7
  10
127.609
  20
15.855
  0
VERTEX
  8
7
  10
127.659
  20
15.703
  0
VERTEX
  8
7
  10
127.710
  20
15.576
  0
VERTEX
  8
7
  10
127.761
  20
15.423
  0
VERTEX
  8
7
  10
127.786
  20
15.296
  0
VERTEX
  8
7
  10
127.812
  20
15.144
  0
VERTEX
  8
7
  10
127.812
  20
15.017
  0
SEQEND
  0
POLYLINE
  8
7
  6
CONTINUOUS
 66
  1
  0
VERTEX
  8
7
  10
109.313
  20
12.552
  0
VERTEX
  8
7
  10
109.694
  20
12.552
  0
VERTEX
  8
7
  10
109.694
  20
10.265
  0
VERTEX
  8
7
  10
109.999
  20
10.265
  0
VERTEX
  8
7
  10
109.999
  20
9.986
  0
VERTEX
  8
7
  10
109.694
  20
9.986
  0
VERTEX
  8
7
  10
109.694
  20
9.427
  0
VERTEX
  8
7
  10
109.390
  20
9.427
  0
VERTEX
  8
7
  10
109.390
  20
9.986
  0
VERTEX
  8
7
  10
107.814
  20
9.986
  0
VERTEX
  8
7
  10
107.814
  20
10.265
  0
VERTEX
  8
7
  10
109.313
  20
12.552
  0
SEQEND
  0
POLYLINE
  8
7
  6
CONTINUOUS
 66
  1
  0
VERTEX
  8
7
  10
109.390
  20
12.120
  0
VERTEX
  8
7
  10
108.170
  20
10.265
  0
VERTEX
  8
7
  10
109.390
  20
10.265
  0
VERTEX
  8
7
  10
109.390
  20
12.120
  0
SEQEND
  0
POLYLINE
  8
7
  6
CONTINUOUS
 66
  1
  0
VERTEX
  8
7
  10
110.253
  20
11.510
  0
VERTEX
  8
7
  10
110.253
  20
11.663
  0
VERTEX
  8
7
  10
110.279
  20
11.815
  0
VERTEX
  8
7
  10
110.330
  20
11.968
  0
VERTEX
  8
7
  10
110.381
  20
12.095
  0
VERTEX
  8
7
  10
110.457
  20
12.196
  0
VERTEX
  8
7
  10
110.558
  20
12.298
  0
VERTEX
  8
7
  10
110.660
  20
12.400
  0
VERTEX
  8
7
  10
110.787
  20
12.476
  0
VERTEX
  8
7
  10
110.914
  20
12.527
  0
VERTEX
  8
7
  10
111.041
  20
12.577
  0
VERTEX
  8
7
  10
111.143
  20
12.603
  0
VERTEX
  8
7
  10
111.270
  20
12.603
  0
VERTEX
  8
7
  10
111.372
  20
12.603
  0
VERTEX
  8
7
  10
111.499
  20
12.577
  0
VERTEX
  8
7
  10
111.600
  20
12.552
  0
VERTEX
  8
7
  10
111.702
  20
12.527
  0
VERTEX
  8
7
  10
111.804
  20
12.476
  0
VERTEX
  8
7
  10
111.880
  20
12.400
  0
VERTEX
  8
7
  10
111.956
  20
12.349
  0
VERTEX
  8
7
  10
112.032
  20
12.273
  0
VERTEX
  8
7
  10
112.108
  20
12.196
  0
VERTEX
  8
7
  10
112.159
  20
12.120
  0
VERTEX
  8
7
  10
112.210
  20
12.018
  0
VERTEX
  8
7
  10
112.261
  20
11.917
  0
VERTEX
  8
7
  10
112.286
  20
11.815
  0
VERTEX
  8
7
  10
112.312
  20
11.714
  0
VERTEX
  8
7
  10
112.337
  20
11.586
  0
VERTEX
  8
7
  10
112.337
  20
11.485
  0
VERTEX
  8
7
  10
112.337
  20
10.418
  0
VERTEX
  8
7
  10
112.337
  20
10.291
  0
VERTEX
  8
7
  10
112.312
  20
10.164
  0
VERTEX
  8
7
  10
112.286
  20
10.062
  0
VERTEX
  8
7
  10
112.235
  20
9.960
  0
VERTEX
  8
7
  10
112.185
  20
9.859
  0
VERTEX
  8
7
  10
112.134
  20
9.782
  0
VERTEX
  8
7
  10
112.083
  20
9.706
  0
VERTEX
  8
7
  10
112.007
  20
9.630
  0
VERTEX
  8
7
  10
111.931
  20
9.554
  0
VERTEX
  8
7
  10
111.854
  20
9.503
  0
VERTEX
  8
7
  10
111.753
  20
9.477
  0
VERTEX
  8
7
  10
111.676
  20
9.427
  0
VERTEX
  8
7
  10
111.575
  20
9.401
  0
VERTEX
  8
7
  10
111.473
  20
9.401
  0
VERTEX
  8
7
  10
111.372
  20
9.376
  0
VERTEX
  8
7
  10
111.270
  20
9.376
  0
VERTEX
  8
7
  10
111.168
  20
9.376
  0
VERTEX
  8
7
  10
111.067
  20
9.401
  0
VERTEX
  8
7
  10
110.965
  20
9.427
  0
VERTEX
  8
7
  10
110.863
  20
9.452
  0
VERTEX
  8
7
  10
110.762
  20
9.503
  0
VERTEX
  8
7
  10
110.685
  20
9.554
  0
VERTEX
  8
7
  10
110.609
  20
9.604
  0
VERTEX
  8
7
  10
110.533
  20
9.681
  0
VERTEX
  8
7
  10
110.457
  20
9.757
  0
VERTEX
  8
7
  10
110.406
  20
9.833
  0
VERTEX
  8
7
  10
110.381
  20
9.909
  0
VERTEX
  8
7
  10
110.330
  20
10.011
  0
VERTEX
  8
7
  10
110.304
  20
10.113
  0
VERTEX
  8
7
  10
110.279
  20
10.214
  0
VERTEX
  8
7
  10
110.253
  20
10.316
  0
VERTEX
  8
7
  10
110.253
  20
10.418
  0
VERTEX
  8
7
  10
110.253
  20
11.510
  0
SEQEND
  0
POLYLINE
  8
7
  6
CONTINUOUS
 66
  1
  0
VERTEX
  8
7
  10
110.558
  20
11.409
  0
VERTEX
  8
7
  10
110.558
  20
10.519
  0
VERTEX
  8
7
  10
110.558
  20
10.392
  0
VERTEX
  8
7
  10
110.584
  20
10.265
  0
VERTEX
  8
7
  10
110.609
  20
10.164
  0
VERTEX
  8
7
  10
110.635
  20
10.062
  0
VERTEX
  8
7
  10
110.685
  20
9.960
  0
VERTEX
  8
7
  10
110.762
  20
9.884
  0
VERTEX
  8
7
  10
110.813
  20
9.808
  0
VERTEX
  8
7
  10
110.889
  20
9.757
  0
VERTEX
  8
7
  10
110.990
  20
9.732
  0
VERTEX
  8
7
  10
111.092
  20
9.681
  0
VERTEX
  8
7
  10
111.168
  20
9.655
  0
VERTEX
  8
7
  10
111.270
  20
9.655
  0
VERTEX
  8
7
  10
111.422
  20
9.681
  0
VERTEX
  8
7
  10
111.549
  20
9.706
  0
VERTEX
  8
7
  10
111.676
  20
9.782
  0
VERTEX
  8
7
  10
111.804
  20
9.859
  0
VERTEX
  8
7
  10
111.905
  20
9.960
  0
VERTEX
  8
7
  10
111.981
  20
10.087
  0
VERTEX
  8
7
  10
112.007
  20
10.240
  0
VERTEX
  8
7
  10
112.032
  20
10.418
  0
VERTEX
  8
7
  10
112.032
  20
11.434
  0
VERTEX
  8
7
  10
112.032
  20
11.561
  0
VERTEX
  8
7
  10
112.007
  20
11.688
  0
VERTEX
  8
7
  10
111.981
  20
11.790
  0
VERTEX
  8
7
  10
111.931
  20
11.917
  0
VERTEX
  8
7
  10
111.880
  20
11.993
  0
VERTEX
  8
7
  10
111.829
  20
12.069
  0
VERTEX
  8
7
  10
111.753
  20
12.145
  0
VERTEX
  8
7
  10
111.676
  20
12.196
  0
VERTEX
  8
7
  10
111.575
  20
12.247
  0
VERTEX
  8
7
  10
111.473
  20
12.273
  0
VERTEX
  8
7
  10
111.372
  20
12.298
  0
VERTEX
  8
7
  10
111.270
  20
12.298
  0
VERTEX
  8
7
  10
110.965
  20
12.222
  0
VERTEX
  8
7
  10
110.736
  20
12.044
  0
VERTEX
  8
7
  10
110.609
  20
11.790
  0
VERTEX
  8
7
  10
110.558
  20
11.409
  0
SEQEND
  0
POLYLINE
  8
7
  6
CONTINUOUS
 66
  1
  0
VERTEX
  8
7
  10
107.916
  20
7.292
  0
VERTEX
  8
7
  10
107.916
  20
7.470
  0
VERTEX
  8
7
  10
107.941
  20
7.623
  0
VERTEX
  8
7
  10
107.992
  20
7.750
  0
VERTEX
  8
7
  10
108.043
  20
7.877
  0
VERTEX
  8
7
  10
108.119
  20
8.004
  0
VERTEX
  8
7
  10
108.221
  20
8.105
  0
VERTEX
  8
7
  10
108.322
  20
8.182
  0
VERTEX
  8
7
  10
108.424
  20
8.232
  0
VERTEX
  8
7
  10
108.551
  20
8.283
  0
VERTEX
  8
7
  10
108.678
  20
8.334
  0
VERTEX
  8
7
  10
108.805
  20
8.359
  0
VERTEX
  8
7
  10
108.932
  20
8.359
  0
VERTEX
  8
7
  10
109.034
  20
8.359
  0
VERTEX
  8
7
  10
109.110
  20
8.334
  0
VERTEX
  8
7
  10
109.186
  20
8.309
  0
VERTEX
  8
7
  10
109.288
  20
8.283
  0
VERTEX
  8
7
  10
109.390
  20
8.232
  0
VERTEX
  8
7
  10
109.466
  20
8.207
  0
VERTEX
  8
7
  10
109.542
  20
8.156
  0
VERTEX
  8
7
  10
109.593
  20
8.080
  0
VERTEX
  8
7
  10
109.669
  20
8.029
  0
VERTEX
  8
7
  10
109.720
  20
7.953
  0
VERTEX
  8
7
  10
109.771
  20
7.877
  0
VERTEX
  8
7
  10
109.822
  20
7.775
  0
VERTEX
  8
7
  10
109.847
  20
7.699
  0
VERTEX
  8
7
  10
109.872
  20
7.597
  0
VERTEX
  8
7
  10
109.898
  20
7.521
  0
VERTEX
  8
7
  10
109.898
  20
7.419
  0
VERTEX
  8
7
  10
109.872
  20
7.191
  0
VERTEX
  8
7
  10
109.796
  20
6.962
  0
VERTEX
  8
7
  10
109.644
  20
6.733
  0
VERTEX
  8
7
  10
109.440
  20
6.530
  0
VERTEX
  8
7
  10
108.322
  20
5.463
  0
VERTEX
  8
7
  10
109.898
  20
5.463
  0
VERTEX
  8
7
  10
109.898
  20
5.183
  0
VERTEX
  8
7
  10
107.890
  20
5.183
  0
VERTEX
  8
7
  10
107.890
  20
5.463
  0
VERTEX
  8
7
  10
109.288
  20
6.809
  0
VERTEX
  8
7
  10
109.415
  20
6.962
  0
VERTEX
  8
7
  10
109.517
  20
7.114
  0
VERTEX
  8
7
  10
109.567
  20
7.267
  0
VERTEX
  8
7
  10
109.593
  20
7.419
  0
VERTEX
  8
7
  10
109.593
  20
7.495
  0
VERTEX
  8
7
  10
109.567
  20
7.572
  0
VERTEX
  8
7
  10
109.517
  20
7.648
  0
VERTEX
  8
7
  10
109.491
  20
7.724
  0
VERTEX
  8
7
  10
109.440
  20
7.800
  0
VERTEX
  8
7
  10
109.390
  20
7.851
  0
VERTEX
  8
7
  10
109.339
  20
7.902
  0
VERTEX
  8
7
  10
109.263
  20
7.953
  0
VERTEX
  8
7
  10
109.186
  20
8.004
  0
VERTEX
  8
7
  10
109.110
  20
8.029
  0
VERTEX
  8
7
  10
109.034
  20
8.054
  0
VERTEX
  8
7
  10
108.958
  20
8.054
  0
VERTEX
  8
7
  10
108.805
  20
8.054
  0
VERTEX
  8
7
  10
108.678
  20
8.004
  0
VERTEX
  8
7
  10
108.551
  20
7.953
  0
VERTEX
  8
7
  10
108.449
  20
7.877
  0
VERTEX
  8
7
  10
108.348
  20
7.775
  0
VERTEX
  8
7
  10
108.272
  20
7.623
  0
VERTEX
  8
7
  10
108.246
  20
7.470
  0
VERTEX
  8
7
  10
108.221
  20
7.292
  0
VERTEX
  8
7
  10
107.916
  20
7.292
  0
SEQEND
  0
POLYLINE
  8
7
  6
CONTINUOUS
 66
  1
  0
VERTEX
  8
7
  10
110.253
  20
7.267
  0
VERTEX
  8
7
  10
110.253
  20
7.419
  0
VERTEX
  8
7
  10
110.279
  20
7.572
  0
VERTEX
  8
7
  10
110.330
  20
7.724
  0
VERTEX
  8
7
  10
110.381
  20
7.851
  0
VERTEX
  8
7
  10
110.457
  20
7.953
  0
VERTEX
  8
7
  10
110.558
  20
8.054
  0
VERTEX
  8
7
  10
110.660
  20
8.156
  0
VERTEX
  8
7
  10
110.787
  20
8.232
  0
VERTEX
  8
7
  10
110.914
  20
8.283
  0
VERTEX
  8
7
  10
111.041
  20
8.334
  0
VERTEX
  8
7
  10
111.143
  20
8.359
  0
VERTEX
  8
7
  10
111.270
  20
8.359
  0
VERTEX
  8
7
  10
111.372
  20
8.359
  0
VERTEX
  8
7
  10
111.499
  20
8.334
  0
VERTEX
  8
7
  10
111.600
  20
8.309
  0
VERTEX
  8
7
  10
111.702
  20
8.283
  0
VERTEX
  8
7
  10
111.804
  20
8.232
  0
VERTEX
  8
7
  10
111.880
  20
8.156
  0
VERTEX
  8
7
  10
111.956
  20
8.105
  0
VERTEX
  8
7
  10
112.032
  20
8.029
  0
VERTEX
  8
7
  10
112.108
  20
7.953
  0
VERTEX
  8
7
  10
112.159
  20
7.877
  0
VERTEX
  8
7
  10
112.210
  20
7.775
  0
VERTEX
  8
7
  10
112.261
  20
7.673
  0
VERTEX
  8
7
  10
112.286
  20
7.572
  0
VERTEX
  8
7
  10
112.312
  20
7.470
  0
VERTEX
  8
7
  10
112.337
  20
7.343
  0
VERTEX
  8
7
  10
112.337
  20
7.241
  0
VERTEX
  8
7
  10
112.337
  20
6.174
  0
VERTEX
  8
7
  10
112.337
  20
6.047
  0
VERTEX
  8
7
  10
112.312
  20
5.920
  0
VERTEX
  8
7
  10
112.286
  20
5.818
  0
VERTEX
  8
7
  10
112.235
  20
5.717
  0
VERTEX
  8
7
  10
112.185
  20
5.615
  0
VERTEX
  8
7
  10
112.134
  20
5.539
  0
VERTEX
  8
7
  10
112.083
  20
5.463
  0
VERTEX
  8
7
  10
112.007
  20
5.386
  0
VERTEX
  8
7
  10
111.931
  20
5.310
  0
VERTEX
  8
7
  10
111.854
  20
5.259
  0
VERTEX
  8
7
  10
111.753
  20
5.234
  0
VERTEX
  8
7
  10
111.676
  20
5.183
  0
VERTEX
  8
7
  10
111.575
  20
5.158
  0
VERTEX
  8
7
  10
111.473
  20
5.158
  0
VERTEX
  8
7
  10
111.372
  20
5.132
  0
VERTEX
  8
7
  10
111.270
  20
5.132
  0
VERTEX
  8
7
  10
111.168
  20
5.132
  0
VERTEX
  8
7
  10
111.067
  20
5.158
  0
VERTEX
  8
7
  10
110.965
  20
5.183
  0
VERTEX
  8
7
  10
110.863
  20
5.209
  0
VERTEX
  8
7
  10
110.762
  20
5.259
  0
VERTEX
  8
7
  10
110.685
  20
5.310
  0
VERTEX
  8
7
  10
110.609
  20
5.361
  0
VERTEX
  8
7
  10
110.533
  20
5.437
  0
VERTEX
  8
7
  10
110.457
  20
5.513
  0
VERTEX
  8
7
  10
110.406
  20
5.590
  0
VERTEX
  8
7
  10
110.381
  20
5.666
  0
VERTEX
  8
7
  10
110.330
  20
5.768
  0
VERTEX
  8
7
  10
110.304
  20
5.869
  0
VERTEX
  8
7
  10
110.279
  20
5.971
  0
VERTEX
  8
7
  10
110.253
  20
6.072
  0
VERTEX
  8
7
  10
110.253
  20
6.174
  0
VERTEX
  8
7
  10
110.253
  20
7.267
  0
SEQEND
  0
POLYLINE
  8
7
  6
CONTINUOUS
 66
  1
  0
VERTEX
  8
7
  10
110.558
  20
7.165
  0
VERTEX
  8
7
  10
110.558
  20
6.276
  0
VERTEX
  8
7
  10
110.558
  20
6.149
  0
VERTEX
  8
7
  10
110.584
  20
6.022
  0
VERTEX
  8
7
  10
110.609
  20
5.920
  0
VERTEX
  8
7
  10
110.635
  20
5.818
  0
VERTEX
  8
7
  10
110.685
  20
5.717
  0
VERTEX
  8
7
  10
110.762
  20
5.641
  0
VERTEX
  8
7
  10
110.813
  20
5.564
  0
VERTEX
  8
7
  10
110.889
  20
5.513
  0
VERTEX
  8
7
  10
110.990
  20
5.488
  0
VERTEX
  8
7
  10
111.092
  20
5.437
  0
VERTEX
  8
7
  10
111.168
  20
5.412
  0
VERTEX
  8
7
  10
111.270
  20
5.412
  0
VERTEX
  8
7
  10
111.422
  20
5.437
  0
VERTEX
  8
7
  10
111.549
  20
5.463
  0
VERTEX
  8
7
  10
111.676
  20
5.539
  0
VERTEX
  8
7
  10
111.804
  20
5.615
  0
VERTEX
  8
7
  10
111.905
  20
5.717
  0
VERTEX
  8
7
  10
111.981
  20
5.844
  0
VERTEX
  8
7
  10
112.007
  20
5.996
  0
VERTEX
  8
7
  10
112.032
  20
6.174
  0
VERTEX
  8
7
  10
112.032
  20
7.191
  0
VERTEX
  8
7
  10
112.032
  20
7.318
  0
VERTEX
  8
7
  10
112.007
  20
7.445
  0
VERTEX
  8
7
  10
111.981
  20
7.546
  0
VERTEX
  8
7
  10
111.931
  20
7.673
  0
VERTEX
  8
7
  10
111.880
  20
7.750
  0
VERTEX
  8
7
  10
111.829
  20
7.826
  0
VERTEX
  8
7
  10
111.753
  20
7.902
  0
VERTEX
  8
7
  10
111.676
  20
7.953
  0
VERTEX
  8
7
  10
111.575
  20
8.004
  0
VERTEX
  8
7
  10
111.473
  20
8.029
  0
VERTEX
  8
7
  10
111.372
  20
8.054
  0
VERTEX
  8
7
  10
111.270
  20
8.054
  0
VERTEX
  8
7
  10
110.965
  20
7.978
  0
VERTEX
  8
7
  10
110.736
  20
7.800
  0
VERTEX
  8
7
  10
110.609
  20
7.546
  0
VERTEX
  8
7
  10
110.558
  20
7.165
  0
SEQEND
  0
POLYLINE
  8
7
  6
CONTINUOUS
 66
  1
  0
VERTEX
  8
7
  10
108.932
  20
3.786
  0
VERTEX
  8
7
  10
108.424
  20
3.786
  0
VERTEX
  8
7
  10
108.424
  20
4.065
  0
VERTEX
  8
7
  10
109.263
  20
4.065
  0
VERTEX
  8
7
  10
109.263
  20
0.940
  0
VERTEX
  8
7
  10
108.932
  20
0.940
  0
VERTEX
  8
7
  10
108.932
  20
3.786
  0
SEQEND
  0
POLYLINE
  8
7
  6
CONTINUOUS
 66
  1
  0
VERTEX
  8
7
  10
110.253
  20
3.023
  0
VERTEX
  8
7
  10
110.253
  20
3.176
  0
VERTEX
  8
7
  10
110.279
  20
3.328
  0
VERTEX
  8
7
  10
110.330
  20
3.481
  0
VERTEX
  8
7
  10
110.381
  20
3.608
  0
VERTEX
  8
7
  10
110.457
  20
3.709
  0
VERTEX
  8
7
  10
110.558
  20
3.811
  0
VERTEX
  8
7
  10
110.660
  20
3.913
  0
VERTEX
  8
7
  10
110.787
  20
3.989
  0
VERTEX
  8
7
  10
110.914
  20
4.040
  0
VERTEX
  8
7
  10
111.041
  20
4.091
  0
VERTEX
  8
7
  10
111.143
  20
4.116
  0
VERTEX
  8
7
  10
111.270
  20
4.116
  0
VERTEX
  8
7
  10
111.372
  20
4.116
  0
VERTEX
  8
7
  10
111.499
  20
4.091
  0
VERTEX
  8
7
  10
111.600
  20
4.065
  0
VERTEX
  8
7
  10
111.702
  20
4.040
  0
VERTEX
  8
7
  10
111.804
  20
3.989
  0
VERTEX
  8
7
  10
111.880
  20
3.913
  0
VERTEX
  8
7
  10
111.956
  20
3.862
  0
VERTEX
  8
7
  10
112.032
  20
3.786
  0
VERTEX
  8
7
  10
112.108
  20
3.709
  0
VERTEX
  8
7
  10
112.159
  20
3.633
  0
VERTEX
  8
7
  10
112.210
  20
3.531
  0
VERTEX
  8
7
  10
112.261
  20
3.430
  0
VERTEX
  8
7
  10
112.286
  20
3.328
  0
VERTEX
  8
7
  10
112.312
  20
3.227
  0
VERTEX
  8
7
  10
112.337
  20
3.100
  0
VERTEX
  8
7
  10
112.337
  20
2.998
  0
VERTEX
  8
7
  10
112.337
  20
1.931
  0
VERTEX
  8
7
  10
112.337
  20
1.804
  0
VERTEX
  8
7
  10
112.312
  20
1.677
  0
VERTEX
  8
7
  10
112.286
  20
1.575
  0
VERTEX
  8
7
  10
112.235
  20
1.473
  0
VERTEX
  8
7
  10
112.185
  20
1.372
  0
VERTEX
  8
7
  10
112.134
  20
1.295
  0
VERTEX
  8
7
  10
112.083
  20
1.219
  0
VERTEX
  8
7
  10
112.007
  20
1.143
  0
VERTEX
  8
7
  10
111.931
  20
1.067
  0
VERTEX
  8
7
  10
111.854
  20
1.016
  0
VERTEX
  8
7
  10
111.753
  20
0.990
  0
VERTEX
  8
7
  10
111.676
  20
0.940
  0
VERTEX
  8
7
  10
111.575
  20
0.914
  0
VERTEX
  8
7
  10
111.473
  20
0.914
  0
VERTEX
  8
7
  10
111.372
  20
0.889
  0
VERTEX
  8
7
  10
111.270
  20
0.889
  0
VERTEX
  8
7
  10
111.168
  20
0.889
  0
VERTEX
  8
7
  10
111.067
  20
0.914
  0
VERTEX
  8
7
  10
110.965
  20
0.940
  0
VERTEX
  8
7
  10
110.863
  20
0.965
  0
VERTEX
  8
7
  10
110.762
  20
1.016
  0
VERTEX
  8
7
  10
110.685
  20
1.067
  0
VERTEX
  8
7
  10
110.609
  20
1.118
  0
VERTEX
  8
7
  10
110.533
  20
1.194
  0
VERTEX
  8
7
  10
110.457
  20
1.270
  0
VERTEX
  8
7
  10
110.406
  20
1.346
  0
VERTEX
  8
7
  10
110.381
  20
1.422
  0
VERTEX
  8
7
  10
110.330
  20
1.524
  0
VERTEX
  8
7
  10
110.304
  20
1.626
  0
VERTEX
  8
7
  10
110.279
  20
1.727
  0
VERTEX
  8
7
  10
110.253
  20
1.829
  0
VERTEX
  8
7
  10
110.253
  20
1.931
  0
VERTEX
  8
7
  10
110.253
  20
3.023
  0
SEQEND
  0
POLYLINE
  8
7
  6
CONTINUOUS
 66
  1
  0
VERTEX
  8
7
  10
110.558
  20
2.922
  0
VERTEX
  8
7
  10
110.558
  20
2.032
  0
VERTEX
  8
7
  10
110.558
  20
1.905
  0
VERTEX
  8
7
  10
110.584
  20
1.778
  0
VERTEX
  8
7
  10
110.609
  20
1.677
  0
VERTEX
  8
7
  10
110.635
  20
1.575
  0
VERTEX
  8
7
  10
110.685
  20
1.473
  0
VERTEX
  8
7
  10
110.762
  20
1.397
  0
VERTEX
  8
7
  10
110.813
  20
1.321
  0
VERTEX
  8
7
  10
110.889
  20
1.270
  0
VERTEX
  8
7
  10
110.990
  20
1.245
  0
VERTEX
  8
7
  10
111.092
  20
1.194
  0
VERTEX
  8
7
  10
111.168
  20
1.168
  0
VERTEX
  8
7
  10
111.270
  20
1.168
  0
VERTEX
  8
7
  10
111.422
  20
1.194
  0
VERTEX
  8
7
  10
111.549
  20
1.219
  0
VERTEX
  8
7
  10
111.676
  20
1.295
  0
VERTEX
  8
7
  10
111.804
  20
1.372
  0
VERTEX
  8
7
  10
111.905
  20
1.473
  0
VERTEX
  8
7
  10
111.981
  20
1.600
  0
VERTEX
  8
7
  10
112.007
  20
1.753
  0
VERTEX
  8
7
  10
112.032
  20
1.931
  0
VERTEX
  8
7
  10
112.032
  20
2.947
  0
VERTEX
  8
7
  10
112.032
  20
3.074
  0
VERTEX
  8
7
  10
112.007
  20
3.201
  0
VERTEX
  8
7
  10
111.981
  20
3.303
  0
VERTEX
  8
7
  10
111.931
  20
3.430
  0
VERTEX
  8
7
  10
111.880
  20
3.506
  0
VERTEX
  8
7
  10
111.829
  20
3.582
  0
VERTEX
  8
7
  10
111.753
  20
3.659
  0
VERTEX
  8
7
  10
111.676
  20
3.709
  0
VERTEX
  8
7
  10
111.575
  20
3.760
  0
VERTEX
  8
7
  10
111.473
  20
3.786
  0
VERTEX
  8
7
  10
111.372
  20
3.811
  0
VERTEX
  8
7
  10
111.270
  20
3.811
  0
VERTEX
  8
7
  10
110.965
  20
3.735
  0
VERTEX
  8
7
  10
110.736
  20
3.557
  0
VERTEX
  8
7
  10
110.609
  20
3.303
  0
VERTEX
  8
7
  10
110.558
  20
2.922
  0
SEQEND
  0
POLYLINE
  8
7
  6
CONTINUOUS
 66
  1
  0
VERTEX
  8
7
  10
92.390
  20
-67.717
  0
VERTEX
  8
7
  10
107.153
  20
-67.717
  0
SEQEND
  0
POLYLINE
  8
7
  6
CONTINUOUS
 66
  1
  0
VERTEX
  8
7
  10
95.287
  20
-59.738
  0
VERTEX
  8
7
  10
96.710
  20
-59.738
  0
VERTEX
  8
7
  10
96.710
  20
-60.018
  0
VERTEX
  8
7
  10
95.541
  20
-60.018
  0
VERTEX
  8
7
  10
95.389
  20
-60.882
  0
VERTEX
  8
7
  10
95.516
  20
-60.831
  0
VERTEX
  8
7
  10
95.668
  20
-60.780
  0
VERTEX
  8
7
  10
95.795
  20
-60.755
  0
VERTEX
  8
7
  10
95.948
  20
-60.755
  0
VERTEX
  8
7
  10
96.049
  20
-60.755
  0
VERTEX
  8
7
  10
96.151
  20
-60.780
  0
VERTEX
  8
7
  10
96.253
  20
-60.806
  0
VERTEX
  8
7
  10
96.354
  20
-60.831
  0
VERTEX
  8
7
  10
96.456
  20
-60.882
  0
VERTEX
  8
7
  10
96.532
  20
-60.958
  0
VERTEX
  8
7
  10
96.608
  20
-61.009
  0
VERTEX
  8
7
  10
96.685
  20
-61.085
  0
VERTEX
  8
7
  10
96.735
  20
-61.161
  0
VERTEX
  8
7
  10
96.786
  20
-61.263
  0
VERTEX
  8
7
  10
96.837
  20
-61.339
  0
VERTEX
  8
7
  10
96.888
  20
-61.441
  0
VERTEX
  8
7
  10
96.939
  20
-61.543
  0
VERTEX
  8
7
  10
96.964
  20
-61.644
  0
VERTEX
  8
7
  10
96.989
  20
-61.746
  0
VERTEX
  8
7
  10
96.989
  20
-61.847
  0
VERTEX
  8
7
  10
96.989
  20
-61.949
  0
VERTEX
  8
7
  10
96.964
  20
-62.051
  0
VERTEX
  8
7
  10
96.939
  20
-62.152
  0
VERTEX
  8
7
  10
96.913
  20
-62.254
  0
VERTEX
  8
7
  10
96.862
  20
-62.356
  0
VERTEX
  8
7
  10
96.812
  20
-62.432
  0
VERTEX
  8
7
  10
96.761
  20
-62.534
  0
VERTEX
  8
7
  10
96.685
  20
-62.610
  0
VERTEX
  8
7
  10
96.608
  20
-62.686
  0
VERTEX
  8
7
  10
96.532
  20
-62.737
  0
VERTEX
  8
7
  10
96.456
  20
-62.813
  0
VERTEX
  8
7
  10
96.354
  20
-62.864
  0
VERTEX
  8
7
  10
96.253
  20
-62.864
  0
VERTEX
  8
7
  10
96.176
  20
-62.864
  0
VERTEX
  8
7
  10
96.075
  20
-62.864
  0
VERTEX
  8
7
  10
95.973
  20
-62.889
  0
VERTEX
  8
7
  10
95.821
  20
-62.889
  0
VERTEX
  8
7
  10
95.694
  20
-62.864
  0
VERTEX
  8
7
  10
95.541
  20
-62.864
  0
VERTEX
  8
7
  10
95.414
  20
-62.838
  0
VERTEX
  8
7
  10
95.312
  20
-62.762
  0
VERTEX
  8
7
  10
95.185
  20
-62.686
  0
VERTEX
  8
7
  10
95.084
  20
-62.584
  0
VERTEX
  8
7
  10
95.007
  20
-62.483
  0
VERTEX
  8
7
  10
94.931
  20
-62.356
  0
VERTEX
  8
7
  10
94.880
  20
-62.229
  0
VERTEX
  8
7
  10
94.830
  20
-62.076
  0
VERTEX
  8
7
  10
94.804
  20
-61.898
  0
VERTEX
  8
7
  10
95.135
  20
-61.898
  0
VERTEX
  8
7
  10
95.160
  20
-62.000
  0
VERTEX
  8
7
  10
95.185
  20
-62.076
  0
VERTEX
  8
7
  10
95.211
  20
-62.178
  0
VERTEX
  8
7
  10
95.262
  20
-62.279
  0
VERTEX
  8
7
  10
95.312
  20
-62.356
  0
VERTEX
  8
7
  10
95.389
  20
-62.432
  0
VERTEX
  8
7
  10
95.465
  20
-62.508
  0
VERTEX
  8
7
  10
95.541
  20
-62.559
  0
VERTEX
  8
7
  10
95.643
  20
-62.610
  0
VERTEX
  8
7
  10
95.719
  20
-62.635
  0
VERTEX
  8
7
  10
95.795
  20
-62.661
  0
VERTEX
  8
7
  10
95.897
  20
-62.661
  0
VERTEX
  8
7
  10
95.998
  20
-62.661
  0
VERTEX
  8
7
  10
96.100
  20
-62.635
  0
VERTEX
  8
7
  10
96.202
  20
-62.584
  0
VERTEX
  8
7
  10
96.278
  20
-62.534
  0
VERTEX
  8
7
  10
96.354
  20
-62.483
  0
VERTEX
  8
7
  10
96.430
  20
-62.406
  0
VERTEX
  8
7
  10
96.507
  20
-62.330
  0
VERTEX
  8
7
  10
96.558
  20
-62.254
  0
VERTEX
  8
7
  10
96.583
  20
-62.152
  0
VERTEX
  8
7
  10
96.634
  20
-62.051
  0
VERTEX
  8
7
  10
96.659
  20
-61.949
  0
VERTEX
  8
7
  10
96.659
  20
-61.847
  0
VERTEX
  8
7
  10
96.659
  20
-61.746
  0
VERTEX
  8
7
  10
96.634
  20
-61.644
  0
VERTEX
  8
7
  10
96.608
  20
-61.568
  0
VERTEX
  8
7
  10
96.558
  20
-61.466
  0
VERTEX
  8
7
  10
96.507
  20
-61.365
  0
VERTEX
  8
7
  10
96.456
  20
-61.288
  0
VERTEX
  8
7
  10
96.380
  20
-61.212
  0
VERTEX
  8
7
  10
96.303
  20
-61.161
  0
VERTEX
  8
7
  10
96.202
  20
-61.111
  0
VERTEX
  8
7
  10
96.126
  20
-61.085
  0
VERTEX
  8
7
  10
96.024
  20
-61.060
  0
VERTEX
  8
7
  10
95.922
  20
-61.060
  0
VERTEX
  8
7
  10
95.821
  20
-61.060
  0
VERTEX
  8
7
  10
95.744
  20
-61.085
  0
VERTEX
  8
7
  10
95.643
  20
-61.111
  0
VERTEX
  8
7
  10
95.567
  20
-61.136
  0
VERTEX
  8
7
  10
95.465
  20
-61.187
  0
VERTEX
  8
7
  10
95.389
  20
-61.238
  0
VERTEX
  8
7
  10
95.312
  20
-61.314
  0
VERTEX
  8
7
  10
95.262
  20
-61.390
  0
VERTEX
  8
7
  10
95.007
  20
-61.288
  0
VERTEX
  8
7
  10
95.287
  20
-59.738
  0
SEQEND
  0
POLYLINE
  8
7
  6
CONTINUOUS
 66
  1
  0
VERTEX
  8
7
  10
97.244
  20
-60.780
  0
VERTEX
  8
7
  10
97.244
  20
-60.628
  0
VERTEX
  8
7
  10
97.294
  20
-60.475
  0
VERTEX
  8
7
  10
97.320
  20
-60.323
  0
VERTEX
  8
7
  10
97.396
  20
-60.196
  0
VERTEX
  8
7
  10
97.472
  20
-60.069
  0
VERTEX
  8
7
  10
97.574
  20
-59.967
  0
VERTEX
  8
7
  10
97.676
  20
-59.891
  0
VERTEX
  8
7
  10
97.777
  20
-59.815
  0
VERTEX
  8
7
  10
97.879
  20
-59.764
  0
VERTEX
  8
7
  10
98.006
  20
-59.713
  0
VERTEX
  8
7
  10
98.133
  20
-59.688
  0
VERTEX
  8
7
  10
98.260
  20
-59.688
  0
VERTEX
  8
7
  10
98.362
  20
-59.688
  0
VERTEX
  8
7
  10
98.489
  20
-59.713
  0
VERTEX
  8
7
  10
98.590
  20
-59.738
  0
VERTEX
  8
7
  10
98.692
  20
-59.764
  0
VERTEX
  8
7
  10
98.794
  20
-59.815
  0
VERTEX
  8
7
  10
98.870
  20
-59.865
  0
VERTEX
  8
7
  10
98.946
  20
-59.916
  0
VERTEX
  8
7
  10
99.022
  20
-59.993
  0
VERTEX
  8
7
  10
99.099
  20
-60.069
  0
VERTEX
  8
7
  10
99.149
  20
-60.170
  0
VERTEX
  8
7
  10
99.200
  20
-60.247
  0
VERTEX
  8
7
  10
99.251
  20
-60.348
  0
VERTEX
  8
7
  10
99.276
  20
-60.450
  0
VERTEX
  8
7
  10
99.302
  20
-60.577
  0
VERTEX
  8
7
  10
99.327
  20
-60.679
  0
VERTEX
  8
7
  10
99.327
  20
-60.806
  0
VERTEX
  8
7
  10
99.327
  20
-61.898
  0
VERTEX
  8
7
  10
99.327
  20
-62.000
  0
VERTEX
  8
7
  10
99.302
  20
-62.127
  0
VERTEX
  8
7
  10
99.276
  20
-62.229
  0
VERTEX
  8
7
  10
99.226
  20
-62.356
  0
VERTEX
  8
7
  10
99.175
  20
-62.457
  0
VERTEX
  8
7
  10
99.124
  20
-62.534
  0
VERTEX
  8
7
  10
99.073
  20
-62.610
  0
VERTEX
  8
7
  10
98.997
  20
-62.686
  0
VERTEX
  8
7
  10
98.921
  20
-62.737
  0
VERTEX
  8
7
  10
98.819
  20
-62.788
  0
VERTEX
  8
7
  10
98.743
  20
-62.838
  0
VERTEX
  8
7
  10
98.641
  20
-62.864
  0
VERTEX
  8
7
  10
98.539
  20
-62.864
  0
VERTEX
  8
7
  10
98.463
  20
-62.864
  0
VERTEX
  8
7
  10
98.362
  20
-62.889
  0
VERTEX
  8
7
  10
98.260
  20
-62.889
  0
VERTEX
  8
7
  10
98.158
  20
-62.889
  0
VERTEX
  8
7
  10
98.031
  20
-62.864
  0
VERTEX
  8
7
  10
97.930
  20
-62.864
  0
VERTEX
  8
7
  10
97.853
  20
-62.864
  0
VERTEX
  8
7
  10
97.752
  20
-62.813
  0
VERTEX
  8
7
  10
97.676
  20
-62.762
  0
VERTEX
  8
7
  10
97.599
  20
-62.711
  0
VERTEX
  8
7
  10
97.523
  20
-62.635
  0
VERTEX
  8
7
  10
97.472
  20
-62.559
  0
VERTEX
  8
7
  10
97.421
  20
-62.457
  0
VERTEX
  8
7
  10
97.371
  20
-62.381
  0
VERTEX
  8
7
  10
97.320
  20
-62.279
  0
VERTEX
  8
7
  10
97.294
  20
-62.178
  0
VERTEX
  8
7
  10
97.269
  20
-62.076
  0
VERTEX
  8
7
  10
97.244
  20
-61.974
  0
VERTEX
  8
7
  10
97.244
  20
-61.873
  0
VERTEX
  8
7
  10
97.244
  20
-60.780
  0
SEQEND
  0
POLYLINE
  8
7
  6
CONTINUOUS
 66
  1
  0
VERTEX
  8
7
  10
97.548
  20
-60.882
  0
VERTEX
  8
7
  10
97.548
  20
-61.797
  0
VERTEX
  8
7
  10
97.548
  20
-61.924
  0
VERTEX
  8
7
  10
97.574
  20
-62.051
  0
VERTEX
  8
7
  10
97.599
  20
-62.152
  0
VERTEX
  8
7
  10
97.650
  20
-62.254
  0
VERTEX
  8
7
  10
97.701
  20
-62.356
  0
VERTEX
  8
7
  10
97.752
  20
-62.432
  0
VERTEX
  8
7
  10
97.803
  20
-62.483
  0
VERTEX
  8
7
  10
97.879
  20
-62.534
  0
VERTEX
  8
7
  10
97.955
  20
-62.584
  0
VERTEX
  8
7
  10
98.057
  20
-62.635
  0
VERTEX
  8
7
  10
98.158
  20
-62.661
  0
VERTEX
  8
7
  10
98.260
  20
-62.661
  0
VERTEX
  8
7
  10
98.412
  20
-62.635
  0
VERTEX
  8
7
  10
98.539
  20
-62.610
  0
VERTEX
  8
7
  10
98.667
  20
-62.534
  0
VERTEX
  8
7
  10
98.794
  20
-62.457
  0
VERTEX
  8
7
  10
98.895
  20
-62.356
  0
VERTEX
  8
7
  10
98.946
  20
-62.229
  0
VERTEX
  8
7
  10
98.997
  20
-62.076
  0
VERTEX
  8
7
  10
99.022
  20
-61.898
  0
VERTEX
  8
7
  10
99.022
  20
-60.856
  0
VERTEX
  8
7
  10
99.022
  20
-60.729
  0
VERTEX
  8
7
  10
98.997
  20
-60.602
  0
VERTEX
  8
7
  10
98.946
  20
-60.475
  0
VERTEX
  8
7
  10
98.921
  20
-60.374
  0
VERTEX
  8
7
  10
98.870
  20
-60.272
  0
VERTEX
  8
7
  10
98.819
  20
-60.196
  0
VERTEX
  8
7
  10
98.743
  20
-60.145
  0
VERTEX
  8
7
  10
98.667
  20
-60.094
  0
VERTEX
  8
7
  10
98.565
  20
-60.043
  0
VERTEX
  8
7
  10
98.463
  20
-60.018
  0
VERTEX
  8
7
  10
98.362
  20
-59.993
  0
VERTEX
  8
7
  10
98.260
  20
-59.993
  0
VERTEX
  8
7
  10
97.955
  20
-60.069
  0
VERTEX
  8
7
  10
97.726
  20
-60.247
  0
VERTEX
  8
7
  10
97.599
  20
-60.501
  0
VERTEX
  8
7
  10
97.548
  20
-60.882
  0
SEQEND
  0
POLYLINE
  8
7
  6
CONTINUOUS
 66
  1
  0
VERTEX
  8
7
  10
99.607
  20
-60.780
  0
VERTEX
  8
7
  10
99.607
  20
-60.628
  0
VERTEX
  8
7
  10
99.658
  20
-60.475
  0
VERTEX
  8
7
  10
99.683
  20
-60.323
  0
VERTEX
  8
7
  10
99.759
  20
-60.196
  0
VERTEX
  8
7
  10
99.835
  20
-60.069
  0
VERTEX
  8
7
  10
99.937
  20
-59.967
  0
VERTEX
  8
7
  10
100.039
  20
-59.891
  0
VERTEX
  8
7
  10
100.140
  20
-59.815
  0
VERTEX
  8
7
  10
100.267
  20
-59.764
  0
VERTEX
  8
7
  10
100.394
  20
-59.713
  0
VERTEX
  8
7
  10
100.521
  20
-59.688
  0
VERTEX
  8
7
  10
100.649
  20
-59.688
  0
VERTEX
  8
7
  10
100.750
  20
-59.688
  0
VERTEX
  8
7
  10
100.877
  20
-59.713
  0
VERTEX
  8
7
  10
100.979
  20
-59.738
  0
VERTEX
  8
7
  10
101.055
  20
-59.764
  0
VERTEX
  8
7
  10
101.157
  20
-59.815
  0
VERTEX
  8
7
  10
101.233
  20
-59.865
  0
VERTEX
  8
7
  10
101.309
  20
-59.916
  0
VERTEX
  8
7
  10
101.385
  20
-59.993
  0
VERTEX
  8
7
  10
101.462
  20
-60.069
  0
VERTEX
  8
7
  10
101.512
  20
-60.170
  0
VERTEX
  8
7
  10
101.563
  20
-60.247
  0
VERTEX
  8
7
  10
101.614
  20
-60.348
  0
VERTEX
  8
7
  10
101.640
  20
-60.450
  0
VERTEX
  8
7
  10
101.665
  20
-60.577
  0
VERTEX
  8
7
  10
101.690
  20
-60.679
  0
VERTEX
  8
7
  10
101.690
  20
-60.806
  0
VERTEX
  8
7
  10
101.690
  20
-61.898
  0
VERTEX
  8
7
  10
101.690
  20
-62.000
  0
VERTEX
  8
7
  10
101.665
  20
-62.127
  0
VERTEX
  8
7
  10
101.640
  20
-62.229
  0
VERTEX
  8
7
  10
101.589
  20
-62.356
  0
VERTEX
  8
7
  10
101.538
  20
-62.457
  0
VERTEX
  8
7
  10
101.487
  20
-62.534
  0
VERTEX
  8
7
  10
101.436
  20
-62.610
  0
VERTEX
  8
7
  10
101.360
  20
-62.686
  0
VERTEX
  8
7
  10
101.284
  20
-62.737
  0
VERTEX
  8
7
  10
101.208
  20
-62.788
  0
VERTEX
  8
7
  10
101.106
  20
-62.838
  0
VERTEX
  8
7
  10
101.030
  20
-62.864
  0
VERTEX
  8
7
  10
100.928
  20
-62.864
  0
VERTEX
  8
7
  10
100.852
  20
-62.864
  0
VERTEX
  8
7
  10
100.750
  20
-62.889
  0
VERTEX
  8
7
  10
100.649
  20
-62.889
  0
VERTEX
  8
7
  10
100.547
  20
-62.889
  0
VERTEX
  8
7
  10
100.420
  20
-62.864
  0
VERTEX
  8
7
  10
100.318
  20
-62.864
  0
VERTEX
  8
7
  10
100.217
  20
-62.864
  0
VERTEX
  8
7
  10
100.115
  20
-62.813
  0
VERTEX
  8
7
  10
100.039
  20
-62.762
  0
VERTEX
  8
7
  10
99.962
  20
-62.711
  0
VERTEX
  8
7
  10
99.886
  20
-62.635
  0
VERTEX
  8
7
  10
99.835
  20
-62.559
  0
VERTEX
  8
7
  10
99.785
  20
-62.457
  0
VERTEX
  8
7
  10
99.734
  20
-62.381
  0
VERTEX
  8
7
  10
99.683
  20
-62.279
  0
VERTEX
  8
7
  10
99.658
  20
-62.178
  0
VERTEX
  8
7
  10
99.632
  20
-62.076
  0
VERTEX
  8
7
  10
99.607
  20
-61.974
  0
VERTEX
  8
7
  10
99.607
  20
-61.873
  0
VERTEX
  8
7
  10
99.607
  20
-60.780
  0
SEQEND
  0
POLYLINE
  8
7
  6
CONTINUOUS
 66
  1
  0
VERTEX
  8
7
  10
99.912
  20
-60.882
  0
VERTEX
  8
7
  10
99.912
  20
-61.797
  0
VERTEX
  8
7
  10
99.912
  20
-61.924
  0
VERTEX
  8
7
  10
99.937
  20
-62.051
  0
VERTEX
  8
7
  10
99.962
  20
-62.152
  0
VERTEX
  8
7
  10
100.013
  20
-62.254
  0
VERTEX
  8
7
  10
100.064
  20
-62.356
  0
VERTEX
  8
7
  10
100.115
  20
-62.432
  0
VERTEX
  8
7
  10
100.191
  20
-62.483
  0
VERTEX
  8
7
  10
100.267
  20
-62.534
  0
VERTEX
  8
7
  10
100.344
  20
-62.584
  0
VERTEX
  8
7
  10
100.445
  20
-62.635
  0
VERTEX
  8
7
  10
100.547
  20
-62.661
  0
VERTEX
  8
7
  10
100.649
  20
-62.661
  0
VERTEX
  8
7
  10
100.801
  20
-62.635
  0
VERTEX
  8
7
  10
100.928
  20
-62.610
  0
VERTEX
  8
7
  10
101.055
  20
-62.534
  0
VERTEX
  8
7
  10
101.157
  20
-62.457
  0
VERTEX
  8
7
  10
101.258
  20
-62.356
  0
VERTEX
  8
7
  10
101.309
  20
-62.229
  0
VERTEX
  8
7
  10
101.360
  20
-62.076
  0
VERTEX
  8
7
  10
101.385
  20
-61.898
  0
VERTEX
  8
7
  10
101.385
  20
-60.856
  0
VERTEX
  8
7
  10
101.385
  20
-60.729
  0
VERTEX
  8
7
  10
101.360
  20
-60.602
  0
VERTEX
  8
7
  10
101.309
  20
-60.475
  0
VERTEX
  8
7
  10
101.284
  20
-60.374
  0
VERTEX
  8
7
  10
101.233
  20
-60.272
  0
VERTEX
  8
7
  10
101.182
  20
-60.196
  0
VERTEX
  8
7
  10
101.106
  20
-60.145
  0
VERTEX
  8
7
  10
101.030
  20
-60.094
  0
VERTEX
  8
7
  10
100.953
  20
-60.043
  0
VERTEX
  8
7
  10
100.852
  20
-60.018
  0
VERTEX
  8
7
  10
100.750
  20
-59.993
  0
VERTEX
  8
7
  10
100.649
  20
-59.993
  0
VERTEX
  8
7
  10
100.318
  20
-60.069
  0
VERTEX
  8
7
  10
100.089
  20
-60.247
  0
VERTEX
  8
7
  10
99.962
  20
-60.501
  0
VERTEX
  8
7
  10
99.912
  20
-60.882
  0
SEQEND
  0
POLYLINE
  8
7
  6
CONTINUOUS
 66
  1
  0
VERTEX
  8
7
  10
103.469
  20
-62.864
  0
VERTEX
  8
7
  10
103.469
  20
-60.856
  0
VERTEX
  8
7
  10
103.113
  20
-60.856
  0
VERTEX
  8
7
  10
103.113
  20
-60.552
  0
VERTEX
  8
7
  10
103.469
  20
-60.552
  0
VERTEX
  8
7
  10
103.494
  20
-60.374
  0
VERTEX
  8
7
  10
103.520
  20
-60.196
  0
VERTEX
  8
7
  10
103.596
  20
-60.069
  0
VERTEX
  8
7
  10
103.698
  20
-59.942
  0
VERTEX
  8
7
  10
103.825
  20
-59.865
  0
VERTEX
  8
7
  10
103.952
  20
-59.789
  0
VERTEX
  8
7
  10
104.130
  20
-59.764
  0
VERTEX
  8
7
  10
104.333
  20
-59.738
  0
VERTEX
  8
7
  10
104.333
  20
-60.018
  0
VERTEX
  8
7
  10
104.231
  20
-60.018
  0
VERTEX
  8
7
  10
104.130
  20
-60.043
  0
VERTEX
  8
7
  10
104.028
  20
-60.094
  0
VERTEX
  8
7
  10
103.926
  20
-60.145
  0
VERTEX
  8
7
  10
103.850
  20
-60.196
  0
VERTEX
  8
7
  10
103.825
  20
-60.297
  0
VERTEX
  8
7
  10
103.774
  20
-60.399
  0
VERTEX
  8
7
  10
103.774
  20
-60.526
  0
VERTEX
  8
7
  10
103.774
  20
-60.526
  0
VERTEX
  8
7
  10
103.774
  20
-60.526
  0
VERTEX
  8
7
  10
103.774
  20
-60.552
  0
VERTEX
  8
7
  10
103.774
  20
-60.552
  0
VERTEX
  8
7
  10
104.333
  20
-60.552
  0
VERTEX
  8
7
  10
104.333
  20
-60.856
  0
VERTEX
  8
7
  10
103.774
  20
-60.856
  0
VERTEX
  8
7
  10
103.774
  20
-62.864
  0
VERTEX
  8
7
  10
103.469
  20
-62.864
  0
SEQEND
  0
POLYLINE
  8
7
  6
CONTINUOUS
 66
  1
  0
VERTEX
  8
7
  10
104.892
  20
-62.864
  0
VERTEX
  8
7
  10
104.892
  20
-60.831
  0
VERTEX
  8
7
  10
104.409
  20
-60.831
  0
VERTEX
  8
7
  10
104.409
  20
-60.552
  0
VERTEX
  8
7
  10
104.892
  20
-60.552
  0
VERTEX
  8
7
  10
104.892
  20
-59.738
  0
VERTEX
  8
7
  10
105.197
  20
-59.738
  0
VERTEX
  8
7
  10
105.197
  20
-60.552
  0
VERTEX
  8
7
  10
105.756
  20
-60.552
  0
VERTEX
  8
7
  10
105.756
  20
-60.831
  0
VERTEX
  8
7
  10
105.197
  20
-60.831
  0
VERTEX
  8
7
  10
105.197
  20
-62.864
  0
VERTEX
  8
7
  10
104.892
  20
-62.864
  0
SEQEND
  0
POLYLINE
  8
7
  6
CONTINUOUS
 66
  1
  0
VERTEX
  8
7
  10
106.239
  20
-62.864
  0
VERTEX
  8
7
  10
106.239
  20
-62.330
  0
VERTEX
  8
7
  10
106.569
  20
-62.330
  0
VERTEX
  8
7
  10
106.569
  20
-62.864
  0
VERTEX
  8
7
  10
106.239
  20
-62.864
  0
SEQEND
  0
POLYLINE
  8
6
  6
CONTINUOUS
 66
  1
  0
VERTEX
  8
6
  10
-51.074
  20
-3.709
  0
VERTEX
  8
6
  10
-40.528
  20
-14.331
  0
VERTEX
  8
6
  10
-20.302
  20
-22.716
  0
VERTEX
  8
6
  10
-24.088
  20
-28.255
  0
VERTEX
  8
6
  10
-20.429
  20
-35.142
  0
VERTEX
  8
6
  10
-20.429
  20
-38.064
  0
VERTEX
  8
6
  10
-20.531
  20
-40.376
  0
VERTEX
  8
6
  10
-23.453
  20
-44.340
  0
VERTEX
  8
6
  10
-20.505
  20
-48.863
  0
VERTEX
  8
6
  10
-20.759
  20
-56.283
  0
VERTEX
  8
6
  10
-25.943
  20
-56.613
  0
VERTEX
  8
6
  10
-26.248
  20
-62.305
  0
VERTEX
  8
6
  10
-30.593
  20
-62.203
  0
VERTEX
  8
6
  10
-32.473
  20
-66.167
  0
VERTEX
  8
6
  10
-26.426
  20
-72.748
  0
VERTEX
  8
6
  10
-18.269
  20
-68.632
  0
VERTEX
  8
6
  10
-2.159
  20
-68.657
  0
VERTEX
  8
6
  10
10.468
  20
-62.457
  0
VERTEX
  8
6
  10
20.251
  20
-62.203
  0
VERTEX
  8
6
  10
27.087
  20
-73.129
  0
VERTEX
  8
6
  10
33.261
  20
-68.378
  0
VERTEX
  8
6
  10
40.224
  20
-68.454
  0
VERTEX
  8
6
  10
53.183
  20
-65.024
  0
VERTEX
  8
6
  10
57.197
  20
-60.043
  0
VERTEX
  8
6
  10
64.566
  20
-50.870
  0
VERTEX
  8
6
  10
67.311
  20
-47.465
  0
VERTEX
  8
6
  10
71.884
  20
-47.567
  0
VERTEX
  8
6
  10
73.333
  20
-44.264
  0
VERTEX
  8
6
  10
69.521
  20
-40.655
  0
VERTEX
  8
6
  10
68.886
  20
-33.261
  0
VERTEX
  8
6
  10
82.709
  20
-29.196
  0
VERTEX
  8
6
  10
87.334
  20
-23.656
  0
VERTEX
  8
6
  10
74.578
  20
-9.173
  0
VERTEX
  8
6
  10
56.943
  20
-8.995
  0
VERTEX
  8
6
  10
52.217
  20
-11.282
  0
VERTEX
  8
6
  10
39.817
  20
-12.044
  0
VERTEX
  8
6
  10
33.846
  20
-11.942
  0
VERTEX
  8
6
  10
30.695
  20
-11.409
  0
VERTEX
  8
6
  10
30.542
  20
-6.174
  0
VERTEX
  8
6
  10
33.160
  20
-5.666
  0
VERTEX
  8
6
  10
33.973
  20
4.116
  0
VERTEX
  8
6
  10
26.832
  20
10.494
  0
VERTEX
  8
6
  10
36.387
  20
19.641
  0
VERTEX
  8
6
  10
36.615
  20
27.036
  0
VERTEX
  8
6
  10
57.502
  20
27.188
  0
VERTEX
  8
6
  10
74.527
  20
32.829
  0
VERTEX
  8
6
  10
68.276
  20
38.775
  0
VERTEX
  8
6
  10
54.123
  20
39.512
  0
VERTEX
  8
6
  10
54.631
  20
44.950
  0
VERTEX
  8
6
  10
36.564
  20
45.585
  0
VERTEX
  8
6
  10
30.644
  20
47.821
  0
VERTEX
  8
6
  10
26.146
  20
44.645
  0
VERTEX
  8
6
  10
18.981
  20
44.670
  0
VERTEX
  8
6
  10
1.575
  20
54.224
  0
VERTEX
  8
6
  10
-2.540
  20
60.450
  0
VERTEX
  8
6
  10
-8.359
  20
60.323
  0
VERTEX
  8
6
  10
-7.953
  20
52.929
  0
VERTEX
  8
6
  10
0.609
  20
40.503
  0
VERTEX
  8
6
  10
0.940
  20
35.929
  0
VERTEX
  8
6
  10
-13.162
  20
35.574
  0
VERTEX
  8
6
  10
-16.186
  20
26.578
  0
VERTEX
  8
6
  10
-23.631
  20
20.073
  0
VERTEX
  8
6
  10
-34.354
  20
13.899
  0
VERTEX
  8
6
  10
-40.147
  20
18.091
  0
VERTEX
  8
6
  10
-51.302
  20
12.171
  0
VERTEX
  8
6
  10
-55.088
  20
17.278
  0
VERTEX
  8
6
  10
-68.022
  20
12.247
  0
VERTEX
  8
6
  10
-77.525
  20
9.960
  0
VERTEX
  8
6
  10
-78.135
  20
8.436
  0
VERTEX
  8
6
  10
-76.585
  20
6.504
  0
VERTEX
  8
6
  10
-58.087
  20
-2.388
  0
VERTEX
  8
6
  10
-51.074
  20
-3.709
  0
SEQEND
  0
POLYLINE
  8
3
  6
CONTINUOUS
 66
  1
  0
VERTEX
  8
3
  10
98.616
  20
2.769
  0
VERTEX
  8
3
  10
105.858
  20
2.769
  0
SEQEND
  0
POLYLINE
  8
3
  6
CONTINUOUS
 66
  1
  0
VERTEX
  8
3
  10
39.639
  20
-12.069
  0
VERTEX
  8
3
  10
54.326
  20
-30.390
  0
VERTEX
  8
3
  10
54.224
  20
-36.260
  0
VERTEX
  8
3
  10
67.133
  20
-47.465
  0
SEQEND
  0
POLYLINE
  8
3
  6
CONTINUOUS
 66
  1
  0
VERTEX
  8
3
  10
-68.200
  20
12.247
  0
VERTEX
  8
3
  10
-54.860
  20
3.354
  0
VERTEX
  8
3
  10
-39.944
  20
-3.227
  0
VERTEX
  8
3
  10
-29.653
  20
-5.996
  0
VERTEX
  8
3
  10
30.390
  20
-6.174
  0
SEQEND
  0
POLYLINE
  8
3
  6
CONTINUOUS
 66
  1
  0
VERTEX
  8
3
  10
30.390
  20
-6.174
  0
VERTEX
  8
3
  10
33.007
  20
-5.666
  0
VERTEX
  8
3
  10
33.846
  20
4.141
  0
VERTEX
  8
3
  10
26.705
  20
10.519
  0
VERTEX
  8
3
  10
36.260
  20
19.667
  0
VERTEX
  8
3
  10
36.488
  20
27.061
  0
VERTEX
  8
3
  10
57.350
  20
27.188
  0
VERTEX
  8
3
  10
74.375
  20
32.829
  0
VERTEX
  8
3
  10
68.124
  20
38.775
  0
VERTEX
  8
3
  10
53.970
  20
39.512
  0
VERTEX
  8
3
  10
54.479
  20
44.950
  0
VERTEX
  8
3
  10
36.437
  20
45.610
  0
VERTEX
  8
3
  10
30.517
  20
47.847
  0
VERTEX
  8
3
  10
26.019
  20
44.670
  0
VERTEX
  8
3
  10
18.854
  20
44.696
  0
VERTEX
  8
3
  10
1.422
  20
54.250
  0
VERTEX
  8
3
  10
-2.668
  20
60.475
  0
VERTEX
  8
3
  10
-8.512
  20
60.323
  0
VERTEX
  8
3
  10
-8.105
  20
52.929
  0
VERTEX
  8
3
  10
0.482
  20
40.528
  0
VERTEX
  8
3
  10
0.813
  20
35.955
  0
VERTEX
  8
3
  10
-13.314
  20
35.574
  0
VERTEX
  8
3
  10
-16.364
  20
26.578
  0
VERTEX
  8
3
  10
-23.783
  20
20.073
  0
VERTEX
  8
3
  10
-34.506
  20
13.899
  0
VERTEX
  8
3
  10
-40.300
  20
18.091
  0
VERTEX
  8
3
  10
-51.455
  20
12.171
  0
VERTEX
  8
3
  10
-55.241
  20
17.278
  0
VERTEX
  8
3
  10
-68.200
  20
12.247
  0
SEQEND
  0
POLYLINE
  8
3
  6
CONTINUOUS
 66
  1
  0
VERTEX
  8
3
  10
67.133
  20
-47.465
  0
VERTEX
  8
3
  10
71.732
  20
-47.567
  0
VERTEX
  8
3
  10
73.155
  20
-44.264
  0
VERTEX
  8
3
  10
69.369
  20
-40.655
  0
VERTEX
  8
3
  10
68.734
  20
-33.261
  0
VERTEX
  8
3
  10
82.557
  20
-29.196
  0
VERTEX
  8
3
  10
87.181
  20
-23.656
  0
VERTEX
  8
3
  10
74.375
  20
-9.198
  0
VERTEX
  8
3
  10
56.765
  20
-9.020
  0
VERTEX
  8
3
  10
52.014
  20
-11.307
  0
VERTEX
  8
3
  10
39.639
  20
-12.069
  0
SEQEND
  0
POLYLINE
  8
5
  6
CONTINUOUS
 66
  1
  0
VERTEX
  8
5
  10
98.616
  20
6.403
  0
VERTEX
  8
5
  10
105.858
  20
6.403
  0
SEQEND
  0
POLYLINE
  8
5
  6
CONTINUOUS
 66
  1
  0
VERTEX
  8
5
  10
-20.480
  20
-38.064
  0
VERTEX
  8
5
  10
-13.035
  20
-44.747
  0
VERTEX
  8
5
  10
-2.540
  20
-47.745
  0
VERTEX
  8
5
  10
4.777
  20
-53.640
  0
VERTEX
  8
5
  10
10.036
  20
-53.945
  0
VERTEX
  8
5
  10
20.988
  20
-57.147
  0
VERTEX
  8
5
  10
43.628
  20
-57.197
  0
VERTEX
  8
5
  10
57.172
  20
-60.018
  0
SEQEND
  0
POLYLINE
  8
5
  6
CONTINUOUS
 66
  1
  0
VERTEX
  8
5
  10
33.820
  20
-11.942
  0
VERTEX
  8
5
  10
42.053
  20
-23.961
  0
VERTEX
  8
5
  10
42.358
  20
-26.782
  0
VERTEX
  8
5
  10
48.583
  20
-32.270
  0
VERTEX
  8
5
  10
49.092
  20
-35.091
  0
VERTEX
  8
5
  10
64.541
  20
-50.845
  0
SEQEND
  0
POLYLINE
  8
5
  6
CONTINUOUS
 66
  1
  0
VERTEX
  8
5
  10
-77.551
  20
9.986
  0
VERTEX
  8
5
  10
-61.746
  20
4.268
  0
VERTEX
  8
5
  10
-32.931
  20
-8.664
  0
VERTEX
  8
5
  10
2.769
  20
-9.274
  0
VERTEX
  8
5
  10
4.345
  20
-11.841
  0
VERTEX
  8
5
  10
30.619
  20
-11.383
  0
SEQEND
  0
POLYLINE
  8
5
  6
CONTINUOUS
 66
  1
  0
VERTEX
  8
5
  10
39.741
  20
-12.069
  0
VERTEX
  8
5
  10
54.428
  20
-30.364
  0
VERTEX
  8
5
  10
54.377
  20
-36.260
  0
VERTEX
  8
5
  10
67.260
  20
-47.465
  0
SEQEND
  0
POLYLINE
  8
5
  6
CONTINUOUS
 66
  1
  0
VERTEX
  8
5
  10
-68.047
  20
12.247
  0
VERTEX
  8
5
  10
-54.733
  20
3.379
  0
VERTEX
  8
5
  10
-39.817
  20
-3.176
  0
VERTEX
  8
5
  10
-29.501
  20
-5.996
  0
VERTEX
  8
5
  10
30.492
  20
-6.174
  0
SEQEND
  0
POLYLINE
  8
5
  6
CONTINUOUS
 66
  1
  0
VERTEX
  8
5
  10
-68.047
  20
12.247
  0
VERTEX
  8
5
  10
-77.551
  20
9.986
  0
SEQEND
  0
POLYLINE
  8
5
  6
CONTINUOUS
 66
  1
  0
VERTEX
  8
5
  10
30.619
  20
-11.383
  0
VERTEX
  8
5
  10
30.492
  20
-6.174
  0
SEQEND
  0
POLYLINE
  8
5
  6
CONTINUOUS
 66
  1
  0
VERTEX
  8
5
  10
39.741
  20
-12.069
  0
VERTEX
  8
5
  10
33.820
  20
-11.942
  0
SEQEND
  0
POLYLINE
  8
5
  6
CONTINUOUS
 66
  1
  0
VERTEX
  8
5
  10
64.541
  20
-50.845
  0
VERTEX
  8
5
  10
67.260
  20
-47.465
  0
SEQEND
  0
POLYLINE
  8
5
  6
CONTINUOUS
 66
  1
  0
VERTEX
  8
5
  10
-20.480
  20
-38.064
  0
VERTEX
  8
5
  10
-20.556
  20
-40.351
  0
VERTEX
  8
5
  10
-23.478
  20
-44.340
  0
VERTEX
  8
5
  10
-20.531
  20
-48.838
  0
VERTEX
  8
5
  10
-20.785
  20
-56.232
  0
VERTEX
  8
5
  10
-25.994
  20
-56.613
  0
VERTEX
  8
5
  10
-26.273
  20
-62.279
  0
VERTEX
  8
5
  10
-30.619
  20
-62.178
  0
VERTEX
  8
5
  10
-32.499
  20
-66.142
  0
VERTEX
  8
5
  10
-26.426
  20
-72.748
  0
VERTEX
  8
5
  10
-18.320
  20
-68.606
  0
VERTEX
  8
5
  10
-2.210
  20
-68.657
  0
VERTEX
  8
5
  10
10.443
  20
-62.406
  0
VERTEX
  8
5
  10
20.226
  20
-62.152
  0
VERTEX
  8
5
  10
27.061
  20
-73.104
  0
VERTEX
  8
5
  10
33.236
  20
-68.352
  0
VERTEX
  8
5
  10
40.198
  20
-68.403
  0
VERTEX
  8
5
  10
53.157
  20
-65.024
  0
VERTEX
  8
5
  10
57.172
  20
-60.018
  0
SEQEND
  0
POLYLINE
  8
4
  6
CONTINUOUS
 66
  1
  0
VERTEX
  8
4
  10
98.616
  20
10.468
  0
VERTEX
  8
4
  10
105.858
  20
10.468
  0
SEQEND
  0
POLYLINE
  8
4
  6
CONTINUOUS
 66
  1
  0
VERTEX
  8
4
  10
-20.480
  20
-38.064
  0
VERTEX
  8
4
  10
-13.035
  20
-44.747
  0
VERTEX
  8
4
  10
-2.540
  20
-47.745
  0
VERTEX
  8
4
  10
4.777
  20
-53.640
  0
VERTEX
  8
4
  10
10.036
  20
-53.945
  0
VERTEX
  8
4
  10
20.988
  20
-57.147
  0
VERTEX
  8
4
  10
43.628
  20
-57.197
  0
VERTEX
  8
4
  10
57.172
  20
-60.018
  0
SEQEND
  0
POLYLINE
  8
4
  6
CONTINUOUS
 66
  1
  0
VERTEX
  8
4
  10
33.820
  20
-11.942
  0
VERTEX
  8
4
  10
42.053
  20
-23.961
  0
VERTEX
  8
4
  10
42.358
  20
-26.782
  0
VERTEX
  8
4
  10
48.583
  20
-32.270
  0
VERTEX
  8
4
  10
49.092
  20
-35.091
  0
VERTEX
  8
4
  10
64.541
  20
-50.845
  0
SEQEND
  0
POLYLINE
  8
4
  6
CONTINUOUS
 66
  1
  0
VERTEX
  8
4
  10
-77.551
  20
9.986
  0
VERTEX
  8
4
  10
-61.746
  20
4.268
  0
VERTEX
  8
4
  10
-32.931
  20
-8.664
  0
VERTEX
  8
4
  10
2.769
  20
-9.274
  0
VERTEX
  8
4
  10
4.345
  20
-11.841
  0
VERTEX
  8
4
  10
30.619
  20
-11.383
  0
SEQEND
  0
POLYLINE
  8
4
  6
CONTINUOUS
 66
  1
  0
VERTEX
  8
4
  10
33.820
  20
-11.942
  0
VERTEX
  8
4
  10
30.619
  20
-11.383
  0
SEQEND
  0
POLYLINE
  8
4
  6
CONTINUOUS
 66
  1
  0
VERTEX
  8
4
  10
57.172
  20
-60.018
  0
VERTEX
  8
4
  10
64.541
  20
-50.845
  0
SEQEND
  0
POLYLINE
  8
4
  6
CONTINUOUS
 66
  1
  0
VERTEX
  8
4
  10
-77.551
  20
9.986
  0
VERTEX
  8
4
  10
-78.161
  20
8.486
  0
VERTEX
  8
4
  10
-76.611
  20
6.504
  0
VERTEX
  8
4
  10
-58.112
  20
-2.337
  0
VERTEX
  8
4
  10
-51.124
  20
-3.709
  0
VERTEX
  8
4
  10
-40.579
  20
-14.331
  0
VERTEX
  8
4
  10
-20.378
  20
-22.767
  0
VERTEX
  8
4
  10
-24.164
  20
-28.255
  0
VERTEX
  8
4
  10
-20.505
  20
-35.142
  0
VERTEX
  8
4
  10
-20.480
  20
-38.064
  0
SEQEND
  0
POLYLINE
  8
7
  6
CONTINUOUS
 66
  1
  0
VERTEX
  8
7
  10
-77.475
  20
7.470
  0
VERTEX
  8
7
  10
-30.746
  20
-10.468
  0
VERTEX
  8
7
  10
-11.942
  20
-13.670
  0
VERTEX
  8
7
  10
2.769
  20
-22.233
  0
VERTEX
  8
7
  10
14.509
  20
-22.233
  0
VERTEX
  8
7
  10
18.346
  20
-19.438
  0
VERTEX
  8
7
  10
25.816
  20
-19.667
  0
VERTEX
  8
7
  10
55.266
  20
-36.971
  0
VERTEX
  8
7
  10
69.140
  20
-36.971
  0
SEQEND
  0
POLYLINE
  8
7
  6
CONTINUOUS
 66
  1
  0
VERTEX
  8
7
  10
85.580
  20
47.872
  0
VERTEX
  8
7
  10
92.822
  20
47.872
  0
SEQEND
  0
POLYLINE
  8
7
  6
CONTINUOUS
 66
  1
  0
VERTEX
  8
7
  10
16.364
  20
-21.725
  0
VERTEX
  8
7
  10
17.736
  20
-21.725
  0
VERTEX
  8
7
  10
17.736
  20
-23.097
  0
VERTEX
  8
7
  10
16.364
  20
-23.097
  0
VERTEX
  8
7
  10
16.364
  20
-21.725
  0
SEQEND
  0
POLYLINE
  8
7
  6
CONTINUOUS
 66
  1
  0
VERTEX
  8
7
  10
17.126
  20
-24.520
  0
VERTEX
  8
7
  10
17.304
  20
-24.546
  0
VERTEX
  8
7
  10
17.456
  20
-24.596
  0
VERTEX
  8
7
  10
17.609
  20
-24.673
  0
VERTEX
  8
7
  10
17.761
  20
-24.774
  0
VERTEX
  8
7
  10
17.863
  20
-24.901
  0
VERTEX
  8
7
  10
17.939
  20
-25.054
  0
VERTEX
  8
7
  10
17.990
  20
-25.232
  0
VERTEX
  8
7
  10
18.015
  20
-25.409
  0
VERTEX
  8
7
  10
17.990
  20
-25.587
  0
VERTEX
  8
7
  10
17.939
  20
-25.765
  0
VERTEX
  8
7
  10
17.863
  20
-25.918
  0
VERTEX
  8
7
  10
17.761
  20
-26.045
  0
VERTEX
  8
7
  10
17.609
  20
-26.146
  0
VERTEX
  8
7
  10
17.456
  20
-26.223
  0
VERTEX
  8
7
  10
17.304
  20
-26.273
  0
VERTEX
  8
7
  10
17.126
  20
-26.299
  0
VERTEX
  8
7
  10
16.948
  20
-26.273
  0
VERTEX
  8
7
  10
16.796
  20
-26.223
  0
VERTEX
  8
7
  10
16.643
  20
-26.146
  0
VERTEX
  8
7
  10
16.491
  20
-26.045
  0
VERTEX
  8
7
  10
16.389
  20
-25.918
  0
VERTEX
  8
7
  10
16.313
  20
-25.765
  0
VERTEX
  8
7
  10
16.262
  20
-25.587
  0
VERTEX
  8
7
  10
16.236
  20
-25.409
  0
VERTEX
  8
7
  10
16.262
  20
-25.232
  0
VERTEX
  8
7
  10
16.313
  20
-25.054
  0
VERTEX
  8
7
  10
16.389
  20
-24.901
  0
VERTEX
  8
7
  10
16.491
  20
-24.774
  0
VERTEX
  8
7
  10
16.643
  20
-24.673
  0
VERTEX
  8
7
  10
16.796
  20
-24.596
  0
VERTEX
  8
7
  10
16.948
  20
-24.546
  0
VERTEX
  8
7
  10
17.126
  20
-24.520
  0
SEQEND
  0
POLYLINE
  8
7
  6
CONTINUOUS
 66
  1
  0
VERTEX
  8
7
  10
92.365
  20
43.832
  0
VERTEX
  8
7
  10
93.737
  20
43.832
  0
VERTEX
  8
7
  10
93.737
  20
42.460
  0
VERTEX
  8
7
  10
92.365
  20
42.460
  0
VERTEX
  8
7
  10
92.365
  20
43.832
  0
SEQEND
  0
POLYLINE
  8
7
  6
CONTINUOUS
 66
  1
  0
VERTEX
  8
7
  10
25.282
  20
-24.723
  0
VERTEX
  8
7
  10
26.604
  20
-24.723
  0
VERTEX
  8
7
  10
26.604
  20
-26.045
  0
VERTEX
  8
7
  10
25.282
  20
-26.045
  0
VERTEX
  8
7
  10
25.282
  20
-24.723
  0
SEQEND
  0
POLYLINE
  8
7
  6
CONTINUOUS
 66
  1
  0
VERTEX
  8
7
  10
16.440
  20
-30.695
  0
VERTEX
  8
7
  10
17.812
  20
-30.695
  0
VERTEX
  8
7
  10
17.812
  20
-32.067
  0
VERTEX
  8
7
  10
16.440
  20
-32.067
  0
VERTEX
  8
7
  10
16.440
  20
-30.695
  0
SEQEND
  0
POLYLINE
  8
7
  6
CONTINUOUS
 66
  1
  0
VERTEX
  8
7
  10
93.127
  20
39.563
  0
VERTEX
  8
7
  10
93.305
  20
39.537
  0
VERTEX
  8
7
  10
93.457
  20
39.487
  0
VERTEX
  8
7
  10
93.610
  20
39.410
  0
VERTEX
  8
7
  10
93.762
  20
39.309
  0
VERTEX
  8
7
  10
93.864
  20
39.182
  0
VERTEX
  8
7
  10
93.940
  20
39.029
  0
VERTEX
  8
7
  10
93.991
  20
38.851
  0
VERTEX
  8
7
  10
94.017
  20
38.674
  0
VERTEX
  8
7
  10
93.991
  20
38.496
  0
VERTEX
  8
7
  10
93.940
  20
38.318
  0
VERTEX
  8
7
  10
93.864
  20
38.165
  0
VERTEX
  8
7
  10
93.762
  20
38.038
  0
VERTEX
  8
7
  10
93.610
  20
37.937
  0
VERTEX
  8
7
  10
93.457
  20
37.860
  0
VERTEX
  8
7
  10
93.305
  20
37.810
  0
VERTEX
  8
7
  10
93.127
  20
37.784
  0
VERTEX
  8
7
  10
92.949
  20
37.810
  0
VERTEX
  8
7
  10
92.797
  20
37.860
  0
VERTEX
  8
7
  10
92.644
  20
37.937
  0
VERTEX
  8
7
  10
92.492
  20
38.038
  0
VERTEX
  8
7
  10
92.390
  20
38.165
  0
VERTEX
  8
7
  10
92.314
  20
38.318
  0
VERTEX
  8
7
  10
92.263
  20
38.496
  0
VERTEX
  8
7
  10
92.238
  20
38.674
  0
VERTEX
  8
7
  10
92.263
  20
38.851
  0
VERTEX
  8
7
  10
92.314
  20
39.029
  0
VERTEX
  8
7
  10
92.390
  20
39.182
  0
VERTEX
  8
7
  10
92.492
  20
39.309
  0
VERTEX
  8
7
  10
92.644
  20
39.410
  0
VERTEX
  8
7
  10
92.797
  20
39.487
  0
VERTEX
  8
7
  10
92.949
  20
39.537
  0
VERTEX
  8
7
  10
93.127
  20
39.563
  0
SEQEND
  0
POLYLINE
  8
7
  6
CONTINUOUS
 66
  1
  0
VERTEX
  8
7
  10
96.126
  20
45.941
  0
VERTEX
  8
7
  10
96.126
  20
49.066
  0
VERTEX
  8
7
  10
96.964
  20
49.066
  0
VERTEX
  8
7
  10
97.167
  20
49.066
  0
VERTEX
  8
7
  10
97.345
  20
49.041
  0
VERTEX
  8
7
  10
97.498
  20
49.015
  0
VERTEX
  8
7
  10
97.625
  20
48.965
  0
VERTEX
  8
7
  10
97.726
  20
48.914
  0
VERTEX
  8
7
  10
97.853
  20
48.863
  0
VERTEX
  8
7
  10
97.930
  20
48.812
  0
VERTEX
  8
7
  10
98.006
  20
48.736
  0
VERTEX
  8
7
  10
98.082
  20
48.660
  0
VERTEX
  8
7
  10
98.133
  20
48.583
  0
VERTEX
  8
7
  10
98.158
  20
48.507
  0
VERTEX
  8
7
  10
98.184
  20
48.431
  0
VERTEX
  8
7
  10
98.209
  20
48.355
  0
VERTEX
  8
7
  10
98.235
  20
48.279
  0
VERTEX
  8
7
  10
98.260
  20
48.177
  0
VERTEX
  8
7
  10
98.260
  20
48.101
  0
VERTEX
  8
7
  10
98.260
  20
47.974
  0
VERTEX
  8
7
  10
98.235
  20
47.847
  0
VERTEX
  8
7
  10
98.184
  20
47.719
  0
VERTEX
  8
7
  10
98.133
  20
47.592
  0
VERTEX
  8
7
  10
98.082
  20
47.491
  0
VERTEX
  8
7
  10
98.006
  20
47.389
  0
VERTEX
  8
7
  10
97.904
  20
47.313
  0
VERTEX
  8
7
  10
97.803
  20
47.237
  0
VERTEX
  8
7
  10
97.701
  20
47.186
  0
VERTEX
  8
7
  10
97.574
  20
47.135
  0
VERTEX
  8
7
  10
97.447
  20
47.110
  0
VERTEX
  8
7
  10
97.320
  20
47.110
  0
VERTEX
  8
7
  10
98.209
  20
45.941
  0
VERTEX
  8
7
  10
97.828
  20
45.941
  0
VERTEX
  8
7
  10
96.761
  20
47.364
  0
VERTEX
  8
7
  10
97.015
  20
47.364
  0
VERTEX
  8
7
  10
97.142
  20
47.364
  0
VERTEX
  8
7
  10
97.269
  20
47.389
  0
VERTEX
  8
7
  10
97.396
  20
47.415
  0
VERTEX
  8
7
  10
97.498
  20
47.440
  0
VERTEX
  8
7
  10
97.599
  20
47.491
  0
VERTEX
  8
7
  10
97.701
  20
47.542
  0
VERTEX
  8
7
  10
97.777
  20
47.592
  0
VERTEX
  8
7
  10
97.828
  20
47.669
  0
VERTEX
  8
7
  10
97.879
  20
47.770
  0
VERTEX
  8
7
  10
97.930
  20
47.872
  0
VERTEX
  8
7
  10
97.955
  20
47.948
  0
VERTEX
  8
7
  10
97.955
  20
48.050
  0
VERTEX
  8
7
  10
97.955
  20
48.151
  0
VERTEX
  8
7
  10
97.930
  20
48.253
  0
VERTEX
  8
7
  10
97.879
  20
48.355
  0
VERTEX
  8
7
  10
97.828
  20
48.456
  0
VERTEX
  8
7
  10
97.752
  20
48.533
  0
VERTEX
  8
7
  10
97.676
  20
48.583
  0
VERTEX
  8
7
  10
97.599
  20
48.634
  0
VERTEX
  8
7
  10
97.498
  20
48.685
  0
VERTEX
  8
7
  10
97.396
  20
48.736
  0
VERTEX
  8
7
  10
97.294
  20
48.761
  0
VERTEX
  8
7
  10
97.167
  20
48.787
  0
VERTEX
  8
7
  10
97.066
  20
48.787
  0
VERTEX
  8
7
  10
96.456
  20
48.787
  0
VERTEX
  8
7
  10
96.456
  20
45.941
  0
VERTEX
  8
7
  10
96.126
  20
45.941
  0
SEQEND
  0
POLYLINE
  8
7
  6
CONTINUOUS
 66
  1
  0
VERTEX
  8
7
  10
98.641
  20
45.941
  0
VERTEX
  8
7
  10
98.641
  20
48.253
  0
VERTEX
  8
7
  10
98.946
  20
48.253
  0
VERTEX
  8
7
  10
98.946
  20
45.941
  0
VERTEX
  8
7
  10
98.641
  20
45.941
  0
SEQEND
  0
POLYLINE
  8
7
  6
CONTINUOUS
 66
  1
  0
VERTEX
  8
7
  10
98.641
  20
48.533
  0
VERTEX
  8
7
  10
98.641
  20
49.066
  0
VERTEX
  8
7
  10
98.946
  20
49.066
  0
VERTEX
  8
7
  10
98.946
  20
48.533
  0
VERTEX
  8
7
  10
98.641
  20
48.533
  0
SEQEND
  0
POLYLINE
  8
7
  6
CONTINUOUS
 66
  1
  0
VERTEX
  8
7
  10
100.217
  20
45.941
  0
VERTEX
  8
7
  10
99.251
  20
48.253
  0
VERTEX
  8
7
  10
99.581
  20
48.253
  0
VERTEX
  8
7
  10
100.394
  20
46.322
  0
VERTEX
  8
7
  10
101.182
  20
48.253
  0
VERTEX
  8
7
  10
101.538
  20
48.253
  0
VERTEX
  8
7
  10
100.547
  20
45.941
  0
VERTEX
  8
7
  10
100.217
  20
45.941
  0
SEQEND
  0
POLYLINE
  8
7
  6
CONTINUOUS
 66
  1
  0
VERTEX
  8
7
  10
101.767
  20
47.110
  0
VERTEX
  8
7
  10
101.767
  20
47.237
  0
VERTEX
  8
7
  10
101.792
  20
47.364
  0
VERTEX
  8
7
  10
101.817
  20
47.491
  0
VERTEX
  8
7
  10
101.868
  20
47.618
  0
VERTEX
  8
7
  10
101.919
  20
47.719
  0
VERTEX
  8
7
  10
101.995
  20
47.796
  0
VERTEX
  8
7
  10
102.071
  20
47.897
  0
VERTEX
  8
7
  10
102.148
  20
47.974
  0
VERTEX
  8
7
  10
102.224
  20
48.050
  0
VERTEX
  8
7
  10
102.326
  20
48.126
  0
VERTEX
  8
7
  10
102.427
  20
48.177
  0
VERTEX
  8
7
  10
102.529
  20
48.228
  0
VERTEX
  8
7
  10
102.630
  20
48.253
  0
VERTEX
  8
7
  10
102.732
  20
48.279
  0
VERTEX
  8
7
  10
102.859
  20
48.304
  0
VERTEX
  8
7
  10
102.961
  20
48.304
  0
VERTEX
  8
7
  10
103.113
  20
48.304
  0
VERTEX
  8
7
  10
103.266
  20
48.279
  0
VERTEX
  8
7
  10
103.393
  20
48.228
  0
VERTEX
  8
7
  10
103.545
  20
48.177
  0
VERTEX
  8
7
  10
103.672
  20
48.101
  0
VERTEX
  8
7
  10
103.799
  20
47.999
  0
VERTEX
  8
7
  10
103.901
  20
47.872
  0
VERTEX
  8
7
  10
104.003
  20
47.719
  0
VERTEX
  8
7
  10
104.079
  20
47.567
  0
VERTEX
  8
7
  10
104.130
  20
47.415
  0
VERTEX
  8
7
  10
104.155
  20
47.237
  0
VERTEX
  8
7
  10
104.181
  20
47.033
  0
VERTEX
  8
7
  10
104.181
  20
46.983
  0
VERTEX
  8
7
  10
102.071
  20
46.983
  0
VERTEX
  8
7
  10
102.097
  20
46.856
  0
VERTEX
  8
7
  10
102.122
  20
46.728
  0
VERTEX
  8
7
  10
102.173
  20
46.627
  0
VERTEX
  8
7
  10
102.224
  20
46.551
  0
VERTEX
  8
7
  10
102.300
  20
46.449
  0
VERTEX
  8
7
  10
102.376
  20
46.373
  0
VERTEX
  8
7
  10
102.453
  20
46.322
  0
VERTEX
  8
7
  10
102.554
  20
46.271
  0
VERTEX
  8
7
  10
102.656
  20
46.246
  0
VERTEX
  8
7
  10
102.758
  20
46.195
  0
VERTEX
  8
7
  10
102.859
  20
46.169
  0
VERTEX
  8
7
  10
102.961
  20
46.169
  0
VERTEX
  8
7
  10
103.037
  20
46.169
  0
VERTEX
  8
7
  10
103.139
  20
46.195
  0
VERTEX
  8
7
  10
103.215
  20
46.220
  0
VERTEX
  8
7
  10
103.291
  20
46.246
  0
VERTEX
  8
7
  10
103.393
  20
46.297
  0
VERTEX
  8
7
  10
103.469
  20
46.322
  0
VERTEX
  8
7
  10
103.545
  20
46.373
  0
VERTEX
  8
7
  10
103.596
  20
46.424
  0
VERTEX
  8
7
  10
103.647
  20
46.474
  0
VERTEX
  8
7
  10
103.698
  20
46.551
  0
VERTEX
  8
7
  10
103.749
  20
46.627
  0
VERTEX
  8
7
  10
103.774
  20
46.703
  0
VERTEX
  8
7
  10
104.104
  20
46.703
  0
VERTEX
  8
7
  10
104.053
  20
46.576
  0
VERTEX
  8
7
  10
103.977
  20
46.449
  0
VERTEX
  8
7
  10
103.901
  20
46.347
  0
VERTEX
  8
7
  10
103.825
  20
46.246
  0
VERTEX
  8
7
  10
103.723
  20
46.144
  0
VERTEX
  8
7
  10
103.621
  20
46.068
  0
VERTEX
  8
7
  10
103.494
  20
46.017
  0
VERTEX
  8
7
  10
103.393
  20
45.966
  0
VERTEX
  8
7
  10
103.291
  20
45.941
  0
VERTEX
  8
7
  10
103.164
  20
45.941
  0
VERTEX
  8
7
  10
103.062
  20
45.915
  0
VERTEX
  8
7
  10
102.935
  20
45.915
  0
VERTEX
  8
7
  10
102.783
  20
45.915
  0
VERTEX
  8
7
  10
102.630
  20
45.941
  0
VERTEX
  8
7
  10
102.478
  20
45.992
  0
VERTEX
  8
7
  10
102.351
  20
46.042
  0
VERTEX
  8
7
  10
102.224
  20
46.119
  0
VERTEX
  8
7
  10
102.097
  20
46.220
  0
VERTEX
  8
7
  10
101.995
  20
46.347
  0
VERTEX
  8
7
  10
101.919
  20
46.474
  0
VERTEX
  8
7
  10
101.843
  20
46.601
  0
VERTEX
  8
7
  10
101.817
  20
46.754
  0
VERTEX
  8
7
  10
101.767
  20
46.932
  0
VERTEX
  8
7
  10
101.767
  20
47.110
  0
SEQEND
  0
POLYLINE
  8
7
  6
CONTINUOUS
 66
  1
  0
VERTEX
  8
7
  10
103.876
  20
47.262
  0
VERTEX
  8
7
  10
103.850
  20
47.364
  0
VERTEX
  8
7
  10
103.799
  20
47.465
  0
VERTEX
  8
7
  10
103.749
  20
47.542
  0
VERTEX
  8
7
  10
103.698
  20
47.643
  0
VERTEX
  8
7
  10
103.647
  20
47.719
  0
VERTEX
  8
7
  10
103.571
  20
47.796
  0
VERTEX
  8
7
  10
103.494
  20
47.847
  0
VERTEX
  8
7
  10
103.393
  20
47.897
  0
VERTEX
  8
7
  10
103.291
  20
47.948
  0
VERTEX
  8
7
  10
103.190
  20
47.974
  0
VERTEX
  8
7
  10
103.062
  20
47.999
  0
VERTEX
  8
7
  10
102.961
  20
47.999
  0
VERTEX
  8
7
  10
102.808
  20
47.999
  0
VERTEX
  8
7
  10
102.681
  20
47.974
  0
VERTEX
  8
7
  10
102.580
  20
47.923
  0
VERTEX
  8
7
  10
102.478
  20
47.872
  0
VERTEX
  8
7
  10
102.376
  20
47.796
  0
VERTEX
  8
7
  10
102.300
  20
47.719
  0
VERTEX
  8
7
  10
102.224
  20
47.643
  0
VERTEX
  8
7
  10
102.173
  20
47.542
  0
VERTEX
  8
7
  10
102.148
  20
47.465
  0
VERTEX
  8
7
  10
102.097
  20
47.389
  0
VERTEX
  8
7
  10
102.071
  20
47.313
  0
VERTEX
  8
7
  10
102.071
  20
47.262
  0
VERTEX
  8
7
  10
103.876
  20
47.262
  0
SEQEND
  0
POLYLINE
  8
7
  6
CONTINUOUS
 66
  1
  0
VERTEX
  8
7
  10
104.612
  20
45.941
  0
VERTEX
  8
7
  10
104.612
  20
48.253
  0
VERTEX
  8
7
  10
104.917
  20
48.253
  0
VERTEX
  8
7
  10
104.917
  20
47.897
  0
VERTEX
  8
7
  10
105.019
  20
48.075
  0
VERTEX
  8
7
  10
105.171
  20
48.202
  0
VERTEX
  8
7
  10
105.375
  20
48.279
  0
VERTEX
  8
7
  10
105.578
  20
48.304
  0
VERTEX
  8
7
  10
105.578
  20
47.999
  0
VERTEX
  8
7
  10
105.527
  20
47.999
  0
VERTEX
  8
7
  10
105.476
  20
47.974
  0
VERTEX
  8
7
  10
105.426
  20
47.974
  0
VERTEX
  8
7
  10
105.349
  20
47.948
  0
VERTEX
  8
7
  10
105.299
  20
47.923
  0
VERTEX
  8
7
  10
105.248
  20
47.897
  0
VERTEX
  8
7
  10
105.197
  20
47.847
  0
VERTEX
  8
7
  10
105.146
  20
47.821
  0
VERTEX
  8
7
  10
105.095
  20
47.770
  0
VERTEX
  8
7
  10
105.044
  20
47.719
  0
VERTEX
  8
7
  10
105.019
  20
47.669
  0
VERTEX
  8
7
  10
104.994
  20
47.618
  0
VERTEX
  8
7
  10
104.968
  20
47.567
  0
VERTEX
  8
7
  10
104.943
  20
47.491
  0
VERTEX
  8
7
  10
104.917
  20
47.415
  0
VERTEX
  8
7
  10
104.917
  20
47.364
  0
VERTEX
  8
7
  10
104.917
  20
45.941
  0
VERTEX
  8
7
  10
104.612
  20
45.941
  0
SEQEND
  0
POLYLINE
  8
7
  6
CONTINUOUS
 66
  1
  0
VERTEX
  8
7
  10
95.998
  20
43.273
  0
VERTEX
  8
7
  10
95.998
  20
43.425
  0
VERTEX
  8
7
  10
96.024
  20
43.578
  0
VERTEX
  8
7
  10
96.075
  20
43.730
  0
VERTEX
  8
7
  10
96.126
  20
43.857
  0
VERTEX
  8
7
  10
96.176
  20
44.010
  0
VERTEX
  8
7
  10
96.253
  20
44.137
  0
VERTEX
  8
7
  10
96.354
  20
44.238
  0
VERTEX
  8
7
  10
96.456
  20
44.365
  0
VERTEX
  8
7
  10
96.583
  20
44.467
  0
VERTEX
  8
7
  10
96.710
  20
44.569
  0
VERTEX
  8
7
  10
96.837
  20
44.670
  0
VERTEX
  8
7
  10
96.989
  20
44.747
  0
VERTEX
  8
7
  10
97.142
  20
44.797
  0
VERTEX
  8
7
  10
97.294
  20
44.848
  0
VERTEX
  8
7
  10
97.472
  20
44.874
  0
VERTEX
  8
7
  10
97.650
  20
44.874
  0
VERTEX
  8
7
  10
97.752
  20
44.874
  0
VERTEX
  8
7
  10
97.879
  20
44.848
  0
VERTEX
  8
7
  10
97.980
  20
44.848
  0
VERTEX
  8
7
  10
98.082
  20
44.823
  0
VERTEX
  8
7
  10
98.184
  20
44.772
  0
VERTEX
  8
7
  10
98.285
  20
44.747
  0
VERTEX
  8
7
  10
98.387
  20
44.696
  0
VERTEX
  8
7
  10
98.489
  20
44.645
  0
VERTEX
  8
7
  10
98.667
  20
44.543
  0
VERTEX
  8
7
  10
98.844
  20
44.391
  0
VERTEX
  8
7
  10
98.971
  20
44.238
  0
VERTEX
  8
7
  10
99.099
  20
44.060
  0
VERTEX
  8
7
  10
99.175
  20
43.857
  0
VERTEX
  8
7
  10
99.251
  20
43.654
  0
VERTEX
  8
7
  10
99.276
  20
43.451
  0
VERTEX
  8
7
  10
99.302
  20
43.222
  0
VERTEX
  8
7
  10
99.302
  20
43.044
  0
VERTEX
  8
7
  10
99.276
  20
42.892
  0
VERTEX
  8
7
  10
99.226
  20
42.714
  0
VERTEX
  8
7
  10
99.149
  20
42.561
  0
VERTEX
  8
7
  10
99.073
  20
42.434
  0
VERTEX
  8
7
  10
98.997
  20
42.307
  0
VERTEX
  8
7
  10
98.895
  20
42.180
  0
VERTEX
  8
7
  10
98.768
  20
42.053
  0
VERTEX
  8
7
  10
98.641
  20
41.951
  0
VERTEX
  8
7
  10
98.514
  20
41.875
  0
VERTEX
  8
7
  10
98.387
  20
41.799
  0
VERTEX
  8
7
  10
98.235
  20
41.748
  0
VERTEX
  8
7
  10
98.082
  20
41.723
  0
VERTEX
  8
7
  10
97.930
  20
41.672
  0
VERTEX
  8
7
  10
97.777
  20
41.646
  0
VERTEX
  8
7
  10
97.625
  20
41.646
  0
VERTEX
  8
7
  10
97.472
  20
41.646
  0
VERTEX
  8
7
  10
97.320
  20
41.672
  0
VERTEX
  8
7
  10
97.167
  20
41.723
  0
VERTEX
  8
7
  10
97.015
  20
41.748
  0
VERTEX
  8
7
  10
96.888
  20
41.824
  0
VERTEX
  8
7
  10
96.761
  20
41.901
  0
VERTEX
  8
7
  10
96.634
  20
41.977
  0
VERTEX
  8
7
  10
96.507
  20
42.078
  0
VERTEX
  8
7
  10
96.405
  20
42.206
  0
VERTEX
  8
7
  10
96.303
  20
42.333
  0
VERTEX
  8
7
  10
96.202
  20
42.460
  0
VERTEX
  8
7
  10
96.126
  20
42.612
  0
VERTEX
  8
7
  10
96.075
  20
42.765
  0
VERTEX
  8
7
  10
96.024
  20
42.942
  0
VERTEX
  8
7
  10
95.998
  20
43.095
  0
VERTEX
  8
7
  10
95.998
  20
43.273
  0
SEQEND
  0
POLYLINE
  8
7
  6
CONTINUOUS
 66
  1
  0
VERTEX
  8
7
  10
96.303
  20
43.298
  0
VERTEX
  8
7
  10
96.329
  20
43.120
  0
VERTEX
  8
7
  10
96.354
  20
42.968
  0
VERTEX
  8
7
  10
96.405
  20
42.815
  0
VERTEX
  8
7
  10
96.456
  20
42.688
  0
VERTEX
  8
7
  10
96.507
  20
42.561
  0
VERTEX
  8
7
  10
96.583
  20
42.434
  0
VERTEX
  8
7
  10
96.659
  20
42.333
  0
VERTEX
  8
7
  10
96.761
  20
42.256
  0
VERTEX
  8
7
  10
96.862
  20
42.180
  0
VERTEX
  8
7
  10
96.989
  20
42.104
  0
VERTEX
  8
7
  10
97.091
  20
42.053
  0
VERTEX
  8
7
  10
97.193
  20
42.002
  0
VERTEX
  8
7
  10
97.320
  20
41.977
  0
VERTEX
  8
7
  10
97.421
  20
41.951
  0
VERTEX
  8
7
  10
97.548
  20
41.926
  0
VERTEX
  8
7
  10
97.650
  20
41.926
  0
VERTEX
  8
7
  10
97.752
  20
41.926
  0
VERTEX
  8
7
  10
97.853
  20
41.951
  0
VERTEX
  8
7
  10
97.980
  20
41.977
  0
VERTEX
  8
7
  10
98.082
  20
42.002
  0
VERTEX
  8
7
  10
98.184
  20
42.053
  0
VERTEX
  8
7
  10
98.311
  20
42.104
  0
VERTEX
  8
7
  10
98.412
  20
42.155
  0
VERTEX
  8
7
  10
98.514
  20
42.231
  0
VERTEX
  8
7
  10
98.616
  20
42.333
  0
VERTEX
  8
7
  10
98.717
  20
42.434
  0
VERTEX
  8
7
  10
98.794
  20
42.536
  0
VERTEX
  8
7
  10
98.844
  20
42.637
  0
VERTEX
  8
7
  10
98.921
  20
42.765
  0
VERTEX
  8
7
  10
98.971
  20
42.917
  0
VERTEX
  8
7
  10
98.997
  20
43.069
  0
VERTEX
  8
7
  10
98.997
  20
43.222
  0
VERTEX
  8
7
  10
98.997
  20
43.400
  0
VERTEX
  8
7
  10
98.946
  20
43.603
  0
VERTEX
  8
7
  10
98.895
  20
43.781
  0
VERTEX
  8
7
  10
98.819
  20
43.933
  0
VERTEX
  8
7
  10
98.717
  20
44.086
  0
VERTEX
  8
7
  10
98.590
  20
44.213
  0
VERTEX
  8
7
  10
98.463
  20
44.315
  0
VERTEX
  8
7
  10
98.311
  20
44.416
  0
VERTEX
  8
7
  10
98.158
  20
44.492
  0
VERTEX
  8
7
  10
97.980
  20
44.543
  0
VERTEX
  8
7
  10
97.828
  20
44.569
  0
VERTEX
  8
7
  10
97.650
  20
44.569
  0
VERTEX
  8
7
  10
97.523
  20
44.569
  0
VERTEX
  8
7
  10
97.396
  20
44.543
  0
VERTEX
  8
7
  10
97.269
  20
44.518
  0
VERTEX
  8
7
  10
97.142
  20
44.467
  0
VERTEX
  8
7
  10
97.015
  20
44.416
  0
VERTEX
  8
7
  10
96.913
  20
44.340
  0
VERTEX
  8
7
  10
96.812
  20
44.264
  0
VERTEX
  8
7
  10
96.710
  20
44.162
  0
VERTEX
  8
7
  10
96.608
  20
44.060
  0
VERTEX
  8
7
  10
96.532
  20
43.959
  0
VERTEX
  8
7
  10
96.456
  20
43.857
  0
VERTEX
  8
7
  10
96.405
  20
43.756
  0
VERTEX
  8
7
  10
96.380
  20
43.654
  0
VERTEX
  8
7
  10
96.329
  20
43.527
  0
VERTEX
  8
7
  10
96.303
  20
43.425
  0
VERTEX
  8
7
  10
96.303
  20
43.298
  0
SEQEND
  0
POLYLINE
  8
7
  6
CONTINUOUS
 66
  1
  0
VERTEX
  8
7
  10
99.759
  20
41.697
  0
VERTEX
  8
7
  10
99.759
  20
44.823
  0
VERTEX
  8
7
  10
100.089
  20
44.823
  0
VERTEX
  8
7
  10
100.089
  20
43.578
  0
VERTEX
  8
7
  10
100.140
  20
43.679
  0
VERTEX
  8
7
  10
100.242
  20
43.756
  0
VERTEX
  8
7
  10
100.318
  20
43.832
  0
VERTEX
  8
7
  10
100.445
  20
43.908
  0
VERTEX
  8
7
  10
100.572
  20
43.984
  0
VERTEX
  8
7
  10
100.699
  20
44.035
  0
VERTEX
  8
7
  10
100.826
  20
44.060
  0
VERTEX
  8
7
  10
100.953
  20
44.060
  0
VERTEX
  8
7
  10
101.131
  20
44.060
  0
VERTEX
  8
7
  10
101.284
  20
44.035
  0
VERTEX
  8
7
  10
101.436
  20
43.984
  0
VERTEX
  8
7
  10
101.589
  20
43.908
  0
VERTEX
  8
7
  10
101.741
  20
43.806
  0
VERTEX
  8
7
  10
101.868
  20
43.705
  0
VERTEX
  8
7
  10
101.970
  20
43.603
  0
VERTEX
  8
7
  10
102.046
  20
43.476
  0
VERTEX
  8
7
  10
102.122
  20
43.349
  0
VERTEX
  8
7
  10
102.173
  20
43.222
  0
VERTEX
  8
7
  10
102.199
  20
43.069
  0
VERTEX
  8
7
  10
102.224
  20
42.942
  0
VERTEX
  8
7
  10
102.224
  20
42.765
  0
VERTEX
  8
7
  10
102.199
  20
42.612
  0
VERTEX
  8
7
  10
102.148
  20
42.434
  0
VERTEX
  8
7
  10
102.071
  20
42.282
  0
VERTEX
  8
7
  10
101.995
  20
42.155
  0
VERTEX
  8
7
  10
101.894
  20
42.028
  0
VERTEX
  8
7
  10
101.792
  20
41.926
  0
VERTEX
  8
7
  10
101.665
  20
41.824
  0
VERTEX
  8
7
  10
101.538
  20
41.748
  0
VERTEX
  8
7
  10
101.385
  20
41.697
  0
VERTEX
  8
7
  10
101.208
  20
41.672
  0
VERTEX
  8
7
  10
101.030
  20
41.646
  0
VERTEX
  8
7
  10
100.928
  20
41.646
  0
VERTEX
  8
7
  10
100.826
  20
41.672
  0
VERTEX
  8
7
  10
100.725
  20
41.672
  0
VERTEX
  8
7
  10
100.623
  20
41.697
  0
VERTEX
  8
7
  10
100.521
  20
41.723
  0
VERTEX
  8
7
  10
100.445
  20
41.748
  0
VERTEX
  8
7
  10
100.369
  20
41.799
  0
VERTEX
  8
7
  10
100.293
  20
41.824
  0
VERTEX
  8
7
  10
100.217
  20
41.875
  0
VERTEX
  8
7
  10
100.166
  20
41.951
  0
VERTEX
  8
7
  10
100.115
  20
42.028
  0
VERTEX
  8
7
  10
100.064
  20
42.104
  0
VERTEX
  8
7
  10
100.064
  20
41.697
  0
VERTEX
  8
7
  10
99.759
  20
41.697
  0
SEQEND
  0
POLYLINE
  8
7
  6
CONTINUOUS
 66
  1
  0
VERTEX
  8
7
  10
100.064
  20
42.917
  0
VERTEX
  8
7
  10
100.064
  20
42.815
  0
VERTEX
  8
7
  10
100.064
  20
42.739
  0
VERTEX
  8
7
  10
100.089
  20
42.637
  0
VERTEX
  8
7
  10
100.115
  20
42.561
  0
VERTEX
  8
7
  10
100.140
  20
42.460
  0
VERTEX
  8
7
  10
100.191
  20
42.383
  0
VERTEX
  8
7
  10
100.242
  20
42.307
  0
VERTEX
  8
7
  10
100.293
  20
42.231
  0
VERTEX
  8
7
  10
100.344
  20
42.180
  0
VERTEX
  8
7
  10
100.420
  20
42.129
  0
VERTEX
  8
7
  10
100.496
  20
42.078
  0
VERTEX
  8
7
  10
100.598
  20
42.028
  0
VERTEX
  8
7
  10
100.674
  20
42.002
  0
VERTEX
  8
7
  10
100.776
  20
41.951
  0
VERTEX
  8
7
  10
100.903
  20
41.926
  0
VERTEX
  8
7
  10
101.030
  20
41.926
  0
VERTEX
  8
7
  10
101.131
  20
41.926
  0
VERTEX
  8
7
  10
101.258
  20
41.951
  0
VERTEX
  8
7
  10
101.360
  20
42.002
  0
VERTEX
  8
7
  10
101.462
  20
42.053
  0
VERTEX
  8
7
  10
101.563
  20
42.129
  0
VERTEX
  8
7
  10
101.640
  20
42.206
  0
VERTEX
  8
7
  10
101.716
  20
42.282
  0
VERTEX
  8
7
  10
101.767
  20
42.383
  0
VERTEX
  8
7
  10
101.817
  20
42.510
  0
VERTEX
  8
7
  10
101.868
  20
42.637
  0
VERTEX
  8
7
  10
101.894
  20
42.765
  0
VERTEX
  8
7
  10
101.894
  20
42.892
  0
VERTEX
  8
7
  10
101.894
  20
42.993
  0
VERTEX
  8
7
  10
101.868
  20
43.069
  0
VERTEX
  8
7
  10
101.843
  20
43.146
  0
VERTEX
  8
7
  10
101.817
  20
43.222
  0
VERTEX
  8
7
  10
101.767
  20
43.298
  0
VERTEX
  8
7
  10
101.716
  20
43.374
  0
VERTEX
  8
7
  10
101.665
  20
43.451
  0
VERTEX
  8
7
  10
101.614
  20
43.501
  0
VERTEX
  8
7
  10
101.538
  20
43.552
  0
VERTEX
  8
7
  10
101.462
  20
43.603
  0
VERTEX
  8
7
  10
101.385
  20
43.654
  0
VERTEX
  8
7
  10
101.309
  20
43.679
  0
VERTEX
  8
7
  10
101.233
  20
43.705
  0
VERTEX
  8
7
  10
101.157
  20
43.730
  0
VERTEX
  8
7
  10
101.055
  20
43.756
  0
VERTEX
  8
7
  10
100.979
  20
43.756
  0
VERTEX
  8
7
  10
100.877
  20
43.756
  0
VERTEX
  8
7
  10
100.776
  20
43.730
  0
VERTEX
  8
7
  10
100.674
  20
43.705
  0
VERTEX
  8
7
  10
100.572
  20
43.654
  0
VERTEX
  8
7
  10
100.471
  20
43.603
  0
VERTEX
  8
7
  10
100.369
  20
43.552
  0
VERTEX
  8
7
  10
100.293
  20
43.476
  0
VERTEX
  8
7
  10
100.217
  20
43.374
  0
VERTEX
  8
7
  10
100.140
  20
43.273
  0
VERTEX
  8
7
  10
100.115
  20
43.171
  0
VERTEX
  8
7
  10
100.064
  20
43.044
  0
VERTEX
  8
7
  10
100.064
  20
42.917
  0
SEQEND
  0
POLYLINE
  8
7
  6
CONTINUOUS
 66
  1
  0
VERTEX
  8
7
  10
102.554
  20
43.324
  0
VERTEX
  8
7
  10
102.554
  20
43.349
  0
VERTEX
  8
7
  10
102.554
  20
43.374
  0
VERTEX
  8
7
  10
102.554
  20
43.400
  0
VERTEX
  8
7
  10
102.554
  20
43.425
  0
VERTEX
  8
7
  10
102.554
  20
43.527
  0
VERTEX
  8
7
  10
102.580
  20
43.603
  0
VERTEX
  8
7
  10
102.605
  20
43.679
  0
VERTEX
  8
7
  10
102.656
  20
43.756
  0
VERTEX
  8
7
  10
102.707
  20
43.832
  0
VERTEX
  8
7
  10
102.758
  20
43.883
  0
VERTEX
  8
7
  10
102.834
  20
43.933
  0
VERTEX
  8
7
  10
102.910
  20
43.984
  0
VERTEX
  8
7
  10
102.986
  20
44.010
  0
VERTEX
  8
7
  10
103.062
  20
44.035
  0
VERTEX
  8
7
  10
103.139
  20
44.060
  0
VERTEX
  8
7
  10
103.190
  20
44.060
  0
VERTEX
  8
7
  10
103.240
  20
44.060
  0
VERTEX
  8
7
  10
103.317
  20
44.035
  0
VERTEX
  8
7
  10
103.367
  20
44.035
  0
VERTEX
  8
7
  10
103.444
  20
44.010
  0
VERTEX
  8
7
  10
103.494
  20
43.984
  0
VERTEX
  8
7
  10
103.545
  20
43.959
  0
VERTEX
  8
7
  10
103.596
  20
43.933
  0
VERTEX
  8
7
  10
103.647
  20
43.908
  0
VERTEX
  8
7
  10
103.698
  20
43.857
  0
VERTEX
  8
7
  10
103.723
  20
43.806
  0
VERTEX
  8
7
  10
103.774
  20
43.756
  0
VERTEX
  8
7
  10
103.799
  20
43.705
  0
VERTEX
  8
7
  10
103.825
  20
43.654
  0
VERTEX
  8
7
  10
103.850
  20
43.578
  0
VERTEX
  8
7
  10
103.850
  20
43.501
  0
VERTEX
  8
7
  10
103.876
  20
43.425
  0
VERTEX
  8
7
  10
103.545
  20
43.425
  0
VERTEX
  8
7
  10
103.545
  20
43.501
  0
VERTEX
  8
7
  10
103.520
  20
43.578
  0
VERTEX
  8
7
  10
103.469
  20
43.628
  0
VERTEX
  8
7
  10
103.444
  20
43.679
  0
VERTEX
  8
7
  10
103.393
  20
43.705
  0
VERTEX
  8
7
  10
103.317
  20
43.730
  0
VERTEX
  8
7
  10
103.266
  20
43.756
  0
VERTEX
  8
7
  10
103.190
  20
43.756
  0
VERTEX
  8
7
  10
103.139
  20
43.756
  0
VERTEX
  8
7
  10
103.088
  20
43.730
  0
VERTEX
  8
7
  10
103.012
  20
43.705
  0
VERTEX
  8
7
  10
102.961
  20
43.679
  0
VERTEX
  8
7
  10
102.910
  20
43.628
  0
VERTEX
  8
7
  10
102.885
  20
43.578
  0
VERTEX
  8
7
  10
102.859
  20
43.501
  0
VERTEX
  8
7
  10
102.859
  20
43.425
  0
VERTEX
  8
7
  10
102.859
  20
43.425
  0
VERTEX
  8
7
  10
102.859
  20
43.425
  0
VERTEX
  8
7
  10
102.859
  20
43.400
  0
VERTEX
  8
7
  10
102.859
  20
43.374
  0
VERTEX
  8
7
  10
102.859
  20
43.349
  0
VERTEX
  8
7
  10
102.885
  20
43.349
  0
VERTEX
  8
7
  10
102.885
  20
43.324
  0
VERTEX
  8
7
  10
102.885
  20
43.324
  0
VERTEX
  8
7
  10
102.910
  20
43.273
  0
VERTEX
  8
7
  10
102.961
  20
43.222
  0
VERTEX
  8
7
  10
103.012
  20
43.171
  0
VERTEX
  8
7
  10
103.088
  20
43.120
  0
VERTEX
  8
7
  10
103.190
  20
43.095
  0
VERTEX
  8
7
  10
103.291
  20
43.044
  0
VERTEX
  8
7
  10
103.367
  20
43.019
  0
VERTEX
  8
7
  10
103.469
  20
42.968
  0
VERTEX
  8
7
  10
103.571
  20
42.942
  0
VERTEX
  8
7
  10
103.647
  20
42.892
  0
VERTEX
  8
7
  10
103.723
  20
42.841
  0
VERTEX
  8
7
  10
103.799
  20
42.765
  0
VERTEX
  8
7
  10
103.850
  20
42.688
  0
VERTEX
  8
7
  10
103.901
  20
42.612
  0
VERTEX
  8
7
  10
103.926
  20
42.485
  0
VERTEX
  8
7
  10
103.926
  20
42.383
  0
VERTEX
  8
7
  10
103.926
  20
42.358
  0
VERTEX
  8
7
  10
103.926
  20
42.333
  0
VERTEX
  8
7
  10
103.926
  20
42.282
  0
VERTEX
  8
7
  10
103.901
  20
42.256
  0
VERTEX
  8
7
  10
103.901
  20
42.155
  0
VERTEX
  8
7
  10
103.876
  20
42.053
  0
VERTEX
  8
7
  10
103.825
  20
41.977
  0
VERTEX
  8
7
  10
103.774
  20
41.901
  0
VERTEX
  8
7
  10
103.723
  20
41.824
  0
VERTEX
  8
7
  10
103.647
  20
41.774
  0
VERTEX
  8
7
  10
103.571
  20
41.748
  0
VERTEX
  8
7
  10
103.494
  20
41.697
  0
VERTEX
  8
7
  10
103.418
  20
41.672
  0
VERTEX
  8
7
  10
103.342
  20
41.672
  0
VERTEX
  8
7
  10
103.266
  20
41.672
  0
VERTEX
  8
7
  10
103.190
  20
41.672
  0
VERTEX
  8
7
  10
103.088
  20
41.672
  0
VERTEX
  8
7
  10
103.012
  20
41.697
  0
VERTEX
  8
7
  10
102.910
  20
41.697
  0
VERTEX
  8
7
  10
102.808
  20
41.723
  0
VERTEX
  8
7
  10
102.732
  20
41.774
  0
VERTEX
  8
7
  10
102.656
  20
41.850
  0
VERTEX
  8
7
  10
102.605
  20
41.926
  0
VERTEX
  8
7
  10
102.554
  20
42.002
  0
VERTEX
  8
7
  10
102.529
  20
42.078
  0
VERTEX
  8
7
  10
102.478
  20
42.180
  0
VERTEX
  8
7
  10
102.453
  20
42.256
  0
VERTEX
  8
7
  10
102.453
  20
42.358
  0
VERTEX
  8
7
  10
102.783
  20
42.383
  0
VERTEX
  8
7
  10
102.783
  20
42.282
  0
VERTEX
  8
7
  10
102.808
  20
42.180
  0
VERTEX
  8
7
  10
102.859
  20
42.104
  0
VERTEX
  8
7
  10
102.910
  20
42.053
  0
VERTEX
  8
7
  10
102.986
  20
42.002
  0
VERTEX
  8
7
  10
103.062
  20
41.951
  0
VERTEX
  8
7
  10
103.139
  20
41.926
  0
VERTEX
  8
7
  10
103.215
  20
41.926
  0
VERTEX
  8
7
  10
103.291
  20
41.926
  0
VERTEX
  8
7
  10
103.367
  20
41.951
  0
VERTEX
  8
7
  10
103.444
  20
42.002
  0
VERTEX
  8
7
  10
103.494
  20
42.053
  0
VERTEX
  8
7
  10
103.545
  20
42.104
  0
VERTEX
  8
7
  10
103.571
  20
42.180
  0
VERTEX
  8
7
  10
103.596
  20
42.256
  0
VERTEX
  8
7
  10
103.596
  20
42.333
  0
VERTEX
  8
7
  10
103.596
  20
42.383
  0
VERTEX
  8
7
  10
103.571
  20
42.460
  0
VERTEX
  8
7
  10
103.545
  20
42.536
  0
VERTEX
  8
7
  10
103.520
  20
42.587
  0
VERTEX
  8
7
  10
103.469
  20
42.637
  0
VERTEX
  8
7
  10
103.393
  20
42.688
  0
VERTEX
  8
7
  10
103.317
  20
42.714
  0
VERTEX
  8
7
  10
103.215
  20
42.739
  0
VERTEX
  8
7
  10
103.088
  20
42.790
  0
VERTEX
  8
7
  10
102.961
  20
42.841
  0
VERTEX
  8
7
  10
102.859
  20
42.892
  0
VERTEX
  8
7
  10
102.783
  20
42.942
  0
VERTEX
  8
7
  10
102.707
  20
43.019
  0
VERTEX
  8
7
  10
102.630
  20
43.095
  0
VERTEX
  8
7
  10
102.580
  20
43.222
  0
VERTEX
  8
7
  10
102.554
  20
43.324
  0
SEQEND
  0
POLYLINE
  8
7
  6
CONTINUOUS
 66
  1
  0
VERTEX
  8
7
  10
104.231
  20
42.866
  0
VERTEX
  8
7
  10
104.231
  20
42.993
  0
VERTEX
  8
7
  10
104.257
  20
43.120
  0
VERTEX
  8
7
  10
104.282
  20
43.247
  0
VERTEX
  8
7
  10
104.333
  20
43.374
  0
VERTEX
  8
7
  10
104.384
  20
43.476
  0
VERTEX
  8
7
  10
104.460
  20
43.552
  0
VERTEX
  8
7
  10
104.536
  20
43.654
  0
VERTEX
  8
7
  10
104.612
  20
43.730
  0
VERTEX
  8
7
  10
104.689
  20
43.806
  0
VERTEX
  8
7
  10
104.790
  20
43.883
  0
VERTEX
  8
7
  10
104.892
  20
43.933
  0
VERTEX
  8
7
  10
104.994
  20
43.984
  0
VERTEX
  8
7
  10
105.095
  20
44.010
  0
VERTEX
  8
7
  10
105.197
  20
44.035
  0
VERTEX
  8
7
  10
105.324
  20
44.060
  0
VERTEX
  8
7
  10
105.426
  20
44.060
  0
VERTEX
  8
7
  10
105.578
  20
44.060
  0
VERTEX
  8
7
  10
105.731
  20
44.035
  0
VERTEX
  8
7
  10
105.858
  20
43.984
  0
VERTEX
  8
7
  10
106.010
  20
43.933
  0
VERTEX
  8
7
  10
106.137
  20
43.857
  0
VERTEX
  8
7
  10
106.264
  20
43.756
  0
VERTEX
  8
7
  10
106.366
  20
43.628
  0
VERTEX
  8
7
  10
106.467
  20
43.476
  0
VERTEX
  8
7
  10
106.544
  20
43.324
  0
VERTEX
  8
7
  10
106.594
  20
43.171
  0
VERTEX
  8
7
  10
106.620
  20
42.993
  0
VERTEX
  8
7
  10
106.645
  20
42.790
  0
VERTEX
  8
7
  10
106.645
  20
42.739
  0
VERTEX
  8
7
  10
104.536
  20
42.739
  0
VERTEX
  8
7
  10
104.562
  20
42.612
  0
VERTEX
  8
7
  10
104.587
  20
42.485
  0
VERTEX
  8
7
  10
104.638
  20
42.383
  0
VERTEX
  8
7
  10
104.689
  20
42.307
  0
VERTEX
  8
7
  10
104.765
  20
42.206
  0
VERTEX
  8
7
  10
104.841
  20
42.129
  0
VERTEX
  8
7
  10
104.917
  20
42.078
  0
VERTEX
  8
7
  10
105.019
  20
42.028
  0
VERTEX
  8
7
  10
105.121
  20
42.002
  0
VERTEX
  8
7
  10
105.222
  20
41.951
  0
VERTEX
  8
7
  10
105.324
  20
41.926
  0
VERTEX
  8
7
  10
105.426
  20
41.926
  0
VERTEX
  8
7
  10
105.502
  20
41.926
  0
VERTEX
  8
7
  10
105.603
  20
41.951
  0
VERTEX
  8
7
  10
105.680
  20
41.977
  0
VERTEX
  8
7
  10
105.756
  20
42.002
  0
VERTEX
  8
7
  10
105.858
  20
42.053
  0
VERTEX
  8
7
  10
105.934
  20
42.078
  0
VERTEX
  8
7
  10
106.010
  20
42.129
  0
VERTEX
  8
7
  10
106.061
  20
42.180
  0
VERTEX
  8
7
  10
106.112
  20
42.231
  0
VERTEX
  8
7
  10
106.162
  20
42.307
  0
VERTEX
  8
7
  10
106.213
  20
42.383
  0
VERTEX
  8
7
  10
106.239
  20
42.460
  0
VERTEX
  8
7
  10
106.569
  20
42.460
  0
VERTEX
  8
7
  10
106.518
  20
42.333
  0
VERTEX
  8
7
  10
106.442
  20
42.206
  0
VERTEX
  8
7
  10
106.366
  20
42.104
  0
VERTEX
  8
7
  10
106.290
  20
42.002
  0
VERTEX
  8
7
  10
106.188
  20
41.901
  0
VERTEX
  8
7
  10
106.086
  20
41.824
  0
VERTEX
  8
7
  10
105.959
  20
41.774
  0
VERTEX
  8
7
  10
105.858
  20
41.723
  0
VERTEX
  8
7
  10
105.756
  20
41.697
  0
VERTEX
  8
7
  10
105.629
  20
41.697
  0
VERTEX
  8
7
  10
105.527
  20
41.672
  0
VERTEX
  8
7
  10
105.400
  20
41.672
  0
VERTEX
  8
7
  10
105.248
  20
41.672
  0
VERTEX
  8
7
  10
105.095
  20
41.697
  0
VERTEX
  8
7
  10
104.943
  20
41.748
  0
VERTEX
  8
7
  10
104.816
  20
41.799
  0
VERTEX
  8
7
  10
104.689
  20
41.875
  0
VERTEX
  8
7
  10
104.562
  20
41.977
  0
VERTEX
  8
7
  10
104.460
  20
42.104
  0
VERTEX
  8
7
  10
104.384
  20
42.231
  0
VERTEX
  8
7
  10
104.308
  20
42.358
  0
VERTEX
  8
7
  10
104.282
  20
42.510
  0
VERTEX
  8
7
  10
104.231
  20
42.688
  0
VERTEX
  8
7
  10
104.231
  20
42.866
  0
SEQEND
  0
POLYLINE
  8
7
  6
CONTINUOUS
 66
  1
  0
VERTEX
  8
7
  10
106.340
  20
43.019
  0
VERTEX
  8
7
  10
106.315
  20
43.120
  0
VERTEX
  8
7
  10
106.264
  20
43.222
  0
VERTEX
  8
7
  10
106.213
  20
43.298
  0
VERTEX
  8
7
  10
106.162
  20
43.400
  0
VERTEX
  8
7
  10
106.112
  20
43.476
  0
VERTEX
  8
7
  10
106.035
  20
43.552
  0
VERTEX
  8
7
  10
105.959
  20
43.603
  0
VERTEX
  8
7
  10
105.858
  20
43.654
  0
VERTEX
  8
7
  10
105.756
  20
43.705
  0
VERTEX
  8
7
  10
105.654
  20
43.730
  0
VERTEX
  8
7
  10
105.527
  20
43.756
  0
VERTEX
  8
7
  10
105.426
  20
43.756
  0
VERTEX
  8
7
  10
105.273
  20
43.756
  0
VERTEX
  8
7
  10
105.146
  20
43.730
  0
VERTEX
  8
7
  10
105.044
  20
43.679
  0
VERTEX
  8
7
  10
104.943
  20
43.628
  0
VERTEX
  8
7
  10
104.841
  20
43.552
  0
VERTEX
  8
7
  10
104.765
  20
43.476
  0
VERTEX
  8
7
  10
104.689
  20
43.400
  0
VERTEX
  8
7
  10
104.638
  20
43.298
  0
VERTEX
  8
7
  10
104.612
  20
43.222
  0
VERTEX
  8
7
  10
104.562
  20
43.146
  0
VERTEX
  8
7
  10
104.536
  20
43.069
  0
VERTEX
  8
7
  10
104.536
  20
43.019
  0
VERTEX
  8
7
  10
106.340
  20
43.019
  0
SEQEND
  0
POLYLINE
  8
7
  6
CONTINUOUS
 66
  1
  0
VERTEX
  8
7
  10
107.077
  20
41.697
  0
VERTEX
  8
7
  10
107.077
  20
44.010
  0
VERTEX
  8
7
  10
107.382
  20
44.010
  0
VERTEX
  8
7
  10
107.382
  20
43.654
  0
VERTEX
  8
7
  10
107.484
  20
43.832
  0
VERTEX
  8
7
  10
107.636
  20
43.959
  0
VERTEX
  8
7
  10
107.840
  20
44.035
  0
VERTEX
  8
7
  10
108.043
  20
44.060
  0
VERTEX
  8
7
  10
108.043
  20
43.756
  0
VERTEX
  8
7
  10
107.992
  20
43.756
  0
VERTEX
  8
7
  10
107.941
  20
43.730
  0
VERTEX
  8
7
  10
107.890
  20
43.730
  0
VERTEX
  8
7
  10
107.814
  20
43.705
  0
VERTEX
  8
7
  10
107.763
  20
43.679
  0
VERTEX
  8
7
  10
107.712
  20
43.654
  0
VERTEX
  8
7
  10
107.662
  20
43.603
  0
VERTEX
  8
7
  10
107.611
  20
43.578
  0
VERTEX
  8
7
  10
107.560
  20
43.527
  0
VERTEX
  8
7
  10
107.509
  20
43.476
  0
VERTEX
  8
7
  10
107.484
  20
43.425
  0
VERTEX
  8
7
  10
107.458
  20
43.374
  0
VERTEX
  8
7
  10
107.433
  20
43.324
  0
VERTEX
  8
7
  10
107.408
  20
43.247
  0
VERTEX
  8
7
  10
107.382
  20
43.171
  0
VERTEX
  8
7
  10
107.382
  20
43.120
  0
VERTEX
  8
7
  10
107.382
  20
41.697
  0
VERTEX
  8
7
  10
107.077
  20
41.697
  0
SEQEND
  0
POLYLINE
  8
7
  6
CONTINUOUS
 66
  1
  0
VERTEX
  8
7
  10
109.085
  20
41.697
  0
VERTEX
  8
7
  10
108.119
  20
44.010
  0
VERTEX
  8
7
  10
108.449
  20
44.010
  0
VERTEX
  8
7
  10
109.263
  20
42.078
  0
VERTEX
  8
7
  10
110.050
  20
44.010
  0
VERTEX
  8
7
  10
110.406
  20
44.010
  0
VERTEX
  8
7
  10
109.415
  20
41.697
  0
VERTEX
  8
7
  10
109.085
  20
41.697
  0
SEQEND
  0
POLYLINE
  8
7
  6
CONTINUOUS
 66
  1
  0
VERTEX
  8
7
  10
110.609
  20
42.841
  0
VERTEX
  8
7
  10
110.609
  20
42.968
  0
VERTEX
  8
7
  10
110.635
  20
43.095
  0
VERTEX
  8
7
  10
110.685
  20
43.222
  0
VERTEX
  8
7
  10
110.736
  20
43.349
  0
VERTEX
  8
7
  10
110.787
  20
43.451
  0
VERTEX
  8
7
  10
110.838
  20
43.552
  0
VERTEX
  8
7
  10
110.914
  20
43.654
  0
VERTEX
  8
7
  10
111.016
  20
43.730
  0
VERTEX
  8
7
  10
111.092
  20
43.806
  0
VERTEX
  8
7
  10
111.194
  20
43.883
  0
VERTEX
  8
7
  10
111.295
  20
43.933
  0
VERTEX
  8
7
  10
111.397
  20
43.984
  0
VERTEX
  8
7
  10
111.524
  20
44.010
  0
VERTEX
  8
7
  10
111.626
  20
44.035
  0
VERTEX
  8
7
  10
111.753
  20
44.060
  0
VERTEX
  8
7
  10
111.854
  20
44.060
  0
VERTEX
  8
7
  10
112.007
  20
44.060
  0
VERTEX
  8
7
  10
112.159
  20
44.035
  0
VERTEX
  8
7
  10
112.286
  20
43.984
  0
VERTEX
  8
7
  10
112.413
  20
43.933
  0
VERTEX
  8
7
  10
112.515
  20
43.857
  0
VERTEX
  8
7
  10
112.617
  20
43.781
  0
VERTEX
  8
7
  10
112.693
  20
43.679
  0
VERTEX
  8
7
  10
112.769
  20
43.552
  0
VERTEX
  8
7
  10
112.769
  20
44.010
  0
VERTEX
  8
7
  10
113.074
  20
44.010
  0
VERTEX
  8
7
  10
113.074
  20
41.697
  0
VERTEX
  8
7
  10
112.769
  20
41.697
  0
VERTEX
  8
7
  10
112.769
  20
42.129
  0
VERTEX
  8
7
  10
112.693
  20
42.028
  0
VERTEX
  8
7
  10
112.617
  20
41.926
  0
VERTEX
  8
7
  10
112.515
  20
41.850
  0
VERTEX
  8
7
  10
112.388
  20
41.774
  0
VERTEX
  8
7
  10
112.261
  20
41.723
  0
VERTEX
  8
7
  10
112.134
  20
41.697
  0
VERTEX
  8
7
  10
111.981
  20
41.672
  0
VERTEX
  8
7
  10
111.829
  20
41.672
  0
VERTEX
  8
7
  10
111.727
  20
41.672
  0
VERTEX
  8
7
  10
111.600
  20
41.697
  0
VERTEX
  8
7
  10
111.499
  20
41.697
  0
VERTEX
  8
7
  10
111.372
  20
41.723
  0
VERTEX
  8
7
  10
111.270
  20
41.774
  0
VERTEX
  8
7
  10
111.168
  20
41.824
  0
VERTEX
  8
7
  10
111.067
  20
41.901
  0
VERTEX
  8
7
  10
110.990
  20
41.977
  0
VERTEX
  8
7
  10
110.914
  20
42.053
  0
VERTEX
  8
7
  10
110.838
  20
42.155
  0
VERTEX
  8
7
  10
110.762
  20
42.256
  0
VERTEX
  8
7
  10
110.711
  20
42.358
  0
VERTEX
  8
7
  10
110.685
  20
42.460
  0
VERTEX
  8
7
  10
110.635
  20
42.587
  0
VERTEX
  8
7
  10
110.609
  20
42.714
  0
VERTEX
  8
7
  10
110.609
  20
42.841
  0
SEQEND
  0
POLYLINE
  8
7
  6
CONTINUOUS
 66
  1
  0
VERTEX
  8
7
  10
110.940
  20
42.892
  0
VERTEX
  8
7
  10
110.940
  20
42.765
  0
VERTEX
  8
7
  10
110.965
  20
42.637
  0
VERTEX
  8
7
  10
111.016
  20
42.510
  0
VERTEX
  8
7
  10
111.067
  20
42.409
  0
VERTEX
  8
7
  10
111.143
  20
42.307
  0
VERTEX
  8
7
  10
111.219
  20
42.206
  0
VERTEX
  8
7
  10
111.295
  20
42.129
  0
VERTEX
  8
7
  10
111.397
  20
42.053
  0
VERTEX
  8
7
  10
111.499
  20
42.002
  0
VERTEX
  8
7
  10
111.600
  20
41.951
  0
VERTEX
  8
7
  10
111.727
  20
41.926
  0
VERTEX
  8
7
  10
111.829
  20
41.926
  0
VERTEX
  8
7
  10
111.956
  20
41.926
  0
VERTEX
  8
7
  10
112.083
  20
41.951
  0
VERTEX
  8
7
  10
112.210
  20
42.002
  0
VERTEX
  8
7
  10
112.312
  20
42.053
  0
VERTEX
  8
7
  10
112.413
  20
42.129
  0
VERTEX
  8
7
  10
112.515
  20
42.206
  0
VERTEX
  8
7
  10
112.591
  20
42.307
  0
VERTEX
  8
7
  10
112.642
  20
42.409
  0
VERTEX
  8
7
  10
112.693
  20
42.510
  0
VERTEX
  8
7
  10
112.744
  20
42.612
  0
VERTEX
  8
7
  10
112.769
  20
42.739
  0
VERTEX
  8
7
  10
112.769
  20
42.841
  0
VERTEX
  8
7
  10
112.769
  20
42.942
  0
VERTEX
  8
7
  10
112.744
  20
43.069
  0
VERTEX
  8
7
  10
112.718
  20
43.171
  0
VERTEX
  8
7
  10
112.667
  20
43.273
  0
VERTEX
  8
7
  10
112.591
  20
43.374
  0
VERTEX
  8
7
  10
112.515
  20
43.476
  0
VERTEX
  8
7
  10
112.439
  20
43.552
  0
VERTEX
  8
7
  10
112.337
  20
43.628
  0
VERTEX
  8
7
  10
112.235
  20
43.679
  0
VERTEX
  8
7
  10
112.108
  20
43.730
  0
VERTEX
  8
7
  10
112.007
  20
43.756
  0
VERTEX
  8
7
  10
111.880
  20
43.756
  0
VERTEX
  8
7
  10
111.753
  20
43.756
  0
VERTEX
  8
7
  10
111.626
  20
43.730
  0
VERTEX
  8
7
  10
111.524
  20
43.679
  0
VERTEX
  8
7
  10
111.397
  20
43.628
  0
VERTEX
  8
7
  10
111.295
  20
43.552
  0
VERTEX
  8
7
  10
111.194
  20
43.476
  0
VERTEX
  8
7
  10
111.117
  20
43.400
  0
VERTEX
  8
7
  10
111.067
  20
43.298
  0
VERTEX
  8
7
  10
111.016
  20
43.197
  0
VERTEX
  8
7
  10
110.965
  20
43.095
  0
VERTEX
  8
7
  10
110.940
  20
42.993
  0
VERTEX
  8
7
  10
110.940
  20
42.892
  0
SEQEND
  0
POLYLINE
  8
7
  6
CONTINUOUS
 66
  1
  0
VERTEX
  8
7
  10
113.887
  20
41.697
  0
VERTEX
  8
7
  10
113.887
  20
43.730
  0
VERTEX
  8
7
  10
113.379
  20
43.730
  0
VERTEX
  8
7
  10
113.379
  20
44.010
  0
VERTEX
  8
7
  10
113.887
  20
44.010
  0
VERTEX
  8
7
  10
113.887
  20
44.823
  0
VERTEX
  8
7
  10
114.192
  20
44.823
  0
VERTEX
  8
7
  10
114.192
  20
44.010
  0
VERTEX
  8
7
  10
114.726
  20
44.010
  0
VERTEX
  8
7
  10
114.726
  20
43.730
  0
VERTEX
  8
7
  10
114.192
  20
43.730
  0
VERTEX
  8
7
  10
114.192
  20
41.697
  0
VERTEX
  8
7
  10
113.887
  20
41.697
  0
SEQEND
  0
POLYLINE
  8
7
  6
CONTINUOUS
 66
  1
  0
VERTEX
  8
7
  10
115.056
  20
41.697
  0
VERTEX
  8
7
  10
115.056
  20
44.010
  0
VERTEX
  8
7
  10
115.361
  20
44.010
  0
VERTEX
  8
7
  10
115.361
  20
41.697
  0
VERTEX
  8
7
  10
115.056
  20
41.697
  0
SEQEND
  0
POLYLINE
  8
7
  6
CONTINUOUS
 66
  1
  0
VERTEX
  8
7
  10
115.056
  20
44.289
  0
VERTEX
  8
7
  10
115.056
  20
44.823
  0
VERTEX
  8
7
  10
115.361
  20
44.823
  0
VERTEX
  8
7
  10
115.361
  20
44.289
  0
VERTEX
  8
7
  10
115.056
  20
44.289
  0
SEQEND
  0
POLYLINE
  8
7
  6
CONTINUOUS
 66
  1
  0
VERTEX
  8
7
  10
115.818
  20
42.892
  0
VERTEX
  8
7
  10
115.818
  20
42.993
  0
VERTEX
  8
7
  10
115.844
  20
43.120
  0
VERTEX
  8
7
  10
115.869
  20
43.222
  0
VERTEX
  8
7
  10
115.895
  20
43.324
  0
VERTEX
  8
7
  10
115.945
  20
43.425
  0
VERTEX
  8
7
  10
116.022
  20
43.527
  0
VERTEX
  8
7
  10
116.098
  20
43.628
  0
VERTEX
  8
7
  10
116.174
  20
43.705
  0
VERTEX
  8
7
  10
116.250
  20
43.781
  0
VERTEX
  8
7
  10
116.352
  20
43.857
  0
VERTEX
  8
7
  10
116.454
  20
43.908
  0
VERTEX
  8
7
  10
116.555
  20
43.959
  0
VERTEX
  8
7
  10
116.682
  20
44.010
  0
VERTEX
  8
7
  10
116.809
  20
44.035
  0
VERTEX
  8
7
  10
116.936
  20
44.060
  0
VERTEX
  8
7
  10
117.063
  20
44.060
  0
VERTEX
  8
7
  10
117.190
  20
44.060
  0
VERTEX
  8
7
  10
117.317
  20
44.035
  0
VERTEX
  8
7
  10
117.445
  20
43.984
  0
VERTEX
  8
7
  10
117.572
  20
43.908
  0
VERTEX
  8
7
  10
117.699
  20
43.832
  0
VERTEX
  8
7
  10
117.826
  20
43.730
  0
VERTEX
  8
7
  10
117.927
  20
43.628
  0
VERTEX
  8
7
  10
118.029
  20
43.501
  0
VERTEX
  8
7
  10
118.105
  20
43.374
  0
VERTEX
  8
7
  10
118.181
  20
43.247
  0
VERTEX
  8
7
  10
118.207
  20
43.095
  0
VERTEX
  8
7
  10
118.232
  20
42.942
  0
VERTEX
  8
7
  10
118.232
  20
42.942
  0
VERTEX
  8
7
  10
118.232
  20
42.942
  0
VERTEX
  8
7
  10
118.232
  20
42.917
  0
VERTEX
  8
7
  10
118.232
  20
42.917
  0
VERTEX
  8
7
  10
118.232
  20
42.892
  0
VERTEX
  8
7
  10
118.232
  20
42.892
  0
VERTEX
  8
7
  10
118.232
  20
42.866
  0
VERTEX
  8
7
  10
118.232
  20
42.866
  0
VERTEX
  8
7
  10
118.232
  20
42.739
  0
VERTEX
  8
7
  10
118.207
  20
42.612
  0
VERTEX
  8
7
  10
118.181
  20
42.510
  0
VERTEX
  8
7
  10
118.156
  20
42.383
  0
VERTEX
  8
7
  10
118.105
  20
42.282
  0
VERTEX
  8
7
  10
118.029
  20
42.180
  0
VERTEX
  8
7
  10
117.953
  20
42.078
  0
VERTEX
  8
7
  10
117.876
  20
42.002
  0
VERTEX
  8
7
  10
117.800
  20
41.926
  0
VERTEX
  8
7
  10
117.699
  20
41.850
  0
VERTEX
  8
7
  10
117.597
  20
41.774
  0
VERTEX
  8
7
  10
117.495
  20
41.723
  0
VERTEX
  8
7
  10
117.368
  20
41.697
  0
VERTEX
  8
7
  10
117.267
  20
41.697
  0
VERTEX
  8
7
  10
117.140
  20
41.672
  0
VERTEX
  8
7
  10
117.013
  20
41.672
  0
VERTEX
  8
7
  10
116.886
  20
41.672
  0
VERTEX
  8
7
  10
116.733
  20
41.697
  0
VERTEX
  8
7
  10
116.581
  20
41.723
  0
VERTEX
  8
7
  10
116.454
  20
41.774
  0
VERTEX
  8
7
  10
116.301
  20
41.850
  0
VERTEX
  8
7
  10
116.199
  20
41.951
  0
VERTEX
  8
7
  10
116.072
  20
42.078
  0
VERTEX
  8
7
  10
115.996
  20
42.206
  0
VERTEX
  8
7
  10
115.920
  20
42.358
  0
VERTEX
  8
7
  10
115.869
  20
42.536
  0
VERTEX
  8
7
  10
115.818
  20
42.714
  0
VERTEX
  8
7
  10
115.818
  20
42.892
  0
SEQEND
  0
POLYLINE
  8
7
  6
CONTINUOUS
 66
  1
  0
VERTEX
  8
7
  10
116.123
  20
42.866
  0
VERTEX
  8
7
  10
116.123
  20
42.739
  0
VERTEX
  8
7
  10
116.149
  20
42.612
  0
VERTEX
  8
7
  10
116.199
  20
42.485
  0
VERTEX
  8
7
  10
116.250
  20
42.383
  0
VERTEX
  8
7
  10
116.301
  20
42.282
  0
VERTEX
  8
7
  10
116.377
  20
42.180
  0
VERTEX
  8
7
  10
116.479
  20
42.104
  0
VERTEX
  8
7
  10
116.581
  20
42.053
  0
VERTEX
  8
7
  10
116.682
  20
42.002
  0
VERTEX
  8
7
  10
116.784
  20
41.951
  0
VERTEX
  8
7
  10
116.911
  20
41.926
  0
VERTEX
  8
7
  10
117.038
  20
41.926
  0
VERTEX
  8
7
  10
117.140
  20
41.926
  0
VERTEX
  8
7
  10
117.241
  20
41.951
  0
VERTEX
  8
7
  10
117.343
  20
42.002
  0
VERTEX
  8
7
  10
117.445
  20
42.028
  0
VERTEX
  8
7
  10
117.546
  20
42.104
  0
VERTEX
  8
7
  10
117.622
  20
42.180
  0
VERTEX
  8
7
  10
117.699
  20
42.256
  0
VERTEX
  8
7
  10
117.775
  20
42.358
  0
VERTEX
  8
7
  10
117.851
  20
42.485
  0
VERTEX
  8
7
  10
117.902
  20
42.587
  0
VERTEX
  8
7
  10
117.927
  20
42.714
  0
VERTEX
  8
7
  10
117.927
  20
42.866
  0
VERTEX
  8
7
  10
117.927
  20
42.968
  0
VERTEX
  8
7
  10
117.902
  20
43.044
  0
VERTEX
  8
7
  10
117.876
  20
43.120
  0
VERTEX
  8
7
  10
117.851
  20
43.197
  0
VERTEX
  8
7
  10
117.800
  20
43.273
  0
VERTEX
  8
7
  10
117.749
  20
43.349
  0
VERTEX
  8
7
  10
117.699
  20
43.425
  0
VERTEX
  8
7
  10
117.648
  20
43.476
  0
VERTEX
  8
7
  10
117.597
  20
43.552
  0
VERTEX
  8
7
  10
117.521
  20
43.603
  0
VERTEX
  8
7
  10
117.445
  20
43.628
  0
VERTEX
  8
7
  10
117.368
  20
43.679
  0
VERTEX
  8
7
  10
117.292
  20
43.705
  0
VERTEX
  8
7
  10
117.216
  20
43.730
  0
VERTEX
  8
7
  10
117.114
  20
43.756
  0
VERTEX
  8
7
  10
117.038
  20
43.756
  0
VERTEX
  8
7
  10
116.936
  20
43.756
  0
VERTEX
  8
7
  10
116.809
  20
43.730
  0
VERTEX
  8
7
  10
116.708
  20
43.679
  0
VERTEX
  8
7
  10
116.581
  20
43.628
  0
VERTEX
  8
7
  10
116.479
  20
43.578
  0
VERTEX
  8
7
  10
116.403
  20
43.501
  0
VERTEX
  8
7
  10
116.326
  20
43.425
  0
VERTEX
  8
7
  10
116.250
  20
43.324
  0
VERTEX
  8
7
  10
116.199
  20
43.222
  0
VERTEX
  8
7
  10
116.149
  20
43.120
  0
VERTEX
  8
7
  10
116.123
  20
42.993
  0
VERTEX
  8
7
  10
116.123
  20
42.866
  0
SEQEND
  0
POLYLINE
  8
7
  6
CONTINUOUS
 66
  1
  0
VERTEX
  8
7
  10
118.664
  20
41.697
  0
VERTEX
  8
7
  10
118.664
  20
44.010
  0
VERTEX
  8
7
  10
118.969
  20
44.010
  0
VERTEX
  8
7
  10
118.969
  20
43.654
  0
VERTEX
  8
7
  10
119.020
  20
43.756
  0
VERTEX
  8
7
  10
119.096
  20
43.832
  0
VERTEX
  8
7
  10
119.172
  20
43.908
  0
VERTEX
  8
7
  10
119.274
  20
43.959
  0
VERTEX
  8
7
  10
119.376
  20
43.984
  0
VERTEX
  8
7
  10
119.477
  20
44.035
  0
VERTEX
  8
7
  10
119.604
  20
44.060
  0
VERTEX
  8
7
  10
119.706
  20
44.060
  0
VERTEX
  8
7
  10
119.808
  20
44.060
  0
VERTEX
  8
7
  10
119.909
  20
44.035
  0
VERTEX
  8
7
  10
119.986
  20
44.010
  0
VERTEX
  8
7
  10
120.087
  20
43.984
  0
VERTEX
  8
7
  10
120.163
  20
43.933
  0
VERTEX
  8
7
  10
120.240
  20
43.908
  0
VERTEX
  8
7
  10
120.316
  20
43.857
  0
VERTEX
  8
7
  10
120.392
  20
43.781
  0
VERTEX
  8
7
  10
120.468
  20
43.705
  0
VERTEX
  8
7
  10
120.519
  20
43.628
  0
VERTEX
  8
7
  10
120.570
  20
43.552
  0
VERTEX
  8
7
  10
120.621
  20
43.451
  0
VERTEX
  8
7
  10
120.672
  20
43.349
  0
VERTEX
  8
7
  10
120.697
  20
43.247
  0
VERTEX
  8
7
  10
120.722
  20
43.120
  0
VERTEX
  8
7
  10
120.722
  20
42.993
  0
VERTEX
  8
7
  10
120.722
  20
41.697
  0
VERTEX
  8
7
  10
120.417
  20
41.697
  0
VERTEX
  8
7
  10
120.417
  20
42.993
  0
VERTEX
  8
7
  10
120.417
  20
43.095
  0
VERTEX
  8
7
  10
120.392
  20
43.222
  0
VERTEX
  8
7
  10
120.341
  20
43.324
  0
VERTEX
  8
7
  10
120.316
  20
43.400
  0
VERTEX
  8
7
  10
120.265
  20
43.476
  0
VERTEX
  8
7
  10
120.189
  20
43.552
  0
VERTEX
  8
7
  10
120.113
  20
43.603
  0
VERTEX
  8
7
  10
120.036
  20
43.654
  0
VERTEX
  8
7
  10
119.960
  20
43.705
  0
VERTEX
  8
7
  10
119.858
  20
43.730
  0
VERTEX
  8
7
  10
119.782
  20
43.756
  0
VERTEX
  8
7
  10
119.681
  20
43.756
  0
VERTEX
  8
7
  10
119.579
  20
43.756
  0
VERTEX
  8
7
  10
119.503
  20
43.730
  0
VERTEX
  8
7
  10
119.427
  20
43.705
  0
VERTEX
  8
7
  10
119.325
  20
43.654
  0
VERTEX
  8
7
  10
119.249
  20
43.603
  0
VERTEX
  8
7
  10
119.198
  20
43.552
  0
VERTEX
  8
7
  10
119.122
  20
43.501
  0
VERTEX
  8
7
  10
119.071
  20
43.425
  0
VERTEX
  8
7
  10
119.045
  20
43.349
  0
VERTEX
  8
7
  10
118.995
  20
43.247
  0
VERTEX
  8
7
  10
118.969
  20
43.146
  0
VERTEX
  8
7
  10
118.969
  20
43.044
  0
VERTEX
  8
7
  10
118.969
  20
41.697
  0
VERTEX
  8
7
  10
118.664
  20
41.697
  0
SEQEND
  0
POLYLINE
  8
7
  6
CONTINUOUS
 66
  1
  0
VERTEX
  8
7
  10
125.093
  20
42.104
  0
VERTEX
  8
7
  10
125.881
  20
44.823
  0
VERTEX
  8
7
  10
126.186
  20
44.823
  0
VERTEX
  8
7
  10
125.296
  20
41.697
  0
VERTEX
  8
7
  10
124.890
  20
41.697
  0
VERTEX
  8
7
  10
124.204
  20
44.264
  0
VERTEX
  8
7
  10
123.492
  20
41.697
  0
VERTEX
  8
7
  10
123.086
  20
41.697
  0
VERTEX
  8
7
  10
122.196
  20
44.823
  0
VERTEX
  8
7
  10
122.527
  20
44.823
  0
VERTEX
  8
7
  10
123.289
  20
42.104
  0
VERTEX
  8
7
  10
124.051
  20
44.823
  0
VERTEX
  8
7
  10
124.356
  20
44.823
  0
VERTEX
  8
7
  10
125.093
  20
42.104
  0
SEQEND
  0
POLYLINE
  8
7
  6
CONTINUOUS
 66
  1
  0
VERTEX
  8
7
  10
126.211
  20
42.866
  0
VERTEX
  8
7
  10
126.211
  20
42.993
  0
VERTEX
  8
7
  10
126.236
  20
43.120
  0
VERTEX
  8
7
  10
126.262
  20
43.247
  0
VERTEX
  8
7
  10
126.313
  20
43.374
  0
VERTEX
  8
7
  10
126.363
  20
43.476
  0
VERTEX
  8
7
  10
126.440
  20
43.552
  0
VERTEX
  8
7
  10
126.516
  20
43.654
  0
VERTEX
  8
7
  10
126.592
  20
43.730
  0
VERTEX
  8
7
  10
126.668
  20
43.806
  0
VERTEX
  8
7
  10
126.770
  20
43.883
  0
VERTEX
  8
7
  10
126.872
  20
43.933
  0
VERTEX
  8
7
  10
126.973
  20
43.984
  0
VERTEX
  8
7
  10
127.075
  20
44.010
  0
VERTEX
  8
7
  10
127.177
  20
44.035
  0
VERTEX
  8
7
  10
127.304
  20
44.060
  0
VERTEX
  8
7
  10
127.405
  20
44.060
  0
VERTEX
  8
7
  10
127.558
  20
44.060
  0
VERTEX
  8
7
  10
127.710
  20
44.035
  0
VERTEX
  8
7
  10
127.837
  20
43.984
  0
VERTEX
  8
7
  10
127.990
  20
43.933
  0
VERTEX
  8
7
  10
128.117
  20
43.857
  0
VERTEX
  8
7
  10
128.244
  20
43.756
  0
VERTEX
  8
7
  10
128.345
  20
43.628
  0
VERTEX
  8
7
  10
128.447
  20
43.476
  0
VERTEX
  8
7
  10
128.523
  20
43.324
  0
VERTEX
  8
7
  10
128.574
  20
43.171
  0
VERTEX
  8
7
  10
128.600
  20
42.993
  0
VERTEX
  8
7
  10
128.625
  20
42.790
  0
VERTEX
  8
7
  10
128.625
  20
42.739
  0
VERTEX
  8
7
  10
126.516
  20
42.739
  0
VERTEX
  8
7
  10
126.541
  20
42.612
  0
VERTEX
  8
7
  10
126.567
  20
42.485
  0
VERTEX
  8
7
  10
126.618
  20
42.383
  0
VERTEX
  8
7
  10
126.668
  20
42.307
  0
VERTEX
  8
7
  10
126.745
  20
42.206
  0
VERTEX
  8
7
  10
126.821
  20
42.129
  0
VERTEX
  8
7
  10
126.897
  20
42.078
  0
VERTEX
  8
7
  10
126.999
  20
42.028
  0
VERTEX
  8
7
  10
127.100
  20
42.002
  0
VERTEX
  8
7
  10
127.202
  20
41.951
  0
VERTEX
  8
7
  10
127.304
  20
41.926
  0
VERTEX
  8
7
  10
127.405
  20
41.926
  0
VERTEX
  8
7
  10
127.481
  20
41.926
  0
VERTEX
  8
7
  10
127.583
  20
41.951
  0
VERTEX
  8
7
  10
127.659
  20
41.977
  0
VERTEX
  8
7
  10
127.736
  20
42.002
  0
VERTEX
  8
7
  10
127.837
  20
42.053
  0
VERTEX
  8
7
  10
127.913
  20
42.078
  0
VERTEX
  8
7
  10
127.990
  20
42.129
  0
VERTEX
  8
7
  10
128.040
  20
42.180
  0
VERTEX
  8
7
  10
128.091
  20
42.231
  0
VERTEX
  8
7
  10
128.142
  20
42.307
  0
VERTEX
  8
7
  10
128.193
  20
42.383
  0
VERTEX
  8
7
  10
128.218
  20
42.460
  0
VERTEX
  8
7
  10
128.549
  20
42.460
  0
VERTEX
  8
7
  10
128.498
  20
42.333
  0
VERTEX
  8
7
  10
128.422
  20
42.206
  0
VERTEX
  8
7
  10
128.345
  20
42.104
  0
VERTEX
  8
7
  10
128.269
  20
42.002
  0
VERTEX
  8
7
  10
128.168
  20
41.901
  0
VERTEX
  8
7
  10
128.066
  20
41.824
  0
VERTEX
  8
7
  10
127.939
  20
41.774
  0
VERTEX
  8
7
  10
127.837
  20
41.723
  0
VERTEX
  8
7
  10
127.736
  20
41.697
  0
VERTEX
  8
7
  10
127.609
  20
41.697
  0
VERTEX
  8
7
  10
127.507
  20
41.672
  0
VERTEX
  8
7
  10
127.380
  20
41.672
  0
VERTEX
  8
7
  10
127.227
  20
41.672
  0
VERTEX
  8
7
  10
127.075
  20
41.697
  0
VERTEX
  8
7
  10
126.922
  20
41.748
  0
VERTEX
  8
7
  10
126.795
  20
41.799
  0
VERTEX
  8
7
  10
126.668
  20
41.875
  0
VERTEX
  8
7
  10
126.541
  20
41.977
  0
VERTEX
  8
7
  10
126.440
  20
42.104
  0
VERTEX
  8
7
  10
126.363
  20
42.231
  0
VERTEX
  8
7
  10
126.287
  20
42.358
  0
VERTEX
  8
7
  10
126.262
  20
42.510
  0
VERTEX
  8
7
  10
126.211
  20
42.688
  0
VERTEX
  8
7
  10
126.211
  20
42.866
  0
SEQEND
  0
POLYLINE
  8
7
  6
CONTINUOUS
 66
  1
  0
VERTEX
  8
7
  10
128.320
  20
43.019
  0
VERTEX
  8
7
  10
128.295
  20
43.120
  0
VERTEX
  8
7
  10
128.244
  20
43.222
  0
VERTEX
  8
7
  10
128.193
  20
43.298
  0
VERTEX
  8
7
  10
128.142
  20
43.400
  0
VERTEX
  8
7
  10
128.091
  20
43.476
  0
VERTEX
  8
7
  10
128.015
  20
43.552
  0
VERTEX
  8
7
  10
127.939
  20
43.603
  0
VERTEX
  8
7
  10
127.837
  20
43.654
  0
VERTEX
  8
7
  10
127.736
  20
43.705
  0
VERTEX
  8
7
  10
127.634
  20
43.730
  0
VERTEX
  8
7
  10
127.507
  20
43.756
  0
VERTEX
  8
7
  10
127.405
  20
43.756
  0
VERTEX
  8
7
  10
127.253
  20
43.756
  0
VERTEX
  8
7
  10
127.126
  20
43.730
  0
VERTEX
  8
7
  10
127.024
  20
43.679
  0
VERTEX
  8
7
  10
126.922
  20
43.628
  0
VERTEX
  8
7
  10
126.821
  20
43.552
  0
VERTEX
  8
7
  10
126.745
  20
43.476
  0
VERTEX
  8
7
  10
126.668
  20
43.400
  0
VERTEX
  8
7
  10
126.618
  20
43.298
  0
VERTEX
  8
7
  10
126.592
  20
43.222
  0
VERTEX
  8
7
  10
126.541
  20
43.146
  0
VERTEX
  8
7
  10
126.516
  20
43.069
  0
VERTEX
  8
7
  10
126.516
  20
43.019
  0
VERTEX
  8
7
  10
128.320
  20
43.019
  0
SEQEND
  0
POLYLINE
  8
7
  6
CONTINUOUS
 66
  1
  0
VERTEX
  8
7
  10
129.057
  20
41.697
  0
VERTEX
  8
7
  10
129.057
  20
44.823
  0
VERTEX
  8
7
  10
129.362
  20
44.823
  0
VERTEX
  8
7
  10
129.362
  20
41.697
  0
VERTEX
  8
7
  10
129.057
  20
41.697
  0
SEQEND
  0
POLYLINE
  8
7
  6
CONTINUOUS
 66
  1
  0
VERTEX
  8
7
  10
129.895
  20
41.697
  0
VERTEX
  8
7
  10
129.895
  20
44.823
  0
VERTEX
  8
7
  10
130.200
  20
44.823
  0
VERTEX
  8
7
  10
130.200
  20
41.697
  0
VERTEX
  8
7
  10
129.895
  20
41.697
  0
SEQEND
  0
POLYLINE
  8
7
  6
CONTINUOUS
 66
  1
  0
VERTEX
  8
7
  10
96.126
  20
37.454
  0
VERTEX
  8
7
  10
96.126
  20
40.579
  0
VERTEX
  8
7
  10
96.964
  20
40.579
  0
VERTEX
  8
7
  10
97.142
  20
40.579
  0
VERTEX
  8
7
  10
97.294
  20
40.554
  0
VERTEX
  8
7
  10
97.447
  20
40.528
  0
VERTEX
  8
7
  10
97.599
  20
40.503
  0
VERTEX
  8
7
  10
97.726
  20
40.452
  0
VERTEX
  8
7
  10
97.828
  20
40.401
  0
VERTEX
  8
7
  10
97.930
  20
40.325
  0
VERTEX
  8
7
  10
98.031
  20
40.224
  0
VERTEX
  8
7
  10
98.108
  20
40.122
  0
VERTEX
  8
7
  10
98.158
  20
39.995
  0
VERTEX
  8
7
  10
98.184
  20
39.842
  0
VERTEX
  8
7
  10
98.209
  20
39.690
  0
VERTEX
  8
7
  10
98.209
  20
39.665
  0
VERTEX
  8
7
  10
98.209
  20
39.665
  0
VERTEX
  8
7
  10
98.209
  20
39.639
  0
VERTEX
  8
7
  10
98.209
  20
39.614
  0
VERTEX
  8
7
  10
98.209
  20
39.487
  0
VERTEX
  8
7
  10
98.184
  20
39.360
  0
VERTEX
  8
7
  10
98.133
  20
39.258
  0
VERTEX
  8
7
  10
98.082
  20
39.131
  0
VERTEX
  8
7
  10
98.006
  20
39.029
  0
VERTEX
  8
7
  10
97.904
  20
38.953
  0
VERTEX
  8
7
  10
97.803
  20
38.877
  0
VERTEX
  8
7
  10
97.701
  20
38.826
  0
VERTEX
  8
7
  10
97.574
  20
38.775
  0
VERTEX
  8
7
  10
97.421
  20
38.724
  0
VERTEX
  8
7
  10
97.269
  20
38.699
  0
VERTEX
  8
7
  10
97.117
  20
38.699
  0
VERTEX
  8
7
  10
96.456
  20
38.699
  0
VERTEX
  8
7
  10
96.456
  20
37.454
  0
VERTEX
  8
7
  10
96.126
  20
37.454
  0
SEQEND
  0
POLYLINE
  8
7
  6
CONTINUOUS
 66
  1
  0
VERTEX
  8
7
  10
96.456
  20
40.300
  0
VERTEX
  8
7
  10
96.456
  20
38.978
  0
VERTEX
  8
7
  10
97.091
  20
38.978
  0
VERTEX
  8
7
  10
97.294
  20
39.004
  0
VERTEX
  8
7
  10
97.447
  20
39.029
  0
VERTEX
  8
7
  10
97.599
  20
39.105
  0
VERTEX
  8
7
  10
97.701
  20
39.182
  0
VERTEX
  8
7
  10
97.777
  20
39.283
  0
VERTEX
  8
7
  10
97.853
  20
39.410
  0
VERTEX
  8
7
  10
97.879
  20
39.537
  0
VERTEX
  8
7
  10
97.904
  20
39.690
  0
VERTEX
  8
7
  10
97.879
  20
39.842
  0
VERTEX
  8
7
  10
97.828
  20
39.969
  0
VERTEX
  8
7
  10
97.752
  20
40.096
  0
VERTEX
  8
7
  10
97.650
  20
40.173
  0
VERTEX
  8
7
  10
97.523
  20
40.224
  0
VERTEX
  8
7
  10
97.371
  20
40.274
  0
VERTEX
  8
7
  10
97.193
  20
40.300
  0
VERTEX
  8
7
  10
96.989
  20
40.300
  0
VERTEX
  8
7
  10
96.456
  20
40.300
  0
SEQEND
  0
POLYLINE
  8
7
  6
CONTINUOUS
 66
  1
  0
VERTEX
  8
7
  10
98.590
  20
38.369
  0
VERTEX
  8
7
  10
98.590
  20
39.766
  0
VERTEX
  8
7
  10
98.895
  20
39.766
  0
VERTEX
  8
7
  10
98.895
  20
38.419
  0
VERTEX
  8
7
  10
98.921
  20
38.267
  0
VERTEX
  8
7
  10
98.946
  20
38.115
  0
VERTEX
  8
7
  10
99.022
  20
37.987
  0
VERTEX
  8
7
  10
99.099
  20
37.886
  0
VERTEX
  8
7
  10
99.226
  20
37.810
  0
VERTEX
  8
7
  10
99.327
  20
37.733
  0
VERTEX
  8
7
  10
99.454
  20
37.708
  0
VERTEX
  8
7
  10
99.607
  20
37.683
  0
VERTEX
  8
7
  10
99.708
  20
37.683
  0
VERTEX
  8
7
  10
99.785
  20
37.708
  0
VERTEX
  8
7
  10
99.861
  20
37.733
  0
VERTEX
  8
7
  10
99.962
  20
37.784
  0
VERTEX
  8
7
  10
100.039
  20
37.835
  0
VERTEX
  8
7
  10
100.115
  20
37.886
  0
VERTEX
  8
7
  10
100.166
  20
37.962
  0
VERTEX
  8
7
  10
100.217
  20
38.038
  0
VERTEX
  8
7
  10
100.267
  20
38.140
  0
VERTEX
  8
7
  10
100.293
  20
38.242
  0
VERTEX
  8
7
  10
100.318
  20
38.369
  0
VERTEX
  8
7
  10
100.318
  20
38.496
  0
VERTEX
  8
7
  10
100.318
  20
39.766
  0
VERTEX
  8
7
  10
100.649
  20
39.766
  0
VERTEX
  8
7
  10
100.649
  20
37.454
  0
VERTEX
  8
7
  10
100.344
  20
37.454
  0
VERTEX
  8
7
  10
100.344
  20
37.810
  0
VERTEX
  8
7
  10
100.293
  20
37.708
  0
VERTEX
  8
7
  10
100.217
  20
37.632
  0
VERTEX
  8
7
  10
100.140
  20
37.555
  0
VERTEX
  8
7
  10
100.039
  20
37.505
  0
VERTEX
  8
7
  10
99.937
  20
37.479
  0
VERTEX
  8
7
  10
99.835
  20
37.428
  0
VERTEX
  8
7
  10
99.708
  20
37.403
  0
VERTEX
  8
7
  10
99.581
  20
37.403
  0
VERTEX
  8
7
  10
99.454
  20
37.403
  0
VERTEX
  8
7
  10
99.353
  20
37.428
  0
VERTEX
  8
7
  10
99.226
  20
37.479
  0
VERTEX
  8
7
  10
99.099
  20
37.505
  0
VERTEX
  8
7
  10
98.997
  20
37.555
  0
VERTEX
  8
7
  10
98.895
  20
37.632
  0
VERTEX
  8
7
  10
98.819
  20
37.733
  0
VERTEX
  8
7
  10
98.743
  20
37.835
  0
VERTEX
  8
7
  10
98.667
  20
37.962
  0
VERTEX
  8
7
  10
98.641
  20
38.089
  0
VERTEX
  8
7
  10
98.590
  20
38.216
  0
VERTEX
  8
7
  10
98.590
  20
38.369
  0
SEQEND
  0
POLYLINE
  8
7
  6
CONTINUOUS
 66
  1
  0
VERTEX
  8
7
  10
101.157
  20
39.766
  0
VERTEX
  8
7
  10
101.462
  20
39.766
  0
VERTEX
  8
7
  10
101.462
  20
39.436
  0
VERTEX
  8
7
  10
101.512
  20
39.537
  0
VERTEX
  8
7
  10
101.563
  20
39.614
  0
VERTEX
  8
7
  10
101.640
  20
39.665
  0
VERTEX
  8
7
  10
101.716
  20
39.715
  0
VERTEX
  8
7
  10
101.792
  20
39.766
  0
VERTEX
  8
7
  10
101.894
  20
39.792
  0
VERTEX
  8
7
  10
101.970
  20
39.817
  0
VERTEX
  8
7
  10
102.071
  20
39.817
  0
VERTEX
  8
7
  10
102.199
  20
39.817
  0
VERTEX
  8
7
  10
102.300
  20
39.792
  0
VERTEX
  8
7
  10
102.427
  20
39.741
  0
VERTEX
  8
7
  10
102.529
  20
39.690
  0
VERTEX
  8
7
  10
102.630
  20
39.639
  0
VERTEX
  8
7
  10
102.732
  20
39.563
  0
VERTEX
  8
7
  10
102.808
  20
39.461
  0
VERTEX
  8
7
  10
102.885
  20
39.360
  0
VERTEX
  8
7
  10
102.961
  20
39.461
  0
VERTEX
  8
7
  10
103.037
  20
39.563
  0
VERTEX
  8
7
  10
103.113
  20
39.639
  0
VERTEX
  8
7
  10
103.215
  20
39.690
  0
VERTEX
  8
7
  10
103.317
  20
39.741
  0
VERTEX
  8
7
  10
103.418
  20
39.766
  0
VERTEX
  8
7
  10
103.520
  20
39.792
  0
VERTEX
  8
7
  10
103.621
  20
39.792
  0
VERTEX
  8
7
  10
103.723
  20
39.792
  0
VERTEX
  8
7
  10
103.825
  20
39.792
  0
VERTEX
  8
7
  10
103.901
  20
39.766
  0
VERTEX
  8
7
  10
104.003
  20
39.741
  0
VERTEX
  8
7
  10
104.079
  20
39.690
  0
VERTEX
  8
7
  10
104.155
  20
39.665
  0
VERTEX
  8
7
  10
104.231
  20
39.614
  0
VERTEX
  8
7
  10
104.308
  20
39.537
  0
VERTEX
  8
7
  10
104.358
  20
39.487
  0
VERTEX
  8
7
  10
104.409
  20
39.410
  0
VERTEX
  8
7
  10
104.460
  20
39.334
  0
VERTEX
  8
7
  10
104.511
  20
39.258
  0
VERTEX
  8
7
  10
104.562
  20
39.182
  0
VERTEX
  8
7
  10
104.587
  20
39.080
  0
VERTEX
  8
7
  10
104.612
  20
39.004
  0
VERTEX
  8
7
  10
104.612
  20
38.902
  0
VERTEX
  8
7
  10
104.612
  20
37.454
  0
VERTEX
  8
7
  10
104.308
  20
37.454
  0
VERTEX
  8
7
  10
104.308
  20
38.851
  0
VERTEX
  8
7
  10
104.308
  20
38.953
  0
VERTEX
  8
7
  10
104.282
  20
39.029
  0
VERTEX
  8
7
  10
104.231
  20
39.131
  0
VERTEX
  8
7
  10
104.206
  20
39.207
  0
VERTEX
  8
7
  10
104.155
  20
39.283
  0
VERTEX
  8
7
  10
104.104
  20
39.334
  0
VERTEX
  8
7
  10
104.028
  20
39.385
  0
VERTEX
  8
7
  10
103.952
  20
39.436
  0
VERTEX
  8
7
  10
103.876
  20
39.461
  0
VERTEX
  8
7
  10
103.799
  20
39.487
  0
VERTEX
  8
7
  10
103.723
  20
39.512
  0
VERTEX
  8
7
  10
103.647
  20
39.512
  0
VERTEX
  8
7
  10
103.571
  20
39.512
  0
VERTEX
  8
7
  10
103.494
  20
39.487
  0
VERTEX
  8
7
  10
103.418
  20
39.461
  0
VERTEX
  8
7
  10
103.342
  20
39.436
  0
VERTEX
  8
7
  10
103.291
  20
39.385
  0
VERTEX
  8
7
  10
103.240
  20
39.360
  0
VERTEX
  8
7
  10
103.190
  20
39.309
  0
VERTEX
  8
7
  10
103.139
  20
39.233
  0
VERTEX
  8
7
  10
103.088
  20
39.156
  0
VERTEX
  8
7
  10
103.062
  20
39.080
  0
VERTEX
  8
7
  10
103.037
  20
39.004
  0
VERTEX
  8
7
  10
103.037
  20
38.928
  0
VERTEX
  8
7
  10
103.037
  20
37.454
  0
VERTEX
  8
7
  10
102.732
  20
37.454
  0
VERTEX
  8
7
  10
102.732
  20
38.877
  0
VERTEX
  8
7
  10
102.732
  20
38.978
  0
VERTEX
  8
7
  10
102.707
  20
39.055
  0
VERTEX
  8
7
  10
102.656
  20
39.131
  0
VERTEX
  8
7
  10
102.630
  20
39.207
  0
VERTEX
  8
7
  10
102.580
  20
39.283
  0
VERTEX
  8
7
  10
102.529
  20
39.334
  0
VERTEX
  8
7
  10
102.453
  20
39.385
  0
VERTEX
  8
7
  10
102.376
  20
39.436
  0
VERTEX
  8
7
  10
102.300
  20
39.461
  0
VERTEX
  8
7
  10
102.224
  20
39.487
  0
VERTEX
  8
7
  10
102.148
  20
39.512
  0
VERTEX
  8
7
  10
102.046
  20
39.512
  0
VERTEX
  8
7
  10
101.970
  20
39.512
  0
VERTEX
  8
7
  10
101.894
  20
39.487
  0
VERTEX
  8
7
  10
101.817
  20
39.461
  0
VERTEX
  8
7
  10
101.767
  20
39.436
  0
VERTEX
  8
7
  10
101.690
  20
39.385
  0
VERTEX
  8
7
  10
101.640
  20
39.334
  0
VERTEX
  8
7
  10
101.614
  20
39.283
  0
VERTEX
  8
7
  10
101.563
  20
39.233
  0
VERTEX
  8
7
  10
101.512
  20
39.156
  0
VERTEX
  8
7
  10
101.487
  20
39.055
  0
VERTEX
  8
7
  10
101.462
  20
38.978
  0
VERTEX
  8
7
  10
101.462
  20
38.877
  0
VERTEX
  8
7
  10
101.462
  20
37.454
  0
VERTEX
  8
7
  10
101.157
  20
37.454
  0
VERTEX
  8
7
  10
101.157
  20
39.766
  0
SEQEND
  0
POLYLINE
  8
7
  6
CONTINUOUS
 66
  1
  0
VERTEX
  8
7
  10
105.171
  20
36.666
  0
VERTEX
  8
7
  10
105.171
  20
39.766
  0
VERTEX
  8
7
  10
105.451
  20
39.766
  0
VERTEX
  8
7
  10
105.451
  20
39.360
  0
VERTEX
  8
7
  10
105.502
  20
39.436
  0
VERTEX
  8
7
  10
105.578
  20
39.487
  0
VERTEX
  8
7
  10
105.629
  20
39.563
  0
VERTEX
  8
7
  10
105.705
  20
39.614
  0
VERTEX
  8
7
  10
105.781
  20
39.665
  0
VERTEX
  8
7
  10
105.858
  20
39.715
  0
VERTEX
  8
7
  10
105.934
  20
39.741
  0
VERTEX
  8
7
  10
106.010
  20
39.766
  0
VERTEX
  8
7
  10
106.086
  20
39.792
  0
VERTEX
  8
7
  10
106.188
  20
39.792
  0
VERTEX
  8
7
  10
106.264
  20
39.817
  0
VERTEX
  8
7
  10
106.340
  20
39.817
  0
VERTEX
  8
7
  10
106.467
  20
39.817
  0
VERTEX
  8
7
  10
106.569
  20
39.792
  0
VERTEX
  8
7
  10
106.696
  20
39.766
  0
VERTEX
  8
7
  10
106.798
  20
39.741
  0
VERTEX
  8
7
  10
106.899
  20
39.690
  0
VERTEX
  8
7
  10
107.026
  20
39.639
  0
VERTEX
  8
7
  10
107.128
  20
39.563
  0
VERTEX
  8
7
  10
107.204
  20
39.487
  0
VERTEX
  8
7
  10
107.306
  20
39.410
  0
VERTEX
  8
7
  10
107.382
  20
39.334
  0
VERTEX
  8
7
  10
107.458
  20
39.233
  0
VERTEX
  8
7
  10
107.509
  20
39.131
  0
VERTEX
  8
7
  10
107.560
  20
39.004
  0
VERTEX
  8
7
  10
107.585
  20
38.902
  0
VERTEX
  8
7
  10
107.611
  20
38.775
  0
VERTEX
  8
7
  10
107.611
  20
38.648
  0
VERTEX
  8
7
  10
107.611
  20
38.521
  0
VERTEX
  8
7
  10
107.585
  20
38.394
  0
VERTEX
  8
7
  10
107.560
  20
38.267
  0
VERTEX
  8
7
  10
107.535
  20
38.140
  0
VERTEX
  8
7
  10
107.484
  20
38.038
  0
VERTEX
  8
7
  10
107.408
  20
37.937
  0
VERTEX
  8
7
  10
107.331
  20
37.835
  0
VERTEX
  8
7
  10
107.255
  20
37.759
  0
VERTEX
  8
7
  10
107.179
  20
37.683
  0
VERTEX
  8
7
  10
107.077
  20
37.606
  0
VERTEX
  8
7
  10
106.950
  20
37.530
  0
VERTEX
  8
7
  10
106.849
  20
37.479
  0
VERTEX
  8
7
  10
106.747
  20
37.454
  0
VERTEX
  8
7
  10
106.620
  20
37.454
  0
VERTEX
  8
7
  10
106.518
  20
37.428
  0
VERTEX
  8
7
  10
106.391
  20
37.428
  0
VERTEX
  8
7
  10
106.239
  20
37.428
  0
VERTEX
  8
7
  10
106.086
  20
37.454
  0
VERTEX
  8
7
  10
105.959
  20
37.479
  0
VERTEX
  8
7
  10
105.832
  20
37.530
  0
VERTEX
  8
7
  10
105.731
  20
37.606
  0
VERTEX
  8
7
  10
105.629
  20
37.683
  0
VERTEX
  8
7
  10
105.553
  20
37.784
  0
VERTEX
  8
7
  10
105.476
  20
37.886
  0
VERTEX
  8
7
  10
105.476
  20
36.666
  0
VERTEX
  8
7
  10
105.171
  20
36.666
  0
SEQEND
  0
POLYLINE
  8
7
  6
CONTINUOUS
 66
  1
  0
VERTEX
  8
7
  10
105.451
  20
38.597
  0
VERTEX
  8
7
  10
105.451
  20
38.496
  0
VERTEX
  8
7
  10
105.476
  20
38.394
  0
VERTEX
  8
7
  10
105.527
  20
38.292
  0
VERTEX
  8
7
  10
105.553
  20
38.191
  0
VERTEX
  8
7
  10
105.603
  20
38.089
  0
VERTEX
  8
7
  10
105.680
  20
37.987
  0
VERTEX
  8
7
  10
105.756
  20
37.911
  0
VERTEX
  8
7
  10
105.858
  20
37.835
  0
VERTEX
  8
7
  10
105.985
  20
37.784
  0
VERTEX
  8
7
  10
106.112
  20
37.733
  0
VERTEX
  8
7
  10
106.239
  20
37.708
  0
VERTEX
  8
7
  10
106.391
  20
37.683
  0
VERTEX
  8
7
  10
106.493
  20
37.683
  0
VERTEX
  8
7
  10
106.620
  20
37.708
  0
VERTEX
  8
7
  10
106.722
  20
37.759
  0
VERTEX
  8
7
  10
106.823
  20
37.810
  0
VERTEX
  8
7
  10
106.925
  20
37.860
  0
VERTEX
  8
7
  10
107.026
  20
37.937
  0
VERTEX
  8
7
  10
107.103
  20
38.038
  0
VERTEX
  8
7
  10
107.153
  20
38.140
  0
VERTEX
  8
7
  10
107.204
  20
38.242
  0
VERTEX
  8
7
  10
107.255
  20
38.343
  0
VERTEX
  8
7
  10
107.281
  20
38.470
  0
VERTEX
  8
7
  10
107.281
  20
38.597
  0
VERTEX
  8
7
  10
107.281
  20
38.724
  0
VERTEX
  8
7
  10
107.255
  20
38.826
  0
VERTEX
  8
7
  10
107.230
  20
38.953
  0
VERTEX
  8
7
  10
107.179
  20
39.055
  0
VERTEX
  8
7
  10
107.103
  20
39.156
  0
VERTEX
  8
7
  10
107.026
  20
39.233
  0
VERTEX
  8
7
  10
106.925
  20
39.309
  0
VERTEX
  8
7
  10
106.823
  20
39.385
  0
VERTEX
  8
7
  10
106.722
  20
39.436
  0
VERTEX
  8
7
  10
106.594
  20
39.487
  0
VERTEX
  8
7
  10
106.493
  20
39.512
  0
VERTEX
  8
7
  10
106.366
  20
39.512
  0
VERTEX
  8
7
  10
106.239
  20
39.512
  0
VERTEX
  8
7
  10
106.112
  20
39.487
  0
VERTEX
  8
7
  10
105.985
  20
39.436
  0
VERTEX
  8
7
  10
105.883
  20
39.360
  0
VERTEX
  8
7
  10
105.781
  20
39.309
  0
VERTEX
  8
7
  10
105.680
  20
39.233
  0
VERTEX
  8
7
  10
105.603
  20
39.131
  0
VERTEX
  8
7
  10
105.553
  20
39.029
  0
VERTEX
  8
7
  10
105.527
  20
38.928
  0
VERTEX
  8
7
  10
105.476
  20
38.826
  0
VERTEX
  8
7
  10
105.451
  20
38.699
  0
VERTEX
  8
7
  10
105.451
  20
38.597
  0
SEQEND
  0
POLYLINE
  8
7
  6
CONTINUOUS
 66
  1
  0
VERTEX
  8
7
  10
108.043
  20
37.454
  0
VERTEX
  8
7
  10
108.043
  20
39.766
  0
VERTEX
  8
7
  10
108.348
  20
39.766
  0
VERTEX
  8
7
  10
108.348
  20
37.454
  0
VERTEX
  8
7
  10
108.043
  20
37.454
  0
SEQEND
  0
POLYLINE
  8
7
  6
CONTINUOUS
 66
  1
  0
VERTEX
  8
7
  10
108.043
  20
40.046
  0
VERTEX
  8
7
  10
108.043
  20
40.579
  0
VERTEX
  8
7
  10
108.348
  20
40.579
  0
VERTEX
  8
7
  10
108.348
  20
40.046
  0
VERTEX
  8
7
  10
108.043
  20
40.046
  0
SEQEND
  0
POLYLINE
  8
7
  6
CONTINUOUS
 66
  1
  0
VERTEX
  8
7
  10
108.881
  20
37.454
  0
VERTEX
  8
7
  10
108.881
  20
39.766
  0
VERTEX
  8
7
  10
109.186
  20
39.766
  0
VERTEX
  8
7
  10
109.186
  20
39.410
  0
VERTEX
  8
7
  10
109.237
  20
39.512
  0
VERTEX
  8
7
  10
109.313
  20
39.588
  0
VERTEX
  8
7
  10
109.390
  20
39.665
  0
VERTEX
  8
7
  10
109.491
  20
39.715
  0
VERTEX
  8
7
  10
109.593
  20
39.741
  0
VERTEX
  8
7
  10
109.694
  20
39.792
  0
VERTEX
  8
7
  10
109.822
  20
39.817
  0
VERTEX
  8
7
  10
109.923
  20
39.817
  0
VERTEX
  8
7
  10
110.025
  20
39.817
  0
VERTEX
  8
7
  10
110.126
  20
39.792
  0
VERTEX
  8
7
  10
110.203
  20
39.766
  0
VERTEX
  8
7
  10
110.304
  20
39.741
  0
VERTEX
  8
7
  10
110.381
  20
39.690
  0
VERTEX
  8
7
  10
110.457
  20
39.665
  0
VERTEX
  8
7
  10
110.533
  20
39.614
  0
VERTEX
  8
7
  10
110.609
  20
39.537
  0
VERTEX
  8
7
  10
110.685
  20
39.461
  0
VERTEX
  8
7
  10
110.736
  20
39.385
  0
VERTEX
  8
7
  10
110.787
  20
39.309
  0
VERTEX
  8
7
  10
110.838
  20
39.207
  0
VERTEX
  8
7
  10
110.889
  20
39.105
  0
VERTEX
  8
7
  10
110.914
  20
39.004
  0
VERTEX
  8
7
  10
110.940
  20
38.877
  0
VERTEX
  8
7
  10
110.940
  20
38.750
  0
VERTEX
  8
7
  10
110.940
  20
37.454
  0
VERTEX
  8
7
  10
110.635
  20
37.454
  0
VERTEX
  8
7
  10
110.635
  20
38.750
  0
VERTEX
  8
7
  10
110.635
  20
38.851
  0
VERTEX
  8
7
  10
110.609
  20
38.978
  0
VERTEX
  8
7
  10
110.558
  20
39.080
  0
VERTEX
  8
7
  10
110.533
  20
39.156
  0
VERTEX
  8
7
  10
110.482
  20
39.233
  0
VERTEX
  8
7
  10
110.406
  20
39.309
  0
VERTEX
  8
7
  10
110.330
  20
39.360
  0
VERTEX
  8
7
  10
110.253
  20
39.410
  0
VERTEX
  8
7
  10
110.177
  20
39.461
  0
VERTEX
  8
7
  10
110.076
  20
39.487
  0
VERTEX
  8
7
  10
109.999
  20
39.512
  0
VERTEX
  8
7
  10
109.898
  20
39.512
  0
VERTEX
  8
7
  10
109.796
  20
39.512
  0
VERTEX
  8
7
  10
109.720
  20
39.487
  0
VERTEX
  8
7
  10
109.644
  20
39.461
  0
VERTEX
  8
7
  10
109.542
  20
39.410
  0
VERTEX
  8
7
  10
109.466
  20
39.360
  0
VERTEX
  8
7
  10
109.415
  20
39.309
  0
VERTEX
  8
7
  10
109.339
  20
39.258
  0
VERTEX
  8
7
  10
109.288
  20
39.182
  0
VERTEX
  8
7
  10
109.263
  20
39.105
  0
VERTEX
  8
7
  10
109.212
  20
39.004
  0
VERTEX
  8
7
  10
109.186
  20
38.902
  0
VERTEX
  8
7
  10
109.186
  20
38.801
  0
VERTEX
  8
7
  10
109.186
  20
37.454
  0
VERTEX
  8
7
  10
108.881
  20
37.454
  0
SEQEND
  0
POLYLINE
  8
7
  6
CONTINUOUS
 66
  1
  0
VERTEX
  8
7
  10
111.397
  20
38.597
  0
VERTEX
  8
7
  10
111.397
  20
38.775
  0
VERTEX
  8
7
  10
111.448
  20
38.953
  0
VERTEX
  8
7
  10
111.473
  20
39.105
  0
VERTEX
  8
7
  10
111.549
  20
39.258
  0
VERTEX
  8
7
  10
111.651
  20
39.385
  0
VERTEX
  8
7
  10
111.753
  20
39.487
  0
VERTEX
  8
7
  10
111.880
  20
39.588
  0
VERTEX
  8
7
  10
112.007
  20
39.665
  0
VERTEX
  8
7
  10
112.134
  20
39.741
  0
VERTEX
  8
7
  10
112.261
  20
39.792
  0
VERTEX
  8
7
  10
112.413
  20
39.817
  0
VERTEX
  8
7
  10
112.540
  20
39.817
  0
VERTEX
  8
7
  10
112.642
  20
39.817
  0
VERTEX
  8
7
  10
112.744
  20
39.792
  0
VERTEX
  8
7
  10
112.845
  20
39.792
  0
VERTEX
  8
7
  10
112.947
  20
39.766
  0
VERTEX
  8
7
  10
113.049
  20
39.715
  0
VERTEX
  8
7
  10
113.125
  20
39.690
  0
VERTEX
  8
7
  10
113.201
  20
39.639
  0
VERTEX
  8
7
  10
113.277
  20
39.588
  0
VERTEX
  8
7
  10
113.354
  20
39.512
  0
VERTEX
  8
7
  10
113.404
  20
39.461
  0
VERTEX
  8
7
  10
113.455
  20
39.385
  0
VERTEX
  8
7
  10
113.506
  20
39.309
  0
VERTEX
  8
7
  10
113.506
  20
39.766
  0
VERTEX
  8
7
  10
113.811
  20
39.766
  0
VERTEX
  8
7
  10
113.811
  20
37.632
  0
VERTEX
  8
7
  10
113.811
  20
37.505
  0
VERTEX
  8
7
  10
113.785
  20
37.403
  0
VERTEX
  8
7
  10
113.735
  20
37.301
  0
VERTEX
  8
7
  10
113.709
  20
37.200
  0
VERTEX
  8
7
  10
113.658
  20
37.098
  0
VERTEX
  8
7
  10
113.582
  20
36.996
  0
VERTEX
  8
7
  10
113.531
  20
36.920
  0
VERTEX
  8
7
  10
113.455
  20
36.844
  0
VERTEX
  8
7
  10
113.379
  20
36.793
  0
VERTEX
  8
7
  10
113.277
  20
36.742
  0
VERTEX
  8
7
  10
113.201
  20
36.692
  0
VERTEX
  8
7
  10
113.099
  20
36.641
  0
VERTEX
  8
7
  10
112.998
  20
36.615
  0
VERTEX
  8
7
  10
112.871
  20
36.590
  0
VERTEX
  8
7
  10
112.769
  20
36.590
  0
VERTEX
  8
7
  10
112.667
  20
36.590
  0
VERTEX
  8
7
  10
112.566
  20
36.590
  0
VERTEX
  8
7
  10
112.464
  20
36.590
  0
VERTEX
  8
7
  10
112.363
  20
36.615
  0
VERTEX
  8
7
  10
112.261
  20
36.641
  0
VERTEX
  8
7
  10
112.159
  20
36.666
  0
VERTEX
  8
7
  10
112.083
  20
36.692
  0
VERTEX
  8
7
  10
112.007
  20
36.742
  0
VERTEX
  8
7
  10
111.905
  20
36.793
  0
VERTEX
  8
7
  10
111.829
  20
36.844
  0
VERTEX
  8
7
  10
111.778
  20
36.920
  0
VERTEX
  8
7
  10
111.702
  20
36.971
  0
VERTEX
  8
7
  10
111.651
  20
37.047
  0
VERTEX
  8
7
  10
111.600
  20
37.149
  0
VERTEX
  8
7
  10
111.549
  20
37.225
  0
VERTEX
  8
7
  10
111.499
  20
37.327
  0
VERTEX
  8
7
  10
111.473
  20
37.428
  0
VERTEX
  8
7
  10
111.778
  20
37.428
  0
VERTEX
  8
7
  10
111.854
  20
37.301
  0
VERTEX
  8
7
  10
111.931
  20
37.174
  0
VERTEX
  8
7
  10
112.032
  20
37.073
  0
VERTEX
  8
7
  10
112.134
  20
36.996
  0
VERTEX
  8
7
  10
112.261
  20
36.946
  0
VERTEX
  8
7
  10
112.388
  20
36.895
  0
VERTEX
  8
7
  10
112.515
  20
36.869
  0
VERTEX
  8
7
  10
112.642
  20
36.869
  0
VERTEX
  8
7
  10
112.744
  20
36.869
  0
VERTEX
  8
7
  10
112.871
  20
36.895
  0
VERTEX
  8
7
  10
112.972
  20
36.920
  0
VERTEX
  8
7
  10
113.074
  20
36.971
  0
VERTEX
  8
7
  10
113.176
  20
37.022
  0
VERTEX
  8
7
  10
113.252
  20
37.073
  0
VERTEX
  8
7
  10
113.328
  20
37.149
  0
VERTEX
  8
7
  10
113.379
  20
37.251
  0
VERTEX
  8
7
  10
113.430
  20
37.327
  0
VERTEX
  8
7
  10
113.481
  20
37.428
  0
VERTEX
  8
7
  10
113.506
  20
37.530
  0
VERTEX
  8
7
  10
113.506
  20
37.657
  0
VERTEX
  8
7
  10
113.506
  20
37.911
  0
VERTEX
  8
7
  10
113.430
  20
37.784
  0
VERTEX
  8
7
  10
113.354
  20
37.683
  0
VERTEX
  8
7
  10
113.252
  20
37.606
  0
VERTEX
  8
7
  10
113.150
  20
37.530
  0
VERTEX
  8
7
  10
113.023
  20
37.479
  0
VERTEX
  8
7
  10
112.896
  20
37.454
  0
VERTEX
  8
7
  10
112.744
  20
37.428
  0
VERTEX
  8
7
  10
112.591
  20
37.428
  0
VERTEX
  8
7
  10
112.490
  20
37.428
  0
VERTEX
  8
7
  10
112.388
  20
37.454
  0
VERTEX
  8
7
  10
112.261
  20
37.454
  0
VERTEX
  8
7
  10
112.159
  20
37.479
  0
VERTEX
  8
7
  10
112.058
  20
37.530
  0
VERTEX
  8
7
  10
111.956
  20
37.581
  0
VERTEX
  8
7
  10
111.854
  20
37.632
  0
VERTEX
  8
7
  10
111.778
  20
37.708
  0
VERTEX
  8
7
  10
111.702
  20
37.784
  0
VERTEX
  8
7
  10
111.626
  20
37.886
  0
VERTEX
  8
7
  10
111.549
  20
37.987
  0
VERTEX
  8
7
  10
111.499
  20
38.089
  0
VERTEX
  8
7
  10
111.448
  20
38.216
  0
VERTEX
  8
7
  10
111.422
  20
38.343
  0
VERTEX
  8
7
  10
111.397
  20
38.470
  0
VERTEX
  8
7
  10
111.397
  20
38.597
  0
SEQEND
  0
POLYLINE
  8
7
  6
CONTINUOUS
 66
  1
  0
VERTEX
  8
7
  10
111.702
  20
38.674
  0
VERTEX
  8
7
  10
111.702
  20
38.521
  0
VERTEX
  8
7
  10
111.727
  20
38.394
  0
VERTEX
  8
7
  10
111.778
  20
38.267
  0
VERTEX
  8
7
  10
111.829
  20
38.165
  0
VERTEX
  8
7
  10
111.880
  20
38.064
  0
VERTEX
  8
7
  10
111.956
  20
37.962
  0
VERTEX
  8
7
  10
112.032
  20
37.886
  0
VERTEX
  8
7
  10
112.134
  20
37.810
  0
VERTEX
  8
7
  10
112.261
  20
37.759
  0
VERTEX
  8
7
  10
112.363
  20
37.708
  0
VERTEX
  8
7
  10
112.490
  20
37.683
  0
VERTEX
  8
7
  10
112.591
  20
37.683
  0
VERTEX
  8
7
  10
112.693
  20
37.683
  0
VERTEX
  8
7
  10
112.794
  20
37.708
  0
VERTEX
  8
7
  10
112.896
  20
37.759
  0
VERTEX
  8
7
  10
112.998
  20
37.784
  0
VERTEX
  8
7
  10
113.099
  20
37.835
  0
VERTEX
  8
7
  10
113.176
  20
37.911
  0
VERTEX
  8
7
  10
113.277
  20
38.013
  0
VERTEX
  8
7
  10
113.354
  20
38.115
  0
VERTEX
  8
7
  10
113.430
  20
38.216
  0
VERTEX
  8
7
  10
113.481
  20
38.343
  0
VERTEX
  8
7
  10
113.506
  20
38.496
  0
VERTEX
  8
7
  10
113.506
  20
38.648
  0
VERTEX
  8
7
  10
113.506
  20
38.724
  0
VERTEX
  8
7
  10
113.481
  20
38.801
  0
VERTEX
  8
7
  10
113.455
  20
38.877
  0
VERTEX
  8
7
  10
113.430
  20
38.953
  0
VERTEX
  8
7
  10
113.379
  20
39.029
  0
VERTEX
  8
7
  10
113.328
  20
39.105
  0
VERTEX
  8
7
  10
113.277
  20
39.182
  0
VERTEX
  8
7
  10
113.226
  20
39.233
  0
VERTEX
  8
7
  10
113.176
  20
39.309
  0
VERTEX
  8
7
  10
113.099
  20
39.360
  0
VERTEX
  8
7
  10
113.023
  20
39.385
  0
VERTEX
  8
7
  10
112.922
  20
39.436
  0
VERTEX
  8
7
  10
112.845
  20
39.461
  0
VERTEX
  8
7
  10
112.744
  20
39.487
  0
VERTEX
  8
7
  10
112.667
  20
39.512
  0
VERTEX
  8
7
  10
112.566
  20
39.512
  0
VERTEX
  8
7
  10
112.413
  20
39.487
  0
VERTEX
  8
7
  10
112.261
  20
39.461
  0
VERTEX
  8
7
  10
112.134
  20
39.410
  0
VERTEX
  8
7
  10
112.032
  20
39.334
  0
VERTEX
  8
7
  10
111.956
  20
39.258
  0
VERTEX
  8
7
  10
111.880
  20
39.156
  0
VERTEX
  8
7
  10
111.829
  20
39.080
  0
VERTEX
  8
7
  10
111.778
  20
38.978
  0
VERTEX
  8
7
  10
111.753
  20
38.877
  0
VERTEX
  8
7
  10
111.727
  20
38.801
  0
VERTEX
  8
7
  10
111.702
  20
38.724
  0
VERTEX
  8
7
  10
111.702
  20
38.674
  0
SEQEND
  0
POLYLINE
  8
7
  6
CONTINUOUS
 66
  1
  0
VERTEX
  8
7
  10
118.181
  20
37.860
  0
VERTEX
  8
7
  10
118.969
  20
40.579
  0
VERTEX
  8
7
  10
119.274
  20
40.579
  0
VERTEX
  8
7
  10
118.385
  20
37.454
  0
VERTEX
  8
7
  10
117.978
  20
37.454
  0
VERTEX
  8
7
  10
117.292
  20
40.020
  0
VERTEX
  8
7
  10
116.581
  20
37.454
  0
VERTEX
  8
7
  10
116.174
  20
37.454
  0
VERTEX
  8
7
  10
115.285
  20
40.579
  0
VERTEX
  8
7
  10
115.615
  20
40.579
  0
VERTEX
  8
7
  10
116.377
  20
37.860
  0
VERTEX
  8
7
  10
117.140
  20
40.579
  0
VERTEX
  8
7
  10
117.445
  20
40.579
  0
VERTEX
  8
7
  10
118.181
  20
37.860
  0
SEQEND
  0
POLYLINE
  8
7
  6
CONTINUOUS
 66
  1
  0
VERTEX
  8
7
  10
119.299
  20
38.623
  0
VERTEX
  8
7
  10
119.299
  20
38.750
  0
VERTEX
  8
7
  10
119.325
  20
38.877
  0
VERTEX
  8
7
  10
119.350
  20
39.004
  0
VERTEX
  8
7
  10
119.401
  20
39.131
  0
VERTEX
  8
7
  10
119.452
  20
39.233
  0
VERTEX
  8
7
  10
119.528
  20
39.309
  0
VERTEX
  8
7
  10
119.604
  20
39.410
  0
VERTEX
  8
7
  10
119.681
  20
39.487
  0
VERTEX
  8
7
  10
119.757
  20
39.563
  0
VERTEX
  8
7
  10
119.858
  20
39.639
  0
VERTEX
  8
7
  10
119.960
  20
39.690
  0
VERTEX
  8
7
  10
120.062
  20
39.741
  0
VERTEX
  8
7
  10
120.163
  20
39.766
  0
VERTEX
  8
7
  10
120.265
  20
39.792
  0
VERTEX
  8
7
  10
120.392
  20
39.817
  0
VERTEX
  8
7
  10
120.494
  20
39.817
  0
VERTEX
  8
7
  10
120.646
  20
39.817
  0
VERTEX
  8
7
  10
120.799
  20
39.792
  0
VERTEX
  8
7
  10
120.926
  20
39.741
  0
VERTEX
  8
7
  10
121.078
  20
39.690
  0
VERTEX
  8
7
  10
121.205
  20
39.614
  0
VERTEX
  8
7
  10
121.332
  20
39.512
  0
VERTEX
  8
7
  10
121.434
  20
39.385
  0
VERTEX
  8
7
  10
121.536
  20
39.233
  0
VERTEX
  8
7
  10
121.612
  20
39.080
  0
VERTEX
  8
7
  10
121.663
  20
38.928
  0
VERTEX
  8
7
  10
121.688
  20
38.750
  0
VERTEX
  8
7
  10
121.713
  20
38.546
  0
VERTEX
  8
7
  10
121.713
  20
38.496
  0
VERTEX
  8
7
  10
119.604
  20
38.496
  0
VERTEX
  8
7
  10
119.630
  20
38.369
  0
VERTEX
  8
7
  10
119.655
  20
38.242
  0
VERTEX
  8
7
  10
119.706
  20
38.140
  0
VERTEX
  8
7
  10
119.757
  20
38.064
  0
VERTEX
  8
7
  10
119.833
  20
37.962
  0
VERTEX
  8
7
  10
119.909
  20
37.886
  0
VERTEX
  8
7
  10
119.986
  20
37.835
  0
VERTEX
  8
7
  10
120.087
  20
37.784
  0
VERTEX
  8
7
  10
120.189
  20
37.759
  0
VERTEX
  8
7
  10
120.290
  20
37.708
  0
VERTEX
  8
7
  10
120.392
  20
37.683
  0
VERTEX
  8
7
  10
120.494
  20
37.683
  0
VERTEX
  8
7
  10
120.570
  20
37.683
  0
VERTEX
  8
7
  10
120.672
  20
37.708
  0
VERTEX
  8
7
  10
120.748
  20
37.733
  0
VERTEX
  8
7
  10
120.824
  20
37.759
  0
VERTEX
  8
7
  10
120.926
  20
37.810
  0
VERTEX
  8
7
  10
121.002
  20
37.835
  0
VERTEX
  8
7
  10
121.078
  20
37.886
  0
VERTEX
  8
7
  10
121.129
  20
37.937
  0
VERTEX
  8
7
  10
121.180
  20
37.987
  0
VERTEX
  8
7
  10
121.231
  20
38.064
  0
VERTEX
  8
7
  10
121.281
  20
38.140
  0
VERTEX
  8
7
  10
121.307
  20
38.216
  0
VERTEX
  8
7
  10
121.637
  20
38.216
  0
VERTEX
  8
7
  10
121.586
  20
38.089
  0
VERTEX
  8
7
  10
121.510
  20
37.962
  0
VERTEX
  8
7
  10
121.434
  20
37.860
  0
VERTEX
  8
7
  10
121.358
  20
37.759
  0
VERTEX
  8
7
  10
121.256
  20
37.657
  0
VERTEX
  8
7
  10
121.154
  20
37.581
  0
VERTEX
  8
7
  10
121.027
  20
37.530
  0
VERTEX
  8
7
  10
120.926
  20
37.479
  0
VERTEX
  8
7
  10
120.824
  20
37.454
  0
VERTEX
  8
7
  10
120.697
  20
37.454
  0
VERTEX
  8
7
  10
120.595
  20
37.428
  0
VERTEX
  8
7
  10
120.468
  20
37.428
  0
VERTEX
  8
7
  10
120.316
  20
37.428
  0
VERTEX
  8
7
  10
120.163
  20
37.454
  0
VERTEX
  8
7
  10
120.011
  20
37.505
  0
VERTEX
  8
7
  10
119.884
  20
37.555
  0
VERTEX
  8
7
  10
119.757
  20
37.632
  0
VERTEX
  8
7
  10
119.630
  20
37.733
  0
VERTEX
  8
7
  10
119.528
  20
37.860
  0
VERTEX
  8
7
  10
119.452
  20
37.987
  0
VERTEX
  8
7
  10
119.376
  20
38.115
  0
VERTEX
  8
7
  10
119.350
  20
38.267
  0
VERTEX
  8
7
  10
119.299
  20
38.445
  0
VERTEX
  8
7
  10
119.299
  20
38.623
  0
SEQEND
  0
POLYLINE
  8
7
  6
CONTINUOUS
 66
  1
  0
VERTEX
  8
7
  10
121.408
  20
38.775
  0
VERTEX
  8
7
  10
121.383
  20
38.877
  0
VERTEX
  8
7
  10
121.332
  20
38.978
  0
VERTEX
  8
7
  10
121.281
  20
39.055
  0
VERTEX
  8
7
  10
121.231
  20
39.156
  0
VERTEX
  8
7
  10
121.180
  20
39.233
  0
VERTEX
  8
7
  10
121.104
  20
39.309
  0
VERTEX
  8
7
  10
121.027
  20
39.360
  0
VERTEX
  8
7
  10
120.926
  20
39.410
  0
VERTEX
  8
7
  10
120.824
  20
39.461
  0
VERTEX
  8
7
  10
120.722
  20
39.487
  0
VERTEX
  8
7
  10
120.595
  20
39.512
  0
VERTEX
  8
7
  10
120.494
  20
39.512
  0
VERTEX
  8
7
  10
120.341
  20
39.512
  0
VERTEX
  8
7
  10
120.214
  20
39.487
  0
VERTEX
  8
7
  10
120.113
  20
39.436
  0
VERTEX
  8
7
  10
120.011
  20
39.385
  0
VERTEX
  8
7
  10
119.909
  20
39.309
  0
VERTEX
  8
7
  10
119.833
  20
39.233
  0
VERTEX
  8
7
  10
119.757
  20
39.156
  0
VERTEX
  8
7
  10
119.706
  20
39.055
  0
VERTEX
  8
7
  10
119.681
  20
38.978
  0
VERTEX
  8
7
  10
119.630
  20
38.902
  0
VERTEX
  8
7
  10
119.604
  20
38.826
  0
VERTEX
  8
7
  10
119.604
  20
38.775
  0
VERTEX
  8
7
  10
121.408
  20
38.775
  0
SEQEND
  0
POLYLINE
  8
7
  6
CONTINUOUS
 66
  1
  0
VERTEX
  8
7
  10
122.145
  20
37.454
  0
VERTEX
  8
7
  10
122.145
  20
40.579
  0
VERTEX
  8
7
  10
122.450
  20
40.579
  0
VERTEX
  8
7
  10
122.450
  20
37.454
  0
VERTEX
  8
7
  10
122.145
  20
37.454
  0
SEQEND
  0
POLYLINE
  8
7
  6
CONTINUOUS
 66
  1
  0
VERTEX
  8
7
  10
122.984
  20
37.454
  0
VERTEX
  8
7
  10
122.984
  20
40.579
  0
VERTEX
  8
7
  10
123.289
  20
40.579
  0
VERTEX
  8
7
  10
123.289
  20
37.454
  0
VERTEX
  8
7
  10
122.984
  20
37.454
  0
SEQEND
  0
POLYLINE
  8
7
  6
CONTINUOUS
 66
  1
  0
VERTEX
  8
7
  10
20.658
  20
-21.115
  0
VERTEX
  8
7
  10
20.150
  20
-21.115
  0
VERTEX
  8
7
  10
20.150
  20
-20.836
  0
VERTEX
  8
7
  10
20.988
  20
-20.836
  0
VERTEX
  8
7
  10
20.988
  20
-23.961
  0
VERTEX
  8
7
  10
20.658
  20
-23.961
  0
VERTEX
  8
7
  10
20.658
  20
-21.115
  0
SEQEND
  0
POLYLINE
  8
7
  6
CONTINUOUS
 66
  1
  0
VERTEX
  8
7
  10
19.794
  20
-32.524
  0
VERTEX
  8
7
  10
19.794
  20
-32.346
  0
VERTEX
  8
7
  10
19.819
  20
-32.194
  0
VERTEX
  8
7
  10
19.870
  20
-32.067
  0
VERTEX
  8
7
  10
19.921
  20
-31.940
  0
VERTEX
  8
7
  10
19.997
  20
-31.813
  0
VERTEX
  8
7
  10
20.099
  20
-31.711
  0
VERTEX
  8
7
  10
20.200
  20
-31.635
  0
VERTEX
  8
7
  10
20.302
  20
-31.584
  0
VERTEX
  8
7
  10
20.429
  20
-31.533
  0
VERTEX
  8
7
  10
20.556
  20
-31.482
  0
VERTEX
  8
7
  10
20.683
  20
-31.457
  0
VERTEX
  8
7
  10
20.810
  20
-31.457
  0
VERTEX
  8
7
  10
20.912
  20
-31.457
  0
VERTEX
  8
7
  10
20.988
  20
-31.482
  0
VERTEX
  8
7
  10
21.064
  20
-31.508
  0
VERTEX
  8
7
  10
21.166
  20
-31.533
  0
VERTEX
  8
7
  10
21.268
  20
-31.584
  0
VERTEX
  8
7
  10
21.344
  20
-31.610
  0
VERTEX
  8
7
  10
21.420
  20
-31.660
  0
VERTEX
  8
7
  10
21.471
  20
-31.737
  0
VERTEX
  8
7
  10
21.547
  20
-31.787
  0
VERTEX
  8
7
  10
21.598
  20
-31.864
  0
VERTEX
  8
7
  10
21.649
  20
-31.940
  0
VERTEX
  8
7
  10
21.700
  20
-32.042
  0
VERTEX
  8
7
  10
21.725
  20
-32.118
  0
VERTEX
  8
7
  10
21.750
  20
-32.219
  0
VERTEX
  8
7
  10
21.776
  20
-32.296
  0
VERTEX
  8
7
  10
21.776
  20
-32.397
  0
VERTEX
  8
7
  10
21.750
  20
-32.626
  0
VERTEX
  8
7
  10
21.674
  20
-32.855
  0
VERTEX
  8
7
  10
21.522
  20
-33.083
  0
VERTEX
  8
7
  10
21.318
  20
-33.287
  0
VERTEX
  8
7
  10
20.200
  20
-34.354
  0
VERTEX
  8
7
  10
21.776
  20
-34.354
  0
VERTEX
  8
7
  10
21.776
  20
-34.633
  0
VERTEX
  8
7
  10
19.768
  20
-34.633
  0
VERTEX
  8
7
  10
19.768
  20
-34.354
  0
VERTEX
  8
7
  10
21.166
  20
-33.007
  0
VERTEX
  8
7
  10
21.293
  20
-32.855
  0
VERTEX
  8
7
  10
21.395
  20
-32.702
  0
VERTEX
  8
7
  10
21.446
  20
-32.550
  0
VERTEX
  8
7
  10
21.471
  20
-32.397
  0
VERTEX
  8
7
  10
21.471
  20
-32.321
  0
VERTEX
  8
7
  10
21.446
  20
-32.245
  0
VERTEX
  8
7
  10
21.395
  20
-32.169
  0
VERTEX
  8
7
  10
21.369
  20
-32.092
  0
VERTEX
  8
7
  10
21.318
  20
-32.016
  0
VERTEX
  8
7
  10
21.268
  20
-31.965
  0
VERTEX
  8
7
  10
21.217
  20
-31.914
  0
VERTEX
  8
7
  10
21.141
  20
-31.864
  0
VERTEX
  8
7
  10
21.064
  20
-31.813
  0
VERTEX
  8
7
  10
20.988
  20
-31.787
  0
VERTEX
  8
7
  10
20.912
  20
-31.762
  0
VERTEX
  8
7
  10
20.836
  20
-31.762
  0
VERTEX
  8
7
  10
20.683
  20
-31.762
  0
VERTEX
  8
7
  10
20.556
  20
-31.813
  0
VERTEX
  8
7
  10
20.429
  20
-31.864
  0
VERTEX
  8
7
  10
20.328
  20
-31.940
  0
VERTEX
  8
7
  10
20.226
  20
-32.042
  0
VERTEX
  8
7
  10
20.150
  20
-32.194
  0
VERTEX
  8
7
  10
20.124
  20
-32.346
  0
VERTEX
  8
7
  10
20.099
  20
-32.524
  0
VERTEX
  8
7
  10
19.794
  20
-32.524
  0
SEQEND
  0
POLYLINE
  8
7
  6
CONTINUOUS
 66
  1
  0
VERTEX
  8
7
  10
28.078
  20
-25.460
  0
VERTEX
  8
7
  10
28.078
  20
-25.333
  0
VERTEX
  8
7
  10
28.103
  20
-25.206
  0
VERTEX
  8
7
  10
28.154
  20
-25.105
  0
VERTEX
  8
7
  10
28.205
  20
-25.003
  0
VERTEX
  8
7
  10
28.255
  20
-24.901
  0
VERTEX
  8
7
  10
28.332
  20
-24.825
  0
VERTEX
  8
7
  10
28.408
  20
-24.774
  0
VERTEX
  8
7
  10
28.484
  20
-24.723
  0
VERTEX
  8
7
  10
28.586
  20
-24.673
  0
VERTEX
  8
7
  10
28.687
  20
-24.647
  0
VERTEX
  8
7
  10
28.764
  20
-24.622
  0
VERTEX
  8
7
  10
28.865
  20
-24.622
  0
VERTEX
  8
7
  10
28.967
  20
-24.622
  0
VERTEX
  8
7
  10
29.069
  20
-24.647
  0
VERTEX
  8
7
  10
29.170
  20
-24.673
  0
VERTEX
  8
7
  10
29.272
  20
-24.723
  0
VERTEX
  8
7
  10
29.348
  20
-24.774
  0
VERTEX
  8
7
  10
29.424
  20
-24.850
  0
VERTEX
  8
7
  10
29.501
  20
-24.927
  0
VERTEX
  8
7
  10
29.551
  20
-25.028
  0
VERTEX
  8
7
  10
29.602
  20
-25.130
  0
VERTEX
  8
7
  10
29.628
  20
-25.206
  0
VERTEX
  8
7
  10
29.653
  20
-25.308
  0
VERTEX
  8
7
  10
29.653
  20
-25.409
  0
VERTEX
  8
7
  10
29.653
  20
-25.511
  0
VERTEX
  8
7
  10
29.628
  20
-25.587
  0
VERTEX
  8
7
  10
29.628
  20
-25.664
  0
VERTEX
  8
7
  10
29.602
  20
-25.740
  0
VERTEX
  8
7
  10
29.551
  20
-25.816
  0
VERTEX
  8
7
  10
29.501
  20
-25.892
  0
VERTEX
  8
7
  10
29.424
  20
-25.943
  0
VERTEX
  8
7
  10
29.348
  20
-25.994
  0
VERTEX
  8
7
  10
29.475
  20
-26.070
  0
VERTEX
  8
7
  10
29.577
  20
-26.146
  0
VERTEX
  8
7
  10
29.653
  20
-26.248
  0
VERTEX
  8
7
  10
29.729
  20
-26.350
  0
VERTEX
  8
7
  10
29.805
  20
-26.477
  0
VERTEX
  8
7
  10
29.856
  20
-26.578
  0
VERTEX
  8
7
  10
29.882
  20
-26.705
  0
VERTEX
  8
7
  10
29.882
  20
-26.832
  0
VERTEX
  8
7
  10
29.882
  20
-26.960
  0
VERTEX
  8
7
  10
29.856
  20
-27.087
  0
VERTEX
  8
7
  10
29.805
  20
-27.214
  0
VERTEX
  8
7
  10
29.729
  20
-27.341
  0
VERTEX
  8
7
  10
29.653
  20
-27.442
  0
VERTEX
  8
7
  10
29.577
  20
-27.544
  0
VERTEX
  8
7
  10
29.475
  20
-27.646
  0
VERTEX
  8
7
  10
29.373
  20
-27.722
  0
VERTEX
  8
7
  10
29.246
  20
-27.773
  0
VERTEX
  8
7
  10
29.145
  20
-27.798
  0
VERTEX
  8
7
  10
29.018
  20
-27.823
  0
VERTEX
  8
7
  10
28.891
  20
-27.823
  0
VERTEX
  8
7
  10
28.764
  20
-27.823
  0
VERTEX
  8
7
  10
28.637
  20
-27.798
  0
VERTEX
  8
7
  10
28.510
  20
-27.773
  0
VERTEX
  8
7
  10
28.382
  20
-27.747
  0
VERTEX
  8
7
  10
28.281
  20
-27.671
  0
VERTEX
  8
7
  10
28.179
  20
-27.595
  0
VERTEX
  8
7
  10
28.103
  20
-27.493
  0
VERTEX
  8
7
  10
28.027
  20
-27.391
  0
VERTEX
  8
7
  10
27.951
  20
-27.264
  0
VERTEX
  8
7
  10
27.925
  20
-27.112
  0
VERTEX
  8
7
  10
27.874
  20
-26.985
  0
VERTEX
  8
7
  10
27.874
  20
-26.832
  0
VERTEX
  8
7
  10
28.179
  20
-26.832
  0
VERTEX
  8
7
  10
28.205
  20
-26.985
  0
VERTEX
  8
7
  10
28.255
  20
-27.137
  0
VERTEX
  8
7
  10
28.332
  20
-27.264
  0
VERTEX
  8
7
  10
28.408
  20
-27.366
  0
VERTEX
  8
7
  10
28.510
  20
-27.442
  0
VERTEX
  8
7
  10
28.611
  20
-27.493
  0
VERTEX
  8
7
  10
28.738
  20
-27.544
  0
VERTEX
  8
7
  10
28.865
  20
-27.569
  0
VERTEX
  8
7
  10
28.941
  20
-27.569
  0
VERTEX
  8
7
  10
29.043
  20
-27.544
  0
VERTEX
  8
7
  10
29.119
  20
-27.493
  0
VERTEX
  8
7
  10
29.196
  20
-27.468
  0
VERTEX
  8
7
  10
29.272
  20
-27.417
  0
VERTEX
  8
7
  10
29.348
  20
-27.366
  0
VERTEX
  8
7
  10
29.399
  20
-27.315
  0
VERTEX
  8
7
  10
29.450
  20
-27.239
  0
VERTEX
  8
7
  10
29.501
  20
-27.137
  0
VERTEX
  8
7
  10
29.526
  20
-27.061
  0
VERTEX
  8
7
  10
29.551
  20
-26.985
  0
VERTEX
  8
7
  10
29.551
  20
-26.883
  0
VERTEX
  8
7
  10
29.551
  20
-26.782
  0
VERTEX
  8
7
  10
29.526
  20
-26.680
  0
VERTEX
  8
7
  10
29.501
  20
-26.578
  0
VERTEX
  8
7
  10
29.450
  20
-26.477
  0
VERTEX
  8
7
  10
29.399
  20
-26.400
  0
VERTEX
  8
7
  10
29.323
  20
-26.350
  0
VERTEX
  8
7
  10
29.246
  20
-26.299
  0
VERTEX
  8
7
  10
29.145
  20
-26.248
  0
VERTEX
  8
7
  10
29.043
  20
-26.223
  0
VERTEX
  8
7
  10
28.941
  20
-26.197
  0
VERTEX
  8
7
  10
28.840
  20
-26.172
  0
VERTEX
  8
7
  10
28.738
  20
-26.172
  0
VERTEX
  8
7
  10
28.662
  20
-26.172
  0
VERTEX
  8
7
  10
28.662
  20
-25.892
  0
VERTEX
  8
7
  10
28.789
  20
-25.892
  0
VERTEX
  8
7
  10
28.916
  20
-25.867
  0
VERTEX
  8
7
  10
29.043
  20
-25.816
  0
VERTEX
  8
7
  10
29.145
  20
-25.791
  0
VERTEX
  8
7
  10
29.246
  20
-25.714
  0
VERTEX
  8
7
  10
29.297
  20
-25.638
  0
VERTEX
  8
7
  10
29.348
  20
-25.537
  0
VERTEX
  8
7
  10
29.348
  20
-25.409
  0
VERTEX
  8
7
  10
29.348
  20
-25.333
  0
VERTEX
  8
7
  10
29.348
  20
-25.282
  0
VERTEX
  8
7
  10
29.323
  20
-25.206
  0
VERTEX
  8
7
  10
29.297
  20
-25.155
  0
VERTEX
  8
7
  10
29.246
  20
-25.105
  0
VERTEX
  8
7
  10
29.221
  20
-25.054
  0
VERTEX
  8
7
  10
29.170
  20
-25.028
  0
VERTEX
  8
7
  10
29.119
  20
-24.978
  0
VERTEX
  8
7
  10
29.069
  20
-24.952
  0
VERTEX
  8
7
  10
28.992
  20
-24.952
  0
VERTEX
  8
7
  10
28.941
  20
-24.927
  0
VERTEX
  8
7
  10
28.865
  20
-24.927
  0
VERTEX
  8
7
  10
28.789
  20
-24.927
  0
VERTEX
  8
7
  10
28.713
  20
-24.952
  0
VERTEX
  8
7
  10
28.637
  20
-25.003
  0
VERTEX
  8
7
  10
28.560
  20
-25.054
  0
VERTEX
  8
7
  10
28.510
  20
-25.130
  0
VERTEX
  8
7
  10
28.459
  20
-25.206
  0
VERTEX
  8
7
  10
28.408
  20
-25.333
  0
VERTEX
  8
7
  10
28.382
  20
-25.460
  0
VERTEX
  8
7
  10
28.078
  20
-25.460
  0
SEQEND
  0
ENDSEC
  0
EOF
